<svg xmlns="http://www.w3.org/2000/svg" xmlns:xlink="http://www.w3.org/1999/xlink" width="414" height="736" viewBox="0 0 414 736">
  <defs>
    <clipPath id="clip-path">
      <rect width="16" height="16" fill="none"/>
    </clipPath>
    <clipPath id="clip-path-2"/>
    <clipPath id="clip-iPhone_6_7_8_Plus_35">
      <rect width="414" height="736"/>
    </clipPath>
  </defs>
  <g id="iPhone_6_7_8_Plus_35" data-name="iPhone 6/7/8 Plus – 35" clip-path="url(#clip-iPhone_6_7_8_Plus_35)">
    <rect width="414" height="736" fill="#fff"/>
    <rect id="Base_Copy_5" data-name="Base Copy 5" width="426" height="0.558" rx="0.279" transform="translate(-12 345.717)" fill="#6e6e6e" opacity="0.115"/>
    <g id="Group_3" data-name="Group 3" transform="translate(19.829 446.228)">
      <rect id="Rectangle" width="23.173" height="8.655" rx="4.328" transform="translate(345.591)" fill="#d2d2d2"/>
      <rect id="Rectangle-2" data-name="Rectangle" width="30.991" height="8.655" rx="4.328" transform="translate(337.774 25.686)" fill="#d2d2d2"/>
      <rect id="Rectangle-3" data-name="Rectangle" width="15.635" height="8.655" rx="4.328" transform="translate(353.129 51.931)" fill="#d2d2d2"/>
      <rect id="Rectangle-4" data-name="Rectangle" width="61.982" height="8.655" rx="4.328" transform="translate(0 51.931)" fill="#f1f1f1"/>
      <rect id="Rectangle-5" data-name="Rectangle" width="92.973" height="8.655" rx="4.328" transform="translate(0 25.686)" fill="#f1f1f1"/>
      <rect id="Rectangle-6" data-name="Rectangle" width="38.808" height="8.655" rx="4.328" transform="translate(0)" fill="#f1f1f1"/>
    </g>
    <g id="Group_3_Copy" data-name="Group 3 Copy" transform="translate(19.829 626.311)">
      <rect id="Rectangle-7" data-name="Rectangle" width="23.173" height="8.655" rx="4.328" transform="translate(345.591)" fill="#d2d2d2"/>
      <rect id="Rectangle-8" data-name="Rectangle" width="30.991" height="8.655" rx="4.328" transform="translate(337.774 25.686)" fill="#d2d2d2"/>
      <rect id="Rectangle-9" data-name="Rectangle" width="15.635" height="8.655" rx="4.328" transform="translate(353.129 51.931)" fill="#d2d2d2"/>
      <rect id="Rectangle-10" data-name="Rectangle" width="61.982" height="8.655" rx="4.328" transform="translate(0 51.931)" fill="#f1f1f1"/>
      <rect id="Rectangle-11" data-name="Rectangle" width="92.973" height="8.655" rx="4.328" transform="translate(0 25.686)" fill="#f1f1f1"/>
      <rect id="Rectangle-12" data-name="Rectangle" width="38.808" height="8.655" rx="4.328" transform="translate(0)" fill="#f1f1f1"/>
    </g>
    <g id="Group_3-2" data-name="Group 3" transform="translate(19.829 446.228)">
      <rect id="Rectangle-13" data-name="Rectangle" width="23.173" height="8.655" rx="4.328" transform="translate(345.591)" fill="#65a3ff"/>
      <rect id="Rectangle-14" data-name="Rectangle" width="30.991" height="8.655" rx="4.328" transform="translate(337.774 25.686)" fill="#65a3ff"/>
      <rect id="Rectangle-15" data-name="Rectangle" width="15.635" height="8.655" rx="4.328" transform="translate(353.129 51.931)" fill="#65a3ff"/>
      <rect id="Rectangle-16" data-name="Rectangle" width="61.982" height="8.655" rx="4.328" transform="translate(0 51.931)" fill="#65a3ff"/>
      <rect id="Rectangle-17" data-name="Rectangle" width="92.973" height="8.655" rx="4.328" transform="translate(0 25.686)" fill="#65a3ff"/>
      <rect id="Rectangle-18" data-name="Rectangle" width="38.808" height="8.655" rx="4.328" transform="translate(0)" fill="#65a3ff"/>
    </g>
    <g id="Group_3_Copy_2" data-name="Group 3 Copy 2" transform="translate(19.829 626.311)">
      <rect id="Rectangle-19" data-name="Rectangle" width="23.173" height="8.655" rx="4.328" transform="translate(345.591)" fill="#65a3ff"/>
      <rect id="Rectangle-20" data-name="Rectangle" width="30.991" height="8.655" rx="4.328" transform="translate(337.774 25.686)" fill="#65a3ff"/>
      <rect id="Rectangle-21" data-name="Rectangle" width="15.635" height="8.655" rx="4.328" transform="translate(353.129 51.931)" fill="#65a3ff"/>
      <rect id="Rectangle-22" data-name="Rectangle" width="61.982" height="8.655" rx="4.328" transform="translate(0 51.931)" fill="#65a3ff"/>
      <rect id="Rectangle-23" data-name="Rectangle" width="92.973" height="8.655" rx="4.328" transform="translate(0 25.686)" fill="#65a3ff"/>
      <rect id="Rectangle-24" data-name="Rectangle" width="38.808" height="8.655" rx="4.328" transform="translate(0)" fill="#65a3ff"/>
    </g>
    <rect id="Rectangle_2_Copy" data-name="Rectangle 2 Copy" width="368.764" height="75.383" rx="7.676" transform="translate(19.27 358.56)" fill="#f1f9ff"/>
    <rect id="Rectangle_2_Copy_2" data-name="Rectangle 2 Copy 2" width="368.764" height="75.383" rx="7.676" transform="translate(19.27 538.643)" fill="#f1f9ff"/>
    <g id="Input" transform="translate(19 90)">
      <g id="Rectangle_442" data-name="Rectangle 442" fill="#fff" stroke="#bce0fd" stroke-width="1">
        <rect width="377" height="48" stroke="none"/>
        <rect x="0.5" y="0.5" width="376" height="47" fill="none"/>
      </g>
      <g id="Component_2" data-name="Component 2" transform="translate(17 16)" clip-path="url(#clip-path)">
        <rect id="Rectangle_176" data-name="Rectangle 176" width="16" height="16" fill="none"/>
        <path id="Path_99" data-name="Path 99" d="M15.9,14.5l-3.3-3.3A6.847,6.847,0,0,0,14,7,6.957,6.957,0,0,0,7,0,6.957,6.957,0,0,0,0,7a6.957,6.957,0,0,0,7,7,6.847,6.847,0,0,0,4.2-1.4l3.3,3.3ZM2,7A4.951,4.951,0,0,1,7,2a4.951,4.951,0,0,1,5,5,4.951,4.951,0,0,1-5,5A4.951,4.951,0,0,1,2,7Z" fill="#65a3ff"/>
      </g>
      <rect id="Rectangle_443" data-name="Rectangle 443" width="1" height="22" transform="translate(40 13)" fill="#2699fb"/>
      <g id="Mic_1" data-name="Mic – 1" transform="translate(345 16)">
        <rect id="Rectangle_313" data-name="Rectangle 313" width="18" height="18" fill="none"/>
        <path id="Path_124" data-name="Path 124" d="M16.445,8.655a8.46,8.46,0,0,1-1.9,5.366,8.6,8.6,0,0,1-5.02,2.77v3.635c0,.173,0,.173-.173.346A.6.6,0,0,1,9,20.946H7.27c-.173,0-.173,0-.346-.173a.24.24,0,0,1,0-.346V16.791a8.6,8.6,0,0,1-5.02-2.77A8.46,8.46,0,0,1,0,8.655,1.322,1.322,0,0,1,.346,7.79a1.322,1.322,0,0,1,.866-.346,1.322,1.322,0,0,1,.866.346.952.952,0,0,1,.519.866,5.013,5.013,0,0,0,1.731,3.981,5.635,5.635,0,0,0,3.981,1.731,5.013,5.013,0,0,0,3.981-1.731,5.484,5.484,0,0,0,1.558-3.981,1.224,1.224,0,0,1,2.077-.866A.952.952,0,0,1,16.445,8.655Zm-12.117,0V3.808a3.444,3.444,0,0,1,1.212-2.77A3.655,3.655,0,0,1,8.309,0a3.228,3.228,0,0,1,2.77,1.212,3.523,3.523,0,0,1,1.039,2.6V8.655a3.444,3.444,0,0,1-1.212,2.77,3.523,3.523,0,0,1-2.6,1.039,3.655,3.655,0,0,1-2.77-1.039A3.444,3.444,0,0,1,4.328,8.655Z" transform="translate(0 -2.547)" fill="#65a3ff"/>
      </g>
    </g>
    <g id="Rectangle_1462" data-name="Rectangle 1462" transform="translate(40 707)" fill="#fff" stroke="#fff" stroke-width="1">
      <rect width="4" height="6" stroke="none"/>
      <rect x="0.5" y="0.5" width="3" height="5" fill="none"/>
    </g>
    <g id="Top_Bar" data-name="Top Bar" transform="translate(19 18)">
      <g id="Component_2_16" data-name="Component 2 – 16">
        <g id="Rectangle_1459" data-name="Rectangle 1459" fill="#fff" stroke="#65a3ff" stroke-width="1">
          <rect width="221" height="43" stroke="none"/>
          <rect x="0.5" y="0.5" width="220" height="42" fill="none"/>
        </g>
        <line id="Line_3" data-name="Line 3" x2="221" y2="43" transform="translate(0.5 0.5)" fill="none" stroke="#65a3ff" stroke-width="1"/>
        <line id="Line_4" data-name="Line 4" x1="221" y2="43" transform="translate(0.5 0.5)" fill="none" stroke="#65a3ff" stroke-width="1"/>
      </g>
      <g id="Profile" transform="translate(334)">
        <circle id="Ellipse_234" data-name="Ellipse 234" cx="20" cy="20" r="20" fill="#65a3ff"/>
        <path id="Union_44" data-name="Union 44" d="M0,370v-2c0-2.2,3.6-4,8-4s8,1.8,8,4v2Zm4-12a4,4,0,1,1,4,4A4,4,0,0,1,4,358Z" transform="translate(12 -342)" fill="#fff"/>
      </g>
    </g>
    <g id="Photo_Placeholder" data-name="Photo Placeholder" transform="translate(20 171)">
      <g id="Group_1" data-name="Group 1" clip-path="url(#clip-path-2)">
        <g id="Rectangle_1" data-name="Rectangle 1" fill="#fff" stroke="#65a3ff" stroke-width="1">
          <rect width="111" height="87" stroke="none"/>
          <rect x="0.5" y="0.5" width="110" height="86" fill="none"/>
        </g>
        <line id="Line_1" data-name="Line 1" x2="90.508" y2="71.182" transform="translate(9.954 10.134)" fill="none" stroke="#65a3ff" stroke-width="1"/>
        <line id="Line_2" data-name="Line 2" x2="74.242" y2="88.038" transform="matrix(-0.035, 0.999, -0.999, -0.035, 99.926, 10.164)" fill="none" stroke="#65a3ff" stroke-width="1"/>
      </g>
    </g>
    <text id="Adventure_Day" data-name="Adventure Day" transform="translate(236 197)" fill="#65a3ff" font-size="25" font-family="Arial-BoldMT, Arial" font-weight="700"><tspan x="-88.22" y="0">Adventure Day</tspan></text>
    <text id="San_Francisco_CA_1_day_" data-name="San Francisco, CA
1 day,  $$  " transform="translate(148 202)" fill="#65a3ff" font-size="20" font-family="SegoeUI, Segoe UI"><tspan x="0" y="22">San Francisco, CA</tspan><tspan x="0" y="49" xml:space="preserve">1 day,  $$  </tspan></text>
    <g id="Group_324" data-name="Group 324" transform="translate(54 3.947)">
      <g id="Group_322" data-name="Group 322" transform="translate(260.649 233)">
        <g id="Star" transform="translate(0.351 0.053)" clip-path="url(#clip-path)">
          <path id="Path_157" data-name="Path 157" d="M8.167,0l2.552,5.147,5.615.823L12.25,9.984l.919,5.661-5-2.676-5,2.676.919-5.661L0,5.97l5.615-.823Z" fill="#65a3ff"/>
          <rect id="Rectangle_1449" data-name="Rectangle 1449" width="16" height="16" transform="translate(0 0)" fill="none"/>
        </g>
      </g>
      <g id="Group_323" data-name="Group 323" transform="translate(185 233)">
        <g id="Star-2" data-name="Star" transform="translate(0 0.053)" clip-path="url(#clip-path)">
          <path id="Path_157-2" data-name="Path 157" d="M8.167,0l2.552,5.147,5.615.823L12.25,9.984l.919,5.661-5-2.676-5,2.676.919-5.661L0,5.97l5.615-.823Z" fill="#65a3ff"/>
          <rect id="Rectangle_1449-2" data-name="Rectangle 1449" width="16" height="16" transform="translate(0 0)" fill="none"/>
        </g>
        <g id="Star-3" data-name="Star" transform="translate(19 0.053)" clip-path="url(#clip-path)">
          <path id="Path_157-3" data-name="Path 157" d="M8.167,0l2.552,5.147,5.615.823L12.25,9.984l.919,5.661-5-2.676-5,2.676.919-5.661L0,5.97l5.615-.823Z" fill="#65a3ff"/>
          <rect id="Rectangle_1449-3" data-name="Rectangle 1449" width="16" height="16" transform="translate(0 0)" fill="none"/>
        </g>
        <g id="Star-4" data-name="Star" transform="translate(38 0.053)" clip-path="url(#clip-path)">
          <path id="Path_157-4" data-name="Path 157" d="M8.167,0l2.552,5.147,5.615.823L12.25,9.984l.919,5.661-5-2.676-5,2.676.919-5.661L0,5.97l5.615-.823Z" fill="#65a3ff"/>
          <rect id="Rectangle_1449-4" data-name="Rectangle 1449" width="16" height="16" transform="translate(0 0)" fill="none"/>
        </g>
        <g id="Star-5" data-name="Star" transform="translate(57 0.053)" clip-path="url(#clip-path)">
          <path id="Path_157-5" data-name="Path 157" d="M8.167,0l2.552,5.147,5.615.823L12.25,9.984l.919,5.661-5-2.676-5,2.676.919-5.661L0,5.97l5.615-.823Z" fill="#65a3ff"/>
          <rect id="Rectangle_1449-5" data-name="Rectangle 1449" width="16" height="16" transform="translate(0 0)" fill="none"/>
        </g>
        <rect id="Rectangle_1466" data-name="Rectangle 1466" width="14" height="18" transform="translate(84 0.053)" fill="#fff"/>
      </g>
    </g>
    <g id="Reset_Filters" data-name="Reset Filters" transform="translate(19 290)">
      <g id="Rectangle_151" data-name="Rectangle 151" fill="none" stroke="#bce0fd" stroke-width="2">
        <rect width="173" height="50" rx="4" stroke="none"/>
        <rect x="1" y="1" width="171" height="48" rx="3" fill="none"/>
      </g>
      <text id="ADDED_TO_FAVORITES" data-name="ADDED TO FAVORITES" transform="translate(87 29)" fill="#65a3ff" font-size="10" font-family="Arial-BoldMT, Arial" font-weight="700"><tspan x="-55.376" y="0">ADDED TO FAVORITES</tspan></text>
    </g>
    <g id="Apply_Filters" data-name="Apply Filters" transform="translate(215 290)">
      <path id="Path_992" data-name="Path 992" d="M4.465,0H168.535A4.251,4.251,0,0,1,173,4V46a4.251,4.251,0,0,1-4.465,4H4.465A4.251,4.251,0,0,1,0,46V4A4.251,4.251,0,0,1,4.465,0Z" fill="#65a3ff"/>
      <text id="ADD_TO_TRIP" data-name="ADD TO TRIP" transform="translate(87 29)" fill="#fff" font-size="10" font-family="Arial-BoldMT, Arial" font-weight="700"><tspan x="-31.853" y="0">ADD TO TRIP</tspan></text>
    </g>
    <path id="Heart" d="M17.506,1.544a5.105,5.105,0,0,0-7.266,0l-.715.715L8.81,1.544A5.138,5.138,0,0,0,1.544,8.81l7.981,7.981L17.506,8.81a5.105,5.105,0,0,0,0-7.266" transform="translate(362.975 180.975)" fill="#65a3ff" stroke="#65a3ff" stroke-width="1.5" fill-rule="evenodd"/>
    <text id="San_Francisco_Segway_Tour_" data-name="San Francisco Segway Tour
" transform="translate(37 368)" fill="#65a3ff" font-size="20" font-family="SegoeUI, Segoe UI"><tspan x="0" y="22">San Francisco Segway Tour</tspan></text>
    <text id="Casa_Buena_Restaurant_" data-name="Casa Buena Restaurant
" transform="translate(37 555)" fill="#65a3ff" font-size="20" font-family="SegoeUI, Segoe UI"><tspan x="0" y="22">Casa Buena Restaurant</tspan></text>
  </g>
</svg>
