<?xml version="1.0" standalone="no"?>
<!DOCTYPE svg PUBLIC "-//W3C//DTD SVG 20010904//EN"
 "http://www.w3.org/TR/2001/REC-SVG-20010904/DTD/svg10.dtd">
<svg version="1.0" xmlns="http://www.w3.org/2000/svg"
 width="1069.000000pt" height="719.000000pt" viewBox="0 0 1069.000000 719.000000"
 preserveAspectRatio="xMidYMid meet">
<metadata>
Created by potrace 1.16, written by Peter Selinger 2001-2019
</metadata>
<g transform="translate(0.000000,719.000000) scale(0.100000,-0.100000)"
fill="#000000" stroke="none">
<path d="M463 6790 c-27 -11 -43 -40 -43 -78 0 -41 28 -71 72 -78 30 -5 41 -2
62 19 69 69 -1 173 -91 137z"/>
<path d="M630 6715 l0 -85 38 0 c66 0 108 52 65 80 -13 8 -14 13 -5 16 19 9
14 52 -7 64 -11 5 -36 10 -55 10 l-36 0 0 -85z"/>
<path d="M804 4889 c-11 -13 -19 -35 -19 -59 0 -50 27 -80 72 -80 46 0 73 29
73 80 0 27 -7 47 -20 60 -27 27 -81 26 -106 -1z"/>
<path d="M753 2970 c-45 -18 -60 -103 -23 -140 29 -29 84 -27 115 5 35 34 33
78 -4 116 -30 30 -50 34 -88 19z"/>
<path d="M919 2978 c0 -2 -2 -40 -4 -85 l-3 -83 44 0 c57 0 94 33 94 82 -1 40
-17 64 -54 78 -24 9 -75 14 -77 8z"/>
<path d="M4105 2968 c-2 -7 -16 -44 -30 -82 -14 -37 -25 -72 -25 -77 0 -16 31
-9 37 9 9 24 19 29 52 24 18 -2 31 -11 34 -23 5 -17 37 -28 37 -12 0 4 -14 44
-31 90 -24 64 -36 83 -51 83 -10 0 -21 -6 -23 -12z"/>
<path d="M4742 2893 c2 -70 6 -88 18 -88 10 0 16 12 18 33 4 41 15 40 48 -3
26 -35 44 -45 44 -24 0 6 -9 22 -20 36 -18 23 -19 28 -5 43 37 41 1 90 -68 90
l-38 0 3 -87z"/>
<path d="M5079 2953 c-21 -52 -49 -136 -49 -145 0 -17 29 -7 35 12 6 20 10 22
45 22 34 0 38 -1 43 -22 5 -18 37 -30 37 -13 0 4 -14 44 -31 90 -24 64 -36 83
-51 83 -11 0 -23 -11 -29 -27z"/>
<path d="M5384 2957 c-53 -46 -33 -135 33 -152 61 -15 112 40 99 109 -8 41
-23 55 -68 63 -27 4 -41 0 -64 -20z"/>
<path d="M5560 2889 c0 -68 3 -90 13 -87 6 3 13 19 15 36 4 41 21 40 51 -3 13
-19 30 -35 37 -35 19 0 18 7 -7 42 -20 28 -21 32 -7 57 27 49 -1 81 -73 81
l-29 0 0 -91z"/>
<path d="M4388 2024 c-2 -9 -2 -47 0 -85 l4 -69 32 0 c64 0 106 59 84 120 -15
45 -112 72 -120 34z"/>
<path d="M4407 1360 c-24 -19 -28 -28 -25 -68 2 -35 9 -49 29 -65 57 -42 129
13 115 88 -12 60 -72 82 -119 45z"/>
</g>
</svg>
