<svg version="1.1" viewBox="0.0 0.0 600.0 371.0" fill="none" stroke="none" stroke-linecap="square" stroke-miterlimit="10" width="600" height="371" xmlns:xlink="http://www.w3.org/1999/xlink" xmlns="http://www.w3.org/2000/svg"><path fill="#ffffff" d="M0 0L600.0 0L600.0 371.0L0 371.0L0 0Z" fill-rule="nonzero"/><path stroke="#333333" stroke-width="1.0" stroke-linecap="butt" d="M77.5 300.5L581.5 300.5" fill-rule="nonzero"/><path stroke="#cccccc" stroke-width="1.0" stroke-linecap="butt" d="M77.5 208.5L581.5 208.5" fill-rule="nonzero"/><path stroke="#cccccc" stroke-width="1.0" stroke-linecap="butt" d="M77.5 117.5L581.5 117.5" fill-rule="nonzero"/><path stroke="#cccccc" stroke-width="1.0" stroke-linecap="butt" d="M77.5 25.5L581.5 25.5" fill-rule="nonzero"/><clipPath id="id_0"><path d="M77.55 25.55L581.45 25.55L581.45 300.45L77.55 300.45L77.55 25.55Z" clip-rule="nonzero"/></clipPath><path stroke="#000000" stroke-width="2.0" stroke-linecap="butt" stroke-opacity="0.0" clip-path="url(#id_0)" d="M157.0 300.0L105.0 300.0L105.0 284.0C105.0 282.89542 105.89543 282.0 107.0 282.0L155.0 282.0C156.10457 282.0 157.0 282.89542 157.0 284.0Z" fill-rule="nonzero"/><path fill="#475827" clip-path="url(#id_0)" d="M157.0 300.0L105.0 300.0L105.0 284.0C105.0 282.89542 105.89543 282.0 107.0 282.0L155.0 282.0C156.10457 282.0 157.0 282.89542 157.0 284.0Z" fill-rule="nonzero"/><path stroke="#000000" stroke-width="2.0" stroke-linecap="butt" stroke-opacity="0.0" clip-path="url(#id_0)" d="M236.0 300.0L184.0 300.0L184.0 46.0C184.0 44.89543 184.89543 44.0 186.0 44.0L234.0 44.0C235.10457 44.0 236.0 44.89543 236.0 46.0Z" fill-rule="nonzero"/><path fill="#475827" clip-path="url(#id_0)" d="M236.0 300.0L184.0 300.0L184.0 46.0C184.0 44.89543 184.89543 44.0 186.0 44.0L234.0 44.0C235.10457 44.0 236.0 44.89543 236.0 46.0Z" fill-rule="nonzero"/><path stroke="#000000" stroke-width="2.0" stroke-linecap="butt" stroke-opacity="0.0" clip-path="url(#id_0)" d="M316.0 300.0L264.0 300.0L264.0 28.0C264.0 26.89543 264.89542 26.0 266.0 26.0L314.0 26.0C315.10458 26.0 316.0 26.89543 316.0 28.0Z" fill-rule="nonzero"/><path fill="#475827" clip-path="url(#id_0)" d="M316.0 300.0L264.0 300.0L264.0 28.0C264.0 26.89543 264.89542 26.0 266.0 26.0L314.0 26.0C315.10458 26.0 316.0 26.89543 316.0 28.0Z" fill-rule="nonzero"/><path stroke="#000000" stroke-width="2.0" stroke-linecap="butt" stroke-opacity="0.0" clip-path="url(#id_0)" d="M395.0 300.0L343.0 300.0L343.0 119.0C343.0 117.89543 343.89542 117.0 345.0 117.0L393.0 117.0C394.10458 117.0 395.0 117.89543 395.0 119.0Z" fill-rule="nonzero"/><path fill="#475827" clip-path="url(#id_0)" d="M395.0 300.0L343.0 300.0L343.0 119.0C343.0 117.89543 343.89542 117.0 345.0 117.0L393.0 117.0C394.10458 117.0 395.0 117.89543 395.0 119.0Z" fill-rule="nonzero"/><path stroke="#000000" stroke-width="2.0" stroke-linecap="butt" stroke-opacity="0.0" clip-path="url(#id_0)" d="M475.0 300.0L423.0 300.0L423.0 174.0C423.0 172.89543 423.89542 172.0 425.0 172.0L473.0 172.0C474.10458 172.0 475.0 172.89543 475.0 174.0Z" fill-rule="nonzero"/><path fill="#475827" clip-path="url(#id_0)" d="M475.0 300.0L423.0 300.0L423.0 174.0C423.0 172.89543 423.89542 172.0 425.0 172.0L473.0 172.0C474.10458 172.0 475.0 172.89543 475.0 174.0Z" fill-rule="nonzero"/><path stroke="#000000" stroke-width="2.0" stroke-linecap="butt" stroke-opacity="0.0" clip-path="url(#id_0)" d="M554.0 300.0L502.0 300.0L502.0 266.0C502.0 264.89542 502.89542 264.0 504.0 264.0L552.0 264.0C553.10455 264.0 554.0 264.89542 554.0 266.0Z" fill-rule="nonzero"/><path fill="#475827" clip-path="url(#id_0)" d="M554.0 300.0L502.0 300.0L502.0 266.0C502.0 264.89542 502.89542 264.0 504.0 264.0L552.0 264.0C553.10455 264.0 554.0 264.89542 554.0 266.0Z" fill-rule="nonzero"/><path stroke="#475827" stroke-width="3.0" stroke-linejoin="round" stroke-linecap="round" d="M132.1875 295.78665L130.5 295.78665L130.5 289.2554L128.48438 289.8804L128.48438 288.5054L132.01562 287.23978L132.1875 287.23978L132.1875 295.78665Z" fill-rule="nonzero"/><path fill="#ffffff" d="M132.1875 295.78665L130.5 295.78665L130.5 289.2554L128.48438 289.8804L128.48438 288.5054L132.01562 287.23978L132.1875 287.23978L132.1875 295.78665Z" fill-rule="nonzero"/><path stroke="#475827" stroke-width="3.0" stroke-linejoin="round" stroke-linecap="round" d="M207.6875 60.676666L206.0 60.676666L206.0 54.145416L203.98438 54.770416L203.98438 53.395416L207.51562 52.12979L207.6875 52.12979L207.6875 60.676666ZM215.59375 57.457916L216.5625 57.457916L216.5625 58.832916L215.59375 58.832916L215.59375 60.676666L213.89062 60.676666L213.89062 58.832916L210.40625 58.832916L210.32812 57.770416L213.875 52.145416L215.59375 52.145416L215.59375 57.457916ZM212.01562 57.457916L213.89062 57.457916L213.89062 54.457916L213.78125 54.645416L212.01562 57.457916Z" fill-rule="nonzero"/><path fill="#ffffff" d="M207.6875 60.676666L206.0 60.676666L206.0 54.145416L203.98438 54.770416L203.98438 53.395416L207.51562 52.12979L207.6875 52.12979L207.6875 60.676666ZM215.59375 57.457916L216.5625 57.457916L216.5625 58.832916L215.59375 58.832916L215.59375 60.676666L213.89062 60.676666L213.89062 58.832916L210.40625 58.832916L210.32812 57.770416L213.875 52.145416L215.59375 52.145416L215.59375 57.457916ZM212.01562 57.457916L213.89062 57.457916L213.89062 54.457916L213.78125 54.645416L212.01562 57.457916Z" fill-rule="nonzero"/><path stroke="#475827" stroke-width="3.0" stroke-linejoin="round" stroke-linecap="round" d="M287.6875 42.35L286.0 42.35L286.0 35.81875L283.98438 36.44375L283.98438 35.06875L287.51562 33.803123L287.6875 33.803123L287.6875 42.35ZM290.82812 38.146873L291.32812 33.81875L296.10938 33.81875L296.10938 35.225L292.71875 35.225L292.5 37.06875Q293.10938 36.740623 293.78125 36.740623Q295.0 36.740623 295.6875 37.50625Q296.39062 38.25625 296.39062 39.615623Q296.39062 40.44375 296.03125 41.1Q295.6875 41.740623 295.03125 42.115623Q294.39062 42.475 293.5 42.475Q292.73438 42.475 292.0625 42.1625Q291.40625 41.834373 291.01562 41.271873Q290.64062 40.709373 290.60938 39.975L292.29688 39.975Q292.34375 40.50625 292.65625 40.803123Q292.98438 41.1 293.5 41.1Q294.07812 41.1 294.375 40.69375Q294.6875 40.271873 294.6875 39.521873Q294.6875 38.7875 294.32812 38.4125Q293.98438 38.021873 293.32812 38.021873Q292.71875 38.021873 292.34375 38.334373L292.1875 38.490623L290.82812 38.146873Z" fill-rule="nonzero"/><path fill="#ffffff" d="M287.6875 42.35L286.0 42.35L286.0 35.81875L283.98438 36.44375L283.98438 35.06875L287.51562 33.803123L287.6875 33.803123L287.6875 42.35ZM290.82812 38.146873L291.32812 33.81875L296.10938 33.81875L296.10938 35.225L292.71875 35.225L292.5 37.06875Q293.10938 36.740623 293.78125 36.740623Q295.0 36.740623 295.6875 37.50625Q296.39062 38.25625 296.39062 39.615623Q296.39062 40.44375 296.03125 41.1Q295.6875 41.740623 295.03125 42.115623Q294.39062 42.475 293.5 42.475Q292.73438 42.475 292.0625 42.1625Q291.40625 41.834373 291.01562 41.271873Q290.64062 40.709373 290.60938 39.975L292.29688 39.975Q292.34375 40.50625 292.65625 40.803123Q292.98438 41.1 293.5 41.1Q294.07812 41.1 294.375 40.69375Q294.6875 40.271873 294.6875 39.521873Q294.6875 38.7875 294.32812 38.4125Q293.98438 38.021873 293.32812 38.021873Q292.71875 38.021873 292.34375 38.334373L292.1875 38.490623L290.82812 38.146873Z" fill-rule="nonzero"/><path stroke="#475827" stroke-width="3.0" stroke-linejoin="round" stroke-linecap="round" d="M366.6875 133.98334L365.0 133.98334L365.0 127.45208L362.98438 128.07709L362.98438 126.70208L366.51562 125.436455L366.6875 125.436455L366.6875 133.98334ZM375.32812 130.45209Q375.32812 132.21771 374.59375 133.17084Q373.85938 134.10834 372.45312 134.10834Q371.04688 134.10834 370.3125 133.18646Q369.57812 132.26459 369.5625 130.54584L369.5625 128.96771Q369.5625 127.186455 370.29688 126.26458Q371.04688 125.32708 372.4375 125.32708Q373.82812 125.32708 374.5625 126.248955Q375.3125 127.17083 375.32812 128.88959L375.32812 130.45209ZM373.625 128.73334Q373.625 127.67083 373.32812 127.186455Q373.04688 126.70208 372.4375 126.70208Q371.84375 126.70208 371.54688 127.17083Q371.26562 127.623955 371.25 128.60834L371.25 130.67084Q371.25 131.71771 371.53125 132.23334Q371.8125 132.73334 372.45312 132.73334Q373.0625 132.73334 373.34375 132.24896Q373.625 131.76459 373.625 130.76459L373.625 128.73334Z" fill-rule="nonzero"/><path fill="#ffffff" d="M366.6875 133.98334L365.0 133.98334L365.0 127.45209L362.98438 128.07709L362.98438 126.70209L366.51562 125.43646L366.6875 125.43646L366.6875 133.98334ZM375.32812 130.45209Q375.32812 132.21771 374.59375 133.17084Q373.85938 134.10834 372.45312 134.10834Q371.04688 134.10834 370.3125 133.18646Q369.57812 132.26459 369.5625 130.54584L369.5625 128.96771Q369.5625 127.18646 370.29688 126.26459Q371.04688 125.32709 372.4375 125.32709Q373.82812 125.32709 374.5625 126.24896Q375.3125 127.17084 375.32812 128.88959L375.32812 130.45209ZM373.625 128.73334Q373.625 127.67084 373.32812 127.18646Q373.04688 126.70209 372.4375 126.70209Q371.84375 126.70209 371.54688 127.17084Q371.26562 127.62396 371.25 128.60834L371.25 130.67084Q371.25 131.71771 371.53125 132.23334Q371.8125 132.73334 372.45312 132.73334Q373.0625 132.73334 373.34375 132.24896Q373.625 131.76459 373.625 130.76459L373.625 128.73334Z" fill-rule="nonzero"/><path stroke="#475827" stroke-width="3.0" stroke-linejoin="round" stroke-linecap="round" d="M451.875 181.38521L448.57812 188.96333L446.79688 188.96333L450.09375 181.80708L445.85938 181.80708L445.85938 180.43208L451.875 180.43208L451.875 181.38521Z" fill-rule="nonzero"/><path fill="#ffffff" d="M451.875 181.38521L448.57812 188.96333L446.79688 188.96333L450.09375 181.80708L445.85938 181.80708L445.85938 180.43208L451.875 180.43208L451.875 181.38521Z" fill-rule="nonzero"/><path stroke="#475827" stroke-width="3.0" stroke-linejoin="round" stroke-linecap="round" d="M530.9219 280.59668L525.0781 280.59668L525.0781 279.44043L527.84375 276.4873Q528.40625 275.87793 528.6719 275.40918Q528.9531 274.94043 528.9531 274.53418Q528.9531 273.95605 528.65625 273.64355Q528.375 273.31543 527.84375 273.31543Q527.2656 273.31543 526.9375 273.70605Q526.6094 274.09668 526.6094 274.75293L524.90625 274.75293Q524.90625 273.97168 525.28125 273.33105Q525.65625 272.6748 526.3281 272.31543Q527.0156 271.94043 527.875 271.94043Q529.1875 271.94043 529.9219 272.58105Q530.65625 273.20605 530.65625 274.3623Q530.65625 275.00293 530.3281 275.65918Q530.0 276.31543 529.2031 277.19043L527.2656 279.2373L530.9219 279.2373L530.9219 280.59668Z" fill-rule="nonzero"/><path fill="#ffffff" d="M530.9219 280.59668L525.0781 280.59668L525.0781 279.44043L527.84375 276.4873Q528.40625 275.87793 528.6719 275.40918Q528.9531 274.94043 528.9531 274.53418Q528.9531 273.95605 528.65625 273.64355Q528.375 273.31543 527.84375 273.31543Q527.2656 273.31543 526.9375 273.70605Q526.6094 274.09668 526.6094 274.75293L524.90625 274.75293Q524.90625 273.97168 525.28125 273.33105Q525.65625 272.6748 526.3281 272.31543Q527.0156 271.94043 527.875 271.94043Q529.1875 271.94043 529.9219 272.58105Q530.65625 273.20605 530.65625 274.3623Q530.65625 275.00293 530.3281 275.65918Q530.0 276.31543 529.2031 277.19043L527.2656 279.2373L530.9219 279.2373L530.9219 280.59668Z" fill-rule="nonzero"/><path fill="#000000" d="M300.48438 349.45L303.78125 340.85626L305.0 340.85626L308.51562 349.45L307.23438 349.45L306.21875 346.84064L302.64062 346.84064L301.6875 349.45L300.48438 349.45ZM302.96875 345.91876L305.875 345.91876L304.98438 343.54376Q304.5625 342.46564 304.375 341.7625Q304.20312 342.59064 303.90625 343.40314L302.96875 345.91876ZM308.09375 349.96564L309.125 350.1219Q309.1875 350.59064 309.48438 350.8094Q309.875 351.10626 310.54688 351.10626Q311.28125 351.10626 311.67188 350.8094Q312.07812 350.5125 312.21875 349.9969Q312.3125 349.66876 312.29688 348.6375Q311.60938 349.45 310.57812 349.45Q309.29688 349.45 308.59375 348.52814Q307.89062 347.59064 307.89062 346.3094Q307.89062 345.41876 308.20312 344.66876Q308.53125 343.90314 309.14062 343.4969Q309.75 343.09064 310.57812 343.09064Q311.6875 343.09064 312.40625 343.98126L312.40625 343.23126L313.375 343.23126L313.375 348.60626Q313.375 350.0594 313.07812 350.66876Q312.78125 351.27814 312.14062 351.6219Q311.5 351.98126 310.5625 351.98126Q309.45312 351.98126 308.76562 351.48126Q308.07812 350.98126 308.09375 349.96564ZM308.96875 346.23126Q308.96875 347.45 309.45312 348.0125Q309.9375 348.575 310.67188 348.575Q311.40625 348.575 311.89062 348.0125Q312.39062 347.45 312.39062 346.2625Q312.39062 345.1219 311.875 344.54376Q311.375 343.96564 310.65625 343.96564Q309.95312 343.96564 309.45312 344.54376Q308.96875 345.10626 308.96875 346.23126ZM319.54688 347.45L320.64062 347.575Q320.39062 348.52814 319.6875 349.0594Q318.98438 349.59064 317.90625 349.59064Q316.54688 349.59064 315.73438 348.7469Q314.9375 347.90314 314.9375 346.3875Q314.9375 344.825 315.75 343.96564Q316.5625 343.09064 317.84375 343.09064Q319.09375 343.09064 319.875 343.9344Q320.67188 344.77814 320.67188 346.325Q320.67188 346.41876 320.67188 346.60626L316.03125 346.60626Q316.09375 347.6375 316.60938 348.1844Q317.125 348.71564 317.90625 348.71564Q318.48438 348.71564 318.89062 348.41876Q319.3125 348.10626 319.54688 347.45ZM316.09375 345.7469L319.5625 345.7469Q319.5 344.95 319.17188 344.5594Q318.65625 343.95 317.85938 343.95Q317.125 343.95 316.625 344.4344Q316.14062 344.91876 316.09375 345.7469ZM329.45312 346.075L329.45312 345.075L333.07812 345.0594L333.07812 348.2469Q332.25 348.91876 331.35938 349.2625Q330.46875 349.59064 329.53125 349.59064Q328.26562 349.59064 327.21875 349.0594Q326.1875 348.5125 325.65625 347.4969Q325.14062 346.46564 325.14062 345.2Q325.14062 343.9344 325.65625 342.85626Q326.1875 341.7625 327.17188 341.2469Q328.15625 340.71564 329.4375 340.71564Q330.375 340.71564 331.125 341.0125Q331.875 341.3094 332.29688 341.85626Q332.73438 342.3875 332.95312 343.2625L331.9375 343.54376Q331.73438 342.8875 331.4375 342.5125Q331.15625 342.1375 330.625 341.91876Q330.09375 341.6844 329.45312 341.6844Q328.67188 341.6844 328.09375 341.91876Q327.53125 342.15314 327.17188 342.54376Q326.82812 342.9344 326.64062 343.40314Q326.3125 344.2 326.3125 345.1219Q326.3125 346.27814 326.70312 347.0594Q327.10938 347.825 327.85938 348.2Q328.60938 348.575 329.46875 348.575Q330.20312 348.575 330.90625 348.29376Q331.60938 347.9969 331.96875 347.6844L331.96875 346.075L329.45312 346.075ZM334.28125 349.45L334.28125 343.23126L335.23438 343.23126L335.23438 344.16876Q335.59375 343.5125 335.89062 343.3094Q336.20312 343.09064 336.57812 343.09064Q337.10938 343.09064 337.65625 343.41876L337.29688 344.40314Q336.90625 344.16876 336.53125 344.16876Q336.17188 344.16876 335.89062 344.3875Q335.625 344.59064 335.51562 344.96564Q335.32812 345.52814 335.32812 346.1844L335.32812 349.45L334.28125 349.45ZM337.90625 346.34064Q337.90625 344.60626 338.85938 343.77814Q339.65625 343.09064 340.8125 343.09064Q342.09375 343.09064 342.90625 343.9344Q343.73438 344.7625 343.73438 346.2469Q343.73438 347.45 343.375 348.1375Q343.01562 348.825 342.3125 349.21564Q341.625 349.59064 340.8125 349.59064Q339.51562 349.59064 338.70312 348.7625Q337.90625 347.91876 337.90625 346.34064ZM338.98438 346.34064Q338.98438 347.52814 339.5 348.1219Q340.03125 348.71564 340.8125 348.71564Q341.60938 348.71564 342.125 348.1219Q342.64062 347.52814 342.64062 346.3094Q342.64062 345.15314 342.10938 344.5594Q341.59375 343.96564 340.8125 343.96564Q340.03125 343.96564 339.5 344.5594Q338.98438 345.1375 338.98438 346.34064ZM349.375 349.45L349.375 348.52814Q348.64062 349.59064 347.39062 349.59064Q346.84375 349.59064 346.35938 349.3875Q345.89062 349.16876 345.65625 348.85626Q345.42188 348.52814 345.32812 348.0594Q345.26562 347.7625 345.26562 347.075L345.26562 343.23126L346.32812 343.23126L346.32812 346.6844Q346.32812 347.4969 346.39062 347.79376Q346.48438 348.2 346.79688 348.45Q347.125 348.6844 347.60938 348.6844Q348.07812 348.6844 348.48438 348.45Q348.90625 348.2 349.07812 347.77814Q349.26562 347.35626 349.26562 346.5594L349.26562 343.23126L350.3125 343.23126L350.3125 349.45L349.375 349.45ZM352.29688 351.84064L352.29688 343.23126L353.25 343.23126L353.25 344.02814Q353.59375 343.5594 354.01562 343.325Q354.45312 343.09064 355.0625 343.09064Q355.85938 343.09064 356.46875 343.4969Q357.07812 343.90314 357.375 344.65314Q357.6875 345.40314 357.6875 346.29376Q357.6875 347.2469 357.34375 348.0125Q357.01562 348.77814 356.35938 349.1844Q355.70312 349.59064 354.98438 349.59064Q354.45312 349.59064 354.03125 349.3719Q353.60938 349.1375 353.34375 348.8094L353.34375 351.84064L352.29688 351.84064ZM353.25 346.3719Q353.25 347.575 353.73438 348.15314Q354.21875 348.71564 354.90625 348.71564Q355.60938 348.71564 356.10938 348.1219Q356.60938 347.52814 356.60938 346.27814Q356.60938 345.09064 356.125 344.5125Q355.64062 343.91876 354.95312 343.91876Q354.28125 343.91876 353.76562 344.54376Q353.25 345.16876 353.25 346.3719Z" fill-rule="nonzero"/><path fill="#000000" d="M29.550013 267.5625L20.956263 267.5625L20.956263 263.75Q20.956263 262.59375 21.190638 262.0Q21.425013 261.40625 22.018763 261.04688Q22.596888 260.6875 23.300013 260.6875Q24.221888 260.6875 24.846888 261.28125Q25.471888 261.875 25.643763 263.10938Q25.862513 262.65625 26.065638 262.42188Q26.518763 261.92188 27.206263 261.48438L29.550013 259.98438L29.550013 261.42188L27.768763 262.54688Q26.987513 263.04688 26.581263 263.375Q26.175013 263.6875 26.018763 263.95312Q25.846888 264.20312 25.768763 264.46875Q25.737513 264.65625 25.737513 265.09375L25.737513 266.42188L29.550013 266.42188L29.550013 267.5625ZM24.753138 266.42188L24.753138 263.96875Q24.753138 263.20312 24.596888 262.76562Q24.425013 262.3125 24.081263 262.09375Q23.721888 261.85938 23.300013 261.85938Q22.690638 261.85938 22.300013 262.3125Q21.909388 262.75 21.909388 263.70312L21.909388 266.42188L24.753138 266.42188ZM27.550013 254.45312L27.675013 253.35938Q28.628138 253.60938 29.159388 254.3125Q29.690638 255.01562 29.690638 256.09375Q29.690638 257.45312 28.846888 258.26562Q28.003138 259.0625 26.487513 259.0625Q24.925013 259.0625 24.065638 258.25Q23.190638 257.4375 23.190638 256.15625Q23.190638 254.90625 24.034388 254.125Q24.878138 253.32812 26.425013 253.32812Q26.518763 253.32812 26.706263 253.32812L26.706263 257.96875Q27.737513 257.90625 28.284388 257.39062Q28.815638 256.875 28.815638 256.09375Q28.815638 255.51562 28.518763 255.10938Q28.206263 254.6875 27.550013 254.45312ZM25.846888 257.90625L25.846888 254.4375Q25.050013 254.5 24.659388 254.82812Q24.050013 255.34375 24.050013 256.14062Q24.050013 256.875 24.534388 257.375Q25.018763 257.85938 25.846888 257.90625ZM31.940638 251.70312L23.331263 251.70312L23.331263 250.75L24.128138 250.75Q23.659388 250.40625 23.425013 249.98438Q23.190638 249.54688 23.190638 248.9375Q23.190638 248.14062 23.596888 247.53125Q24.003138 246.92188 24.753138 246.625Q25.503138 246.3125 26.393763 246.3125Q27.346888 246.3125 28.112513 246.65625Q28.878138 246.98438 29.284388 247.64062Q29.690638 248.29688 29.690638 249.01562Q29.690638 249.54688 29.471888 249.96875Q29.237513 250.39062 28.909388 250.65625L31.940638 250.65625L31.940638 251.70312ZM26.471888 250.75Q27.675013 250.75 28.253138 250.26562Q28.815638 249.78125 28.815638 249.09375Q28.815638 248.39062 28.221888 247.89062Q27.628138 247.39062 26.378138 247.39062Q25.190638 247.39062 24.612513 247.875Q24.018763 248.35938 24.018763 249.04688Q24.018763 249.71875 24.643763 250.23438Q25.268763 250.75 26.471888 250.75ZM26.440638 245.09375Q24.706263 245.09375 23.878138 244.14062Q23.190638 243.34375 23.190638 242.1875Q23.190638 240.90625 24.034388 240.09375Q24.862513 239.26562 26.346888 239.26562Q27.550013 239.26562 28.237513 239.625Q28.925013 239.98438 29.315638 240.6875Q29.690638 241.375 29.690638 242.1875Q29.690638 243.48438 28.862513 244.29688Q28.018763 245.09375 26.440638 245.09375ZM26.440638 244.01562Q27.628138 244.01562 28.221888 243.5Q28.815638 242.96875 28.815638 242.1875Q28.815638 241.39062 28.221888 240.875Q27.628138 240.35938 26.409388 240.35938Q25.253138 240.35938 24.659388 240.89062Q24.065638 241.40625 24.065638 242.1875Q24.065638 242.96875 24.659388 243.5Q25.237513 244.01562 26.440638 244.01562ZM29.550013 237.71875L23.331263 237.71875L23.331263 236.76562L24.268763 236.76562Q23.612513 236.40625 23.409388 236.10938Q23.190638 235.79688 23.190638 235.42188Q23.190638 234.89062 23.518763 234.34375L24.503138 234.70312Q24.268763 235.09375 24.268763 235.46875Q24.268763 235.82812 24.487513 236.10938Q24.690638 236.375 25.065638 236.48438Q25.628138 236.67188 26.284388 236.67188L29.550013 236.67188L29.550013 237.71875ZM28.612513 231.40625L29.534388 231.25Q29.628138 231.70312 29.628138 232.04688Q29.628138 232.625 29.456263 232.9375Q29.268763 233.25 28.971888 233.39062Q28.675013 233.51562 27.721888 233.51562L24.143763 233.51562L24.143763 234.28125L23.331263 234.28125L23.331263 233.51562L21.784388 233.51562L21.159388 232.46875L23.331263 232.46875L23.331263 231.40625L24.143763 231.40625L24.143763 232.46875L27.784388 232.46875Q28.237513 232.46875 28.362513 232.42188Q28.487513 232.35938 28.565638 232.23438Q28.643763 232.10938 28.643763 231.875Q28.643763 231.6875 28.612513 231.40625ZM27.550013 226.45312L27.675013 225.35938Q28.628138 225.60938 29.159388 226.3125Q29.690638 227.01562 29.690638 228.09375Q29.690638 229.45312 28.846888 230.26562Q28.003138 231.0625 26.487513 231.0625Q24.925013 231.0625 24.065638 230.25Q23.190638 229.4375 23.190638 228.15625Q23.190638 226.90625 24.034388 226.125Q24.878138 225.32812 26.425013 225.32812Q26.518763 225.32812 26.706263 225.32812L26.706263 229.96875Q27.737513 229.90625 28.284388 229.39062Q28.815638 228.875 28.815638 228.09375Q28.815638 227.51562 28.518763 227.10938Q28.206263 226.6875 27.550013 226.45312ZM25.846888 229.90625L25.846888 226.4375Q25.050013 226.5 24.659388 226.82812Q24.050013 227.34375 24.050013 228.14062Q24.050013 228.875 24.534388 229.375Q25.018763 229.85938 25.846888 229.90625ZM29.550013 219.67188L28.768763 219.67188Q29.690638 220.26562 29.690638 221.40625Q29.690638 222.15625 29.284388 222.78125Q28.862513 223.40625 28.128138 223.75Q27.393763 224.09375 26.440638 224.09375Q25.518763 224.09375 24.753138 223.78125Q23.987513 223.46875 23.596888 222.84375Q23.190638 222.21875 23.190638 221.45312Q23.190638 220.89062 23.425013 220.45312Q23.659388 220.01562 24.034388 219.73438L20.956263 219.73438L20.956263 218.6875L29.550013 218.6875L29.550013 219.67188ZM26.440638 223.0Q27.643763 223.0 28.237513 222.5Q28.815638 222.0 28.815638 221.3125Q28.815638 220.625 28.253138 220.14062Q27.690638 219.65625 26.534388 219.65625Q25.253138 219.65625 24.659388 220.15625Q24.065638 220.64062 24.065638 221.35938Q24.065638 222.0625 24.643763 222.53125Q25.206263 223.0 26.440638 223.0ZM29.550013 213.57812L20.956263 213.57812L20.956263 210.32812Q20.956263 209.48438 21.034388 209.03125Q21.143763 208.39062 21.440638 207.96875Q21.737513 207.53125 22.268763 207.28125Q22.800013 207.01562 23.440638 207.01562Q24.534388 207.01562 25.300013 207.71875Q26.050013 208.40625 26.050013 210.23438L26.050013 212.4375L29.550013 212.4375L29.550013 213.57812ZM25.050013 212.4375L25.050013 210.21875Q25.050013 209.10938 24.643763 208.65625Q24.221888 208.1875 23.471888 208.1875Q22.940638 208.1875 22.565638 208.46875Q22.175013 208.73438 22.050013 209.17188Q21.971888 209.46875 21.971888 210.23438L21.971888 212.4375L25.050013 212.4375ZM29.550013 205.73438L20.956263 205.73438L20.956263 204.67188L29.550013 204.67188L29.550013 205.73438ZM28.784388 198.64062Q29.284388 199.23438 29.487513 199.78125Q29.690638 200.3125 29.690638 200.9375Q29.690638 201.96875 29.190638 202.51562Q28.690638 203.0625 27.909388 203.0625Q27.456263 203.0625 27.081263 202.85938Q26.690638 202.65625 26.471888 202.3125Q26.237513 201.96875 26.128138 201.54688Q26.034388 201.25 25.956263 200.60938Q25.815638 199.34375 25.596888 198.73438Q25.378138 198.73438 25.331263 198.73438Q24.675013 198.73438 24.409388 199.03125Q24.065638 199.4375 24.065638 200.23438Q24.065638 200.96875 24.331263 201.32812Q24.581263 201.6875 25.237513 201.85938L25.096888 202.89062Q24.440638 202.75 24.034388 202.42188Q23.628138 202.09375 23.409388 201.48438Q23.190638 200.875 23.190638 200.07812Q23.190638 199.28125 23.378138 198.78125Q23.565638 198.28125 23.846888 198.04688Q24.128138 197.8125 24.565638 197.71875Q24.831263 197.67188 25.534388 197.67188L26.940638 197.67188Q28.409388 197.67188 28.800013 197.60938Q29.190638 197.53125 29.550013 197.32812L29.550013 198.4375Q29.221888 198.59375 28.784388 198.64062ZM26.425013 198.73438Q26.659388 199.3125 26.831263 200.45312Q26.925013 201.10938 27.050013 201.375Q27.159388 201.64062 27.378138 201.79688Q27.596888 201.9375 27.878138 201.9375Q28.300013 201.9375 28.581263 201.625Q28.862513 201.29688 28.862513 200.6875Q28.862513 200.07812 28.596888 199.60938Q28.331263 199.125 27.862513 198.90625Q27.503138 198.73438 26.815638 198.73438L26.425013 198.73438ZM29.550013 195.70312L23.331263 195.70312L23.331263 194.76562L24.206263 194.76562Q23.190638 194.07812 23.190638 192.78125Q23.190638 192.21875 23.393763 191.75Q23.596888 191.26562 23.925013 191.03125Q24.253138 190.79688 24.690638 190.70312Q24.987513 190.65625 25.721888 190.65625L29.550013 190.65625L29.550013 191.70312L25.768763 191.70312Q25.112513 191.70312 24.800013 191.82812Q24.487513 191.95312 24.300013 192.26562Q24.096888 192.57812 24.096888 193.0Q24.096888 193.67188 24.534388 194.17188Q24.956263 194.65625 26.143763 194.65625L29.550013 194.65625L29.550013 195.70312ZM28.612513 186.40625L29.534388 186.25Q29.628138 186.70312 29.628138 187.04688Q29.628138 187.625 29.456263 187.9375Q29.268763 188.25 28.971888 188.39062Q28.675013 188.51562 27.721888 188.51562L24.143763 188.51562L24.143763 189.28125L23.331263 189.28125L23.331263 188.51562L21.784388 188.51562L21.159388 187.46875L23.331263 187.46875L23.331263 186.40625L24.143763 186.40625L24.143763 187.46875L27.784388 187.46875Q28.237513 187.46875 28.362513 187.42188Q28.487513 187.35938 28.565638 187.23438Q28.643763 187.10938 28.643763 186.875Q28.643763 186.6875 28.612513 186.40625ZM27.690638 186.125L27.534388 185.09375Q28.159388 185.0 28.487513 184.60938Q28.815638 184.20312 28.815638 183.46875Q28.815638 182.75 28.534388 182.40625Q28.237513 182.04688 27.831263 182.04688Q27.471888 182.04688 27.268763 182.35938Q27.128138 182.57812 26.909388 183.4375Q26.612513 184.59375 26.409388 185.04688Q26.190638 185.48438 25.815638 185.71875Q25.440638 185.95312 24.971888 185.95312Q24.565638 185.95312 24.206263 185.76562Q23.846888 185.57812 23.612513 185.25Q23.440638 185.0 23.315638 184.57812Q23.190638 184.15625 23.190638 183.65625Q23.190638 182.9375 23.409388 182.39062Q23.612513 181.82812 23.971888 181.5625Q24.331263 181.29688 24.925013 181.20312L25.065638 182.23438Q24.596888 182.29688 24.331263 182.64062Q24.050013 182.96875 24.050013 183.59375Q24.050013 184.3125 24.300013 184.625Q24.534388 184.9375 24.862513 184.9375Q25.065638 184.9375 25.221888 184.8125Q25.393763 184.67188 25.503138 184.40625Q25.565638 184.25 25.768763 183.46875Q26.081263 182.34375 26.268763 181.90625Q26.456263 181.46875 26.815638 181.21875Q27.175013 180.96875 27.721888 180.96875Q28.253138 180.96875 28.721888 181.28125Q29.175013 181.57812 29.440638 182.15625Q29.690638 182.73438 29.690638 183.46875Q29.690638 184.6875 29.190638 185.32812Q28.675013 185.95312 27.690638 186.125ZM29.550013 175.57812L20.956263 175.57812L20.956263 172.60938Q20.956263 171.60938 21.081263 171.07812Q21.253138 170.34375 21.690638 169.82812Q22.268763 169.14062 23.175013 168.8125Q24.065638 168.46875 25.206263 168.46875Q26.190638 168.46875 26.940638 168.70312Q27.690638 168.92188 28.190638 169.28125Q28.690638 169.64062 28.971888 170.07812Q29.253138 170.5 29.409388 171.09375Q29.550013 171.6875 29.550013 172.46875L29.550013 175.57812ZM28.534388 174.4375L28.534388 172.60938Q28.534388 171.75 28.378138 171.26562Q28.221888 170.78125 27.925013 170.5Q27.534388 170.09375 26.846888 169.875Q26.159388 169.64062 25.190638 169.64062Q23.846888 169.64062 23.128138 170.09375Q22.393763 170.53125 22.143763 171.15625Q21.971888 171.625 21.971888 172.625L21.971888 174.4375L28.534388 174.4375ZM22.175013 166.70312L20.956263 166.70312L20.956263 165.64062L22.175013 165.64062L22.175013 166.70312ZM29.550013 166.70312L23.331263 166.70312L23.331263 165.64062L29.550013 165.64062L29.550013 166.70312ZM27.550013 159.45312L27.675013 158.35938Q28.628138 158.60938 29.159388 159.3125Q29.690638 160.01562 29.690638 161.09375Q29.690638 162.45312 28.846888 163.26562Q28.003138 164.0625 26.487513 164.0625Q24.925013 164.0625 24.065638 163.25Q23.190638 162.4375 23.190638 161.15625Q23.190638 159.90625 24.034388 159.125Q24.878138 158.32812 26.425013 158.32812Q26.518763 158.32812 26.706263 158.32812L26.706263 162.96875Q27.737513 162.90625 28.284388 162.39062Q28.815638 161.875 28.815638 161.09375Q28.815638 160.51562 28.518763 160.10938Q28.206263 159.6875 27.550013 159.45312ZM25.846888 162.90625L25.846888 159.4375Q25.050013 159.5 24.659388 159.82812Q24.050013 160.34375 24.050013 161.14062Q24.050013 161.875 24.534388 162.375Q25.018763 162.85938 25.846888 162.90625ZM26.440638 154.09375Q24.706263 154.09375 23.878138 153.14062Q23.190638 152.34375 23.190638 151.1875Q23.190638 149.90625 24.034388 149.09375Q24.862513 148.26562 26.346888 148.26562Q27.550013 148.26562 28.237513 148.625Q28.925013 148.98438 29.315638 149.6875Q29.690638 150.375 29.690638 151.1875Q29.690638 152.48438 28.862513 153.29688Q28.018763 154.09375 26.440638 154.09375ZM26.440638 153.01562Q27.628138 153.01562 28.221888 152.5Q28.815638 151.96875 28.815638 151.1875Q28.815638 150.39062 28.221888 149.875Q27.628138 149.35938 26.409388 149.35938Q25.253138 149.35938 24.659388 149.89062Q24.065638 150.40625 24.065638 151.1875Q24.065638 151.96875 24.659388 152.5Q25.237513 153.01562 26.440638 153.01562ZM29.550013 146.45312L24.143763 146.45312L24.143763 147.39062L23.331263 147.39062L23.331263 146.45312L22.659388 146.45312Q22.034388 146.45312 21.737513 146.34375Q21.315638 146.1875 21.065638 145.8125Q20.815638 145.42188 20.815638 144.73438Q20.815638 144.28125 20.925013 143.75L21.831263 143.90625Q21.784388 144.23438 21.784388 144.53125Q21.784388 145.01562 21.987513 145.21875Q22.190638 145.40625 22.753138 145.40625L23.331263 145.40625L23.331263 144.1875L24.143763 144.1875L24.143763 145.40625L29.550013 145.40625L29.550013 146.45312ZM29.550013 143.45312L24.143763 143.45312L24.143763 144.39062L23.331263 144.39062L23.331263 143.45312L22.659388 143.45312Q22.034388 143.45312 21.737513 143.34375Q21.315638 143.1875 21.065638 142.8125Q20.815638 142.42188 20.815638 141.73438Q20.815638 141.28125 20.925013 140.75L21.831263 140.90625Q21.784388 141.23438 21.784388 141.53125Q21.784388 142.01562 21.987513 142.21875Q22.190638 142.40625 22.753138 142.40625L23.331263 142.40625L23.331263 141.1875L24.143763 141.1875L24.143763 142.40625L29.550013 142.40625L29.550013 143.45312ZM28.784388 133.64062Q29.284388 134.23438 29.487513 134.78125Q29.690638 135.3125 29.690638 135.9375Q29.690638 136.96875 29.190638 137.51562Q28.690638 138.0625 27.909388 138.0625Q27.456263 138.0625 27.081263 137.85938Q26.690638 137.65625 26.471888 137.3125Q26.237513 136.96875 26.128138 136.54688Q26.034388 136.25 25.956263 135.60938Q25.815638 134.34375 25.596888 133.73438Q25.378138 133.73438 25.331263 133.73438Q24.675013 133.73438 24.409388 134.03125Q24.065638 134.4375 24.065638 135.23438Q24.065638 135.96875 24.331263 136.32812Q24.581263 136.6875 25.237513 136.85938L25.096888 137.89062Q24.440638 137.75 24.034388 137.42188Q23.628138 137.09375 23.409388 136.48438Q23.190638 135.875 23.190638 135.07812Q23.190638 134.28125 23.378138 133.78125Q23.565638 133.28125 23.846888 133.04688Q24.128138 132.8125 24.565638 132.71875Q24.831263 132.67188 25.534388 132.67188L26.940638 132.67188Q28.409388 132.67188 28.800013 132.60938Q29.190638 132.53125 29.550013 132.32812L29.550013 133.4375Q29.221888 133.59375 28.784388 133.64062ZM26.425013 133.73438Q26.659388 134.3125 26.831263 135.45312Q26.925013 136.10938 27.050013 136.375Q27.159388 136.64062 27.378138 136.79688Q27.596888 136.9375 27.878138 136.9375Q28.300013 136.9375 28.581263 136.625Q28.862513 136.29688 28.862513 135.6875Q28.862513 135.07812 28.596888 134.60938Q28.331263 134.125 27.862513 133.90625Q27.503138 133.73438 26.815638 133.73438L26.425013 133.73438ZM27.690638 131.125L27.534388 130.09375Q28.159388 130.0 28.487513 129.60938Q28.815638 129.20312 28.815638 128.46875Q28.815638 127.75 28.534388 127.40625Q28.237513 127.046875 27.831263 127.046875Q27.471888 127.046875 27.268763 127.359375Q27.128138 127.578125 26.909388 128.4375Q26.612513 129.59375 26.409388 130.04688Q26.190638 130.48438 25.815638 130.71875Q25.440638 130.95312 24.971888 130.95312Q24.565638 130.95312 24.206263 130.76562Q23.846888 130.57812 23.612513 130.25Q23.440638 130.0 23.315638 129.57812Q23.190638 129.15625 23.190638 128.65625Q23.190638 127.9375 23.409388 127.390625Q23.612513 126.828125 23.971888 126.5625Q24.331263 126.296875 24.925013 126.203125L25.065638 127.234375Q24.596888 127.296875 24.331263 127.640625Q24.050013 127.96875 24.050013 128.59375Q24.050013 129.3125 24.300013 129.625Q24.534388 129.9375 24.862513 129.9375Q25.065638 129.9375 25.221888 129.8125Q25.393763 129.67188 25.503138 129.40625Q25.565638 129.25 25.768763 128.46875Q26.081263 127.34375 26.268763 126.90625Q26.456263 126.46875 26.815638 126.21875Q27.175013 125.96875 27.721888 125.96875Q28.253138 125.96875 28.721888 126.28125Q29.175013 126.578125 29.440638 127.15625Q29.690638 127.734375 29.690638 128.46875Q29.690638 129.6875 29.190638 130.32812Q28.675013 130.95312 27.690638 131.125ZM29.550013 120.578125L20.956263 120.578125L20.956263 117.609375Q20.956263 116.609375 21.081263 116.078125Q21.253138 115.34375 21.690638 114.828125Q22.268763 114.140625 23.175013 113.8125Q24.065638 113.46875 25.206263 113.46875Q26.190638 113.46875 26.940638 113.703125Q27.690638 113.921875 28.190638 114.28125Q28.690638 114.640625 28.971888 115.078125Q29.253138 115.5 29.409388 116.09375Q29.550013 116.6875 29.550013 117.46875L29.550013 120.578125ZM28.534388 119.4375L28.534388 117.609375Q28.534388 116.75 28.378138 116.265625Q28.221888 115.78125 27.925013 115.5Q27.534388 115.09375 26.846888 114.875Q26.159388 114.640625 25.190638 114.640625Q23.846888 114.640625 23.128138 115.09375Q22.393763 115.53125 22.143763 116.15625Q21.971888 116.625 21.971888 117.625L21.971888 119.4375L28.534388 119.4375ZM27.550013 107.453125L27.675013 106.359375Q28.628138 106.609375 29.159388 107.3125Q29.690638 108.015625 29.690638 109.09375Q29.690638 110.453125 28.846888 111.265625Q28.003138 112.0625 26.487513 112.0625Q24.925013 112.0625 24.065638 111.25Q23.190638 110.4375 23.190638 109.15625Q23.190638 107.90625 24.034388 107.125Q24.878138 106.328125 26.425013 106.328125Q26.518763 106.328125 26.706263 106.328125L26.706263 110.96875Q27.737513 110.90625 28.284388 110.390625Q28.815638 109.875 28.815638 109.09375Q28.815638 108.515625 28.518763 108.109375Q28.206263 107.6875 27.550013 107.453125ZM25.846888 110.90625L25.846888 107.4375Q25.050013 107.5 24.659388 107.828125Q24.050013 108.34375 24.050013 109.140625Q24.050013 109.875 24.534388 110.375Q25.018763 110.859375 25.846888 110.90625ZM28.612513 102.40625L29.534388 102.25Q29.628138 102.703125 29.628138 103.046875Q29.628138 103.625 29.456263 103.9375Q29.268763 104.25 28.971888 104.390625Q28.675013 104.515625 27.721888 104.515625L24.143763 104.515625L24.143763 105.28125L23.331263 105.28125L23.331263 104.515625L21.784388 104.515625L21.159388 103.46875L23.331263 103.46875L23.331263 102.40625L24.143763 102.40625L24.143763 103.46875L27.784388 103.46875Q28.237513 103.46875 28.362513 103.421875Q28.487513 103.359375 28.565638 103.234375Q28.643763 103.109375 28.643763 102.875Q28.643763 102.6875 28.612513 102.40625ZM27.550013 97.453125L27.675013 96.359375Q28.628138 96.609375 29.159388 97.3125Q29.690638 98.015625 29.690638 99.09375Q29.690638 100.453125 28.846888 101.265625Q28.003138 102.0625 26.487513 102.0625Q24.925013 102.0625 24.065638 101.25Q23.190638 100.4375 23.190638 99.15625Q23.190638 97.90625 24.034388 97.125Q24.878138 96.328125 26.425013 96.328125Q26.518763 96.328125 26.706263 96.328125L26.706263 100.96875Q27.737513 100.90625 28.284388 100.390625Q28.815638 99.875 28.815638 99.09375Q28.815638 98.515625 28.518763 98.109375Q28.206263 97.6875 27.550013 97.453125ZM25.846888 100.90625L25.846888 97.4375Q25.050013 97.5 24.659388 97.828125Q24.050013 98.34375 24.050013 99.140625Q24.050013 99.875 24.534388 100.375Q25.018763 100.859375 25.846888 100.90625ZM29.550013 94.71875L23.331263 94.71875L23.331263 93.765625L24.268763 93.765625Q23.612513 93.40625 23.409388 93.109375Q23.190638 92.796875 23.190638 92.421875Q23.190638 91.890625 23.518763 91.34375L24.503138 91.703125Q24.268763 92.09375 24.268763 92.46875Q24.268763 92.828125 24.487513 93.109375Q24.690638 93.375 25.065638 93.484375Q25.628138 93.671875 26.284388 93.671875L29.550013 93.671875L29.550013 94.71875ZM29.550013 90.71875L23.331263 90.71875L23.331263 89.765625L24.268763 89.765625Q23.612513 89.40625 23.409388 89.109375Q23.190638 88.796875 23.190638 88.421875Q23.190638 87.890625 23.518763 87.34375L24.503138 87.703125Q24.268763 88.09375 24.268763 88.46875Q24.268763 88.828125 24.487513 89.109375Q24.690638 89.375 25.065638 89.484375Q25.628138 89.671875 26.284388 89.671875L29.550013 89.671875L29.550013 90.71875ZM27.550013 82.453125L27.675013 81.359375Q28.628138 81.609375 29.159388 82.3125Q29.690638 83.015625 29.690638 84.09375Q29.690638 85.453125 28.846888 86.265625Q28.003138 87.0625 26.487513 87.0625Q24.925013 87.0625 24.065638 86.25Q23.190638 85.4375 23.190638 84.15625Q23.190638 82.90625 24.034388 82.125Q24.878138 81.328125 26.425013 81.328125Q26.518763 81.328125 26.706263 81.328125L26.706263 85.96875Q27.737513 85.90625 28.284388 85.390625Q28.815638 84.875 28.815638 84.09375Q28.815638 83.515625 28.518763 83.109375Q28.206263 82.6875 27.550013 82.453125ZM25.846888 85.90625L25.846888 82.4375Q25.050013 82.5 24.659388 82.828125Q24.050013 83.34375 24.050013 84.140625Q24.050013 84.875 24.534388 85.375Q25.018763 85.859375 25.846888 85.90625ZM29.550013 79.703125L23.331263 79.703125L23.331263 78.765625L24.206263 78.765625Q23.190638 78.078125 23.190638 76.78125Q23.190638 76.21875 23.393763 75.75Q23.596888 75.265625 23.925013 75.03125Q24.253138 74.796875 24.690638 74.703125Q24.987513 74.65625 25.721888 74.65625L29.550013 74.65625L29.550013 75.703125L25.768763 75.703125Q25.112513 75.703125 24.800013 75.828125Q24.487513 75.953125 24.300013 76.265625Q24.096888 76.578125 24.096888 77.0Q24.096888 77.671875 24.534388 78.171875Q24.956263 78.65625 26.143763 78.65625L29.550013 78.65625L29.550013 79.703125ZM28.612513 70.40625L29.534388 70.25Q29.628138 70.703125 29.628138 71.046875Q29.628138 71.625 29.456263 71.9375Q29.268763 72.25 28.971888 72.390625Q28.675013 72.515625 27.721888 72.515625L24.143763 72.515625L24.143763 73.28125L23.331263 73.28125L23.331263 72.515625L21.784388 72.515625L21.159388 71.46875L23.331263 71.46875L23.331263 70.40625L24.143763 70.40625L24.143763 71.46875L27.784388 71.46875Q28.237513 71.46875 28.362513 71.421875Q28.487513 71.359375 28.565638 71.234375Q28.643763 71.109375 28.643763 70.875Q28.643763 70.6875 28.612513 70.40625Z" fill-rule="nonzero"/><path fill="#000000" d="M65.05 300.21564Q65.05 298.6844 65.3625 297.7625Q65.675 296.825 66.28438 296.325Q66.90938 295.825 67.84688 295.825Q68.53438 295.825 69.05 296.10626Q69.58125 296.3875 69.925 296.91876Q70.26875 297.4344 70.45625 298.1844Q70.64375 298.9344 70.64375 300.21564Q70.64375 301.73126 70.33125 302.65314Q70.03438 303.575 69.40938 304.09064Q68.8 304.59064 67.84688 304.59064Q66.6125 304.59064 65.89375 303.7Q65.05 302.6375 65.05 300.21564ZM66.12813 300.21564Q66.12813 302.325 66.62813 303.02814Q67.12813 303.73126 67.84688 303.73126Q68.58125 303.73126 69.06563 303.02814Q69.56563 302.325 69.56563 300.21564Q69.56563 298.09064 69.06563 297.40314Q68.58125 296.7 67.83125 296.7Q67.1125 296.7 66.675 297.3094Q66.12813 298.09064 66.12813 300.21564Z" fill-rule="nonzero"/><path fill="#000000" d="M65.05 210.56667L66.15938 210.47292Q66.28438 211.28542 66.72188 211.69167Q67.175 212.09792 67.81563 212.09792Q68.56563 212.09792 69.09688 211.51979Q69.62813 210.94167 69.62813 210.00417Q69.62813 209.09792 69.1125 208.58229Q68.6125 208.05104 67.78438 208.05104Q67.28438 208.05104 66.8625 208.28542Q66.45625 208.51979 66.22188 208.87917L65.2375 208.75417L66.06563 204.34792L70.34688 204.34792L70.34688 205.34792L66.90938 205.34792L66.45625 207.66042Q67.22188 207.11354 68.06563 207.11354Q69.19063 207.11354 69.95625 207.89479Q70.7375 208.67604 70.7375 209.91042Q70.7375 211.06667 70.06563 211.92604Q69.2375 212.95729 67.81563 212.95729Q66.64375 212.95729 65.89375 212.30104Q65.15938 211.64479 65.05 210.56667Z" fill-rule="nonzero"/><path fill="#000000" d="M62.01875 121.183334L60.971874 121.183334L60.971874 114.464584Q60.58125 114.82396 59.95625 115.19896Q59.346874 115.558334 58.8625 115.73021L58.8625 114.714584Q59.7375 114.29271 60.39375 113.714584Q61.065624 113.120834 61.346874 112.558334L62.01875 112.558334L62.01875 121.183334ZM65.05 116.94896Q65.05 115.41771 65.3625 114.495834Q65.675 113.558334 66.28438 113.058334Q66.90938 112.558334 67.84688 112.558334Q68.53438 112.558334 69.05 112.839584Q69.58125 113.120834 69.925 113.652084Q70.26875 114.16771 70.45625 114.91771Q70.64375 115.66771 70.64375 116.94896Q70.64375 118.464584 70.33125 119.38646Q70.03438 120.308334 69.40938 120.82396Q68.8 121.32396 67.84688 121.32396Q66.6125 121.32396 65.89375 120.433334Q65.05 119.370834 65.05 116.94896ZM66.12813 116.94896Q66.12813 119.058334 66.62813 119.76146Q67.12813 120.464584 67.84688 120.464584Q68.58125 120.464584 69.06563 119.76146Q69.56563 119.058334 69.56563 116.94896Q69.56563 114.82396 69.06563 114.13646Q68.58125 113.433334 67.83125 113.433334Q67.1125 113.433334 66.675 114.04271Q66.12813 114.82396 66.12813 116.94896Z" fill-rule="nonzero"/><path fill="#000000" d="M62.01875 29.55L60.971874 29.55L60.971874 22.83125Q60.58125 23.190624 59.95625 23.565624Q59.346874 23.925 58.8625 24.096874L58.8625 23.08125Q59.7375 22.659374 60.39375 22.08125Q61.065624 21.4875 61.346874 20.925L62.01875 20.925L62.01875 29.55ZM65.05 27.3L66.15938 27.20625Q66.28438 28.01875 66.72188 28.425Q67.175 28.83125 67.81563 28.83125Q68.56563 28.83125 69.09688 28.253124Q69.62813 27.675 69.62813 26.7375Q69.62813 25.83125 69.1125 25.315624Q68.6125 24.784374 67.78438 24.784374Q67.28438 24.784374 66.8625 25.01875Q66.45625 25.253124 66.22188 25.6125L65.2375 25.4875L66.06563 21.08125L70.34688 21.08125L70.34688 22.08125L66.90938 22.08125L66.45625 24.39375Q67.22188 23.846874 68.06563 23.846874Q69.19063 23.846874 69.95625 24.628124Q70.7375 25.409374 70.7375 26.64375Q70.7375 27.8 70.06563 28.659374Q69.2375 29.690624 67.81563 29.690624Q66.64375 29.690624 65.89375 29.034374Q65.15938 28.378124 65.05 27.3Z" fill-rule="nonzero"/><path fill="#000000" d="M123.082924 317.45L122.03605 317.45L122.03605 310.73126Q121.645424 311.09064 121.020424 311.46564Q120.41105 311.825 119.926674 311.9969L119.926674 310.98126Q120.801674 310.5594 121.457924 309.98126Q122.1298 309.3875 122.41105 308.825L123.082924 308.825L123.082924 317.45ZM125.989174 314.8719L125.989174 313.8094L129.23917 313.8094L129.23917 314.8719L125.989174 314.8719ZM134.08292 317.45L133.03604 317.45L133.03604 310.73126Q132.64542 311.09064 132.02042 311.46564Q131.41104 311.825 130.92667 311.9969L130.92667 310.98126Q131.80167 310.5594 132.45792 309.98126Q133.12979 309.3875 133.41104 308.825L134.08292 308.825L134.08292 317.45ZM137.27042 315.46564L138.28604 315.3719Q138.41104 316.09064 138.77042 316.41876Q139.14542 316.73126 139.70792 316.73126Q140.19229 316.73126 140.55167 316.5125Q140.92667 316.27814 141.16104 315.91876Q141.39542 315.54376 141.55167 314.91876Q141.70792 314.27814 141.70792 313.6219Q141.70792 313.54376 141.70792 313.40314Q141.39542 313.90314 140.84854 314.23126Q140.30167 314.54376 139.66104 314.54376Q138.58292 314.54376 137.84854 313.77814Q137.11417 312.9969 137.11417 311.73126Q137.11417 310.41876 137.87979 309.6219Q138.66104 308.825 139.81729 308.825Q140.64542 308.825 141.33292 309.27814Q142.03604 309.73126 142.39542 310.575Q142.75479 311.40314 142.75479 312.98126Q142.75479 314.6219 142.39542 315.60626Q142.05167 316.575 141.33292 317.09064Q140.62979 317.59064 139.69229 317.59064Q138.67667 317.59064 138.03604 317.04376Q137.39542 316.48126 137.27042 315.46564ZM141.58292 311.66876Q141.58292 310.7625 141.09854 310.23126Q140.62979 309.7 139.94229 309.7Q139.23917 309.7 138.70792 310.27814Q138.19229 310.84064 138.19229 311.7625Q138.19229 312.575 138.69229 313.09064Q139.19229 313.60626 139.91104 313.60626Q140.64542 313.60626 141.11417 313.09064Q141.58292 312.575 141.58292 311.66876Z" fill-rule="nonzero"/><path fill="#000000" d="M200.51538 316.4344L200.51538 317.45L194.82788 317.45Q194.82788 317.075 194.95288 316.71564Q195.17163 316.1375 195.64038 315.575Q196.12476 315.0125 197.031 314.27814Q198.43726 313.1219 198.92163 312.45Q199.42163 311.77814 199.42163 311.1844Q199.42163 310.5594 198.9685 310.1375Q198.51538 309.7 197.79663 309.7Q197.031 309.7 196.57788 310.15314Q196.12476 310.60626 196.10913 311.41876L195.031 311.3094Q195.14038 310.09064 195.85913 309.46564Q196.5935 308.825 197.82788 308.825Q199.06226 308.825 199.781 309.5125Q200.49976 310.2 200.49976 311.21564Q200.49976 311.73126 200.281 312.23126Q200.07788 312.71564 199.57788 313.27814Q199.0935 313.825 197.9685 314.77814Q197.01538 315.575 196.73413 315.8719Q196.4685 316.15314 196.29663 316.4344L200.51538 316.4344ZM201.9685 313.21564Q201.9685 311.6844 202.281 310.7625Q202.5935 309.825 203.20288 309.325Q203.82788 308.825 204.76538 308.825Q205.45288 308.825 205.9685 309.10626Q206.49976 309.3875 206.8435 309.91876Q207.18726 310.4344 207.37476 311.1844Q207.56226 311.9344 207.56226 313.21564Q207.56226 314.73126 207.24976 315.65314Q206.95288 316.575 206.32788 317.09064Q205.7185 317.59064 204.76538 317.59064Q203.531 317.59064 202.81226 316.7Q201.9685 315.6375 201.9685 313.21564ZM203.04663 313.21564Q203.04663 315.325 203.54663 316.02814Q204.04663 316.73126 204.76538 316.73126Q205.49976 316.73126 205.98413 316.02814Q206.48413 315.325 206.48413 313.21564Q206.48413 311.09064 205.98413 310.40314Q205.49976 309.7 204.74976 309.7Q204.031 309.7 203.5935 310.3094Q203.04663 311.09064 203.04663 313.21564ZM208.8435 314.8719L208.8435 313.8094L212.0935 313.8094L212.0935 314.8719L208.8435 314.8719ZM218.51538 316.4344L218.51538 317.45L212.82788 317.45Q212.82788 317.075 212.95288 316.71564Q213.17163 316.1375 213.64038 315.575Q214.12476 315.0125 215.031 314.27814Q216.43726 313.1219 216.92163 312.45Q217.42163 311.77814 217.42163 311.1844Q217.42163 310.5594 216.9685 310.1375Q216.51538 309.7 215.79663 309.7Q215.031 309.7 214.57788 310.15314Q214.12476 310.60626 214.10913 311.41876L213.031 311.3094Q213.14038 310.09064 213.85913 309.46564Q214.5935 308.825 215.82788 308.825Q217.06226 308.825 217.781 309.5125Q218.49976 310.2 218.49976 311.21564Q218.49976 311.73126 218.281 312.23126Q218.07788 312.71564 217.57788 313.27814Q217.0935 313.825 215.9685 314.77814Q215.01538 315.575 214.73413 315.8719Q214.4685 316.15314 214.29663 316.4344L218.51538 316.4344ZM220.12476 315.46564L221.14038 315.3719Q221.26538 316.09064 221.62476 316.41876Q221.99976 316.73126 222.56226 316.73126Q223.04663 316.73126 223.406 316.5125Q223.781 316.27814 224.01538 315.91876Q224.24976 315.54376 224.406 314.91876Q224.56226 314.27814 224.56226 313.6219Q224.56226 313.54376 224.56226 313.40314Q224.24976 313.90314 223.70288 314.23126Q223.156 314.54376 222.51538 314.54376Q221.43726 314.54376 220.70288 313.77814Q219.9685 312.9969 219.9685 311.73126Q219.9685 310.41876 220.73413 309.6219Q221.51538 308.825 222.67163 308.825Q223.49976 308.825 224.18726 309.27814Q224.89038 309.73126 225.24976 310.575Q225.60913 311.40314 225.60913 312.98126Q225.60913 314.6219 225.24976 315.60626Q224.906 316.575 224.18726 317.09064Q223.48413 317.59064 222.54663 317.59064Q221.531 317.59064 220.89038 317.04376Q220.24976 316.48126 220.12476 315.46564ZM224.43726 311.66876Q224.43726 310.7625 223.95288 310.23126Q223.48413 309.7 222.79663 309.7Q222.0935 309.7 221.56226 310.27814Q221.04663 310.84064 221.04663 311.7625Q221.04663 312.575 221.54663 313.09064Q222.04663 313.60626 222.76538 313.60626Q223.49976 313.60626 223.9685 313.09064Q224.43726 312.575 224.43726 311.66876Z" fill-rule="nonzero"/><path fill="#000000" d="M274.32285 315.1844L275.38535 315.04376Q275.55722 315.9344 275.99472 316.34064Q276.43222 316.73126 277.05722 316.73126Q277.80722 316.73126 278.32285 316.21564Q278.83847 315.7 278.83847 314.9344Q278.83847 314.21564 278.3541 313.7469Q277.88535 313.2625 277.15097 313.2625Q276.8541 313.2625 276.40097 313.3875L276.52597 312.45Q276.63535 312.46564 276.69785 312.46564Q277.36972 312.46564 277.90097 312.1219Q278.44785 311.7625 278.44785 311.02814Q278.44785 310.45 278.05722 310.075Q277.6666 309.6844 277.0416 309.6844Q276.43222 309.6844 276.01035 310.075Q275.6041 310.46564 275.49472 311.23126L274.43222 311.04376Q274.61972 309.9969 275.30722 309.41876Q275.99472 308.825 277.01035 308.825Q277.71347 308.825 278.30722 309.1375Q278.90097 309.4344 279.21347 309.95Q279.52597 310.46564 279.52597 311.0594Q279.52597 311.60626 279.2291 312.075Q278.93222 312.52814 278.3541 312.79376Q279.1041 312.96564 279.52597 313.52814Q279.94785 314.075 279.94785 314.91876Q279.94785 316.04376 279.11972 316.825Q278.30722 317.60626 277.05722 317.60626Q275.93222 317.60626 275.18222 316.9344Q274.43222 316.2469 274.32285 315.1844ZM281.32285 313.21564Q281.32285 311.6844 281.63535 310.7625Q281.94785 309.825 282.55722 309.325Q283.18222 308.825 284.11972 308.825Q284.80722 308.825 285.32285 309.10626Q285.8541 309.3875 286.19785 309.91876Q286.5416 310.4344 286.7291 311.1844Q286.9166 311.9344 286.9166 313.21564Q286.9166 314.73126 286.6041 315.65314Q286.30722 316.575 285.68222 317.09064Q285.07285 317.59064 284.11972 317.59064Q282.88535 317.59064 282.1666 316.7Q281.32285 315.6375 281.32285 313.21564ZM282.40097 313.21564Q282.40097 315.325 282.90097 316.02814Q283.40097 316.73126 284.11972 316.73126Q284.8541 316.73126 285.33847 316.02814Q285.83847 315.325 285.83847 313.21564Q285.83847 311.09064 285.33847 310.40314Q284.8541 309.7 284.1041 309.7Q283.38535 309.7 282.94785 310.3094Q282.40097 311.09064 282.40097 313.21564ZM288.19785 314.8719L288.19785 313.8094L291.44785 313.8094L291.44785 314.8719L288.19785 314.8719ZM292.32285 315.1844L293.38535 315.04376Q293.55722 315.9344 293.99472 316.34064Q294.43222 316.73126 295.05722 316.73126Q295.80722 316.73126 296.32285 316.21564Q296.83847 315.7 296.83847 314.9344Q296.83847 314.21564 296.3541 313.7469Q295.88535 313.2625 295.15097 313.2625Q294.8541 313.2625 294.40097 313.3875L294.52597 312.45Q294.63535 312.46564 294.69785 312.46564Q295.36972 312.46564 295.90097 312.1219Q296.44785 311.7625 296.44785 311.02814Q296.44785 310.45 296.05722 310.075Q295.6666 309.6844 295.0416 309.6844Q294.43222 309.6844 294.01035 310.075Q293.6041 310.46564 293.49472 311.23126L292.43222 311.04376Q292.61972 309.9969 293.30722 309.41876Q293.99472 308.825 295.01035 308.825Q295.71347 308.825 296.30722 309.1375Q296.90097 309.4344 297.21347 309.95Q297.52597 310.46564 297.52597 311.0594Q297.52597 311.60626 297.2291 312.075Q296.93222 312.52814 296.3541 312.79376Q297.1041 312.96564 297.52597 313.52814Q297.94785 314.075 297.94785 314.91876Q297.94785 316.04376 297.11972 316.825Q296.30722 317.60626 295.05722 317.60626Q293.93222 317.60626 293.18222 316.9344Q292.43222 316.2469 292.32285 315.1844ZM299.4791 315.46564L300.49472 315.3719Q300.61972 316.09064 300.9791 316.41876Q301.3541 316.73126 301.9166 316.73126Q302.40097 316.73126 302.76035 316.5125Q303.13535 316.27814 303.36972 315.91876Q303.6041 315.54376 303.76035 314.91876Q303.9166 314.27814 303.9166 313.6219Q303.9166 313.54376 303.9166 313.40314Q303.6041 313.90314 303.05722 314.23126Q302.51035 314.54376 301.86972 314.54376Q300.7916 314.54376 300.05722 313.77814Q299.32285 312.9969 299.32285 311.73126Q299.32285 310.41876 300.08847 309.6219Q300.86972 308.825 302.02597 308.825Q302.8541 308.825 303.5416 309.27814Q304.24472 309.73126 304.6041 310.575Q304.96347 311.40314 304.96347 312.98126Q304.96347 314.6219 304.6041 315.60626Q304.26035 316.575 303.5416 317.09064Q302.83847 317.59064 301.90097 317.59064Q300.88535 317.59064 300.24472 317.04376Q299.6041 316.48126 299.4791 315.46564ZM303.7916 311.66876Q303.7916 310.7625 303.30722 310.23126Q302.83847 309.7 302.15097 309.7Q301.44785 309.7 300.9166 310.27814Q300.40097 310.84064 300.40097 311.7625Q300.40097 312.575 300.90097 313.09064Q301.40097 313.60626 302.11972 313.60626Q302.8541 313.60626 303.32285 313.09064Q303.7916 312.575 303.7916 311.66876Z" fill-rule="nonzero"/><path fill="#000000" d="M357.05215 317.45L357.05215 315.3875L353.3334 315.3875L353.3334 314.41876L357.25528 308.85626L358.11465 308.85626L358.11465 314.41876L359.2709 314.41876L359.2709 315.3875L358.11465 315.3875L358.11465 317.45L357.05215 317.45ZM357.05215 314.41876L357.05215 310.5594L354.36465 314.41876L357.05215 314.41876ZM360.67715 313.21564Q360.67715 311.6844 360.98965 310.7625Q361.30215 309.825 361.91153 309.325Q362.53653 308.825 363.47403 308.825Q364.16153 308.825 364.67715 309.10626Q365.2084 309.3875 365.55215 309.91876Q365.8959 310.4344 366.0834 311.1844Q366.2709 311.9344 366.2709 313.21564Q366.2709 314.73126 365.9584 315.65314Q365.66153 316.575 365.03653 317.09064Q364.42715 317.59064 363.47403 317.59064Q362.23965 317.59064 361.5209 316.7Q360.67715 315.6375 360.67715 313.21564ZM361.75528 313.21564Q361.75528 315.325 362.25528 316.02814Q362.75528 316.73126 363.47403 316.73126Q364.2084 316.73126 364.69278 316.02814Q365.19278 315.325 365.19278 313.21564Q365.19278 311.09064 364.69278 310.40314Q364.2084 309.7 363.4584 309.7Q362.73965 309.7 362.30215 310.3094Q361.75528 311.09064 361.75528 313.21564ZM367.55215 314.8719L367.55215 313.8094L370.80215 313.8094L370.80215 314.8719L367.55215 314.8719ZM375.05215 317.45L375.05215 315.3875L371.3334 315.3875L371.3334 314.41876L375.25528 308.85626L376.11465 308.85626L376.11465 314.41876L377.2709 314.41876L377.2709 315.3875L376.11465 315.3875L376.11465 317.45L375.05215 317.45ZM375.05215 314.41876L375.05215 310.5594L372.36465 314.41876L375.05215 314.41876ZM378.8334 315.46564L379.84903 315.3719Q379.97403 316.09064 380.3334 316.41876Q380.7084 316.73126 381.2709 316.73126Q381.75528 316.73126 382.11465 316.5125Q382.48965 316.27814 382.72403 315.91876Q382.9584 315.54376 383.11465 314.91876Q383.2709 314.27814 383.2709 313.6219Q383.2709 313.54376 383.2709 313.40314Q382.9584 313.90314 382.41153 314.23126Q381.86465 314.54376 381.22403 314.54376Q380.1459 314.54376 379.41153 313.77814Q378.67715 312.9969 378.67715 311.73126Q378.67715 310.41876 379.44278 309.6219Q380.22403 308.825 381.38028 308.825Q382.2084 308.825 382.8959 309.27814Q383.59903 309.73126 383.9584 310.575Q384.31778 311.40314 384.31778 312.98126Q384.31778 314.6219 383.9584 315.60626Q383.61465 316.575 382.8959 317.09064Q382.19278 317.59064 381.25528 317.59064Q380.23965 317.59064 379.59903 317.04376Q378.9584 316.48126 378.8334 315.46564ZM383.1459 311.66876Q383.1459 310.7625 382.66153 310.23126Q382.19278 309.7 381.50528 309.7Q380.80215 309.7 380.2709 310.27814Q379.75528 310.84064 379.75528 311.7625Q379.75528 312.575 380.25528 313.09064Q380.75528 313.60626 381.47403 313.60626Q382.2084 313.60626 382.67715 313.09064Q383.1459 312.575 383.1459 311.66876Z" fill-rule="nonzero"/><path fill="#000000" d="M433.0315 315.2L434.14087 315.10626Q434.26587 315.91876 434.70337 316.325Q435.1565 316.73126 435.79712 316.73126Q436.54712 316.73126 437.07837 316.15314Q437.60962 315.575 437.60962 314.6375Q437.60962 313.73126 437.094 313.21564Q436.594 312.6844 435.76587 312.6844Q435.26587 312.6844 434.844 312.91876Q434.43774 313.15314 434.20337 313.5125L433.219 313.3875L434.04712 308.98126L438.32837 308.98126L438.32837 309.98126L434.89087 309.98126L434.43774 312.29376Q435.20337 311.7469 436.04712 311.7469Q437.17212 311.7469 437.93774 312.52814Q438.719 313.3094 438.719 314.54376Q438.719 315.7 438.04712 316.5594Q437.219 317.59064 435.79712 317.59064Q434.62524 317.59064 433.87524 316.9344Q433.14087 316.27814 433.0315 315.2ZM440.0315 313.21564Q440.0315 311.6844 440.344 310.7625Q440.6565 309.825 441.26587 309.325Q441.89087 308.825 442.82837 308.825Q443.51587 308.825 444.0315 309.10626Q444.56274 309.3875 444.9065 309.91876Q445.25024 310.4344 445.43774 311.1844Q445.62524 311.9344 445.62524 313.21564Q445.62524 314.73126 445.31274 315.65314Q445.01587 316.575 444.39087 317.09064Q443.7815 317.59064 442.82837 317.59064Q441.594 317.59064 440.87524 316.7Q440.0315 315.6375 440.0315 313.21564ZM441.10962 313.21564Q441.10962 315.325 441.60962 316.02814Q442.10962 316.73126 442.82837 316.73126Q443.56274 316.73126 444.04712 316.02814Q444.54712 315.325 444.54712 313.21564Q444.54712 311.09064 444.04712 310.40314Q443.56274 309.7 442.81274 309.7Q442.094 309.7 441.6565 310.3094Q441.10962 311.09064 441.10962 313.21564ZM446.9065 314.8719L446.9065 313.8094L450.1565 313.8094L450.1565 314.8719L446.9065 314.8719ZM456.50024 310.96564L455.45337 311.04376Q455.31274 310.41876 455.06274 310.1375Q454.62524 309.6844 454.00024 309.6844Q453.50024 309.6844 453.10962 309.96564Q452.62524 310.34064 452.32837 311.04376Q452.04712 311.73126 452.0315 313.0125Q452.4065 312.4344 452.95337 312.15314Q453.51587 311.8719 454.12524 311.8719Q455.17212 311.8719 455.9065 312.65314Q456.6565 313.4344 456.6565 314.65314Q456.6565 315.46564 456.29712 316.16876Q455.95337 316.85626 455.344 317.23126Q454.73462 317.59064 453.969 317.59064Q452.64087 317.59064 451.81274 316.6219Q450.98462 315.65314 450.98462 313.4344Q450.98462 310.9344 451.9065 309.8094Q452.70337 308.825 454.06274 308.825Q455.07837 308.825 455.719 309.40314Q456.37524 309.96564 456.50024 310.96564ZM452.20337 314.66876Q452.20337 315.21564 452.42212 315.71564Q452.6565 316.2 453.06274 316.46564Q453.48462 316.73126 453.95337 316.73126Q454.60962 316.73126 455.094 316.2Q455.57837 315.65314 455.57837 314.73126Q455.57837 313.84064 455.094 313.325Q454.62524 312.8094 453.9065 312.8094Q453.18774 312.8094 452.68774 313.325Q452.20337 313.84064 452.20337 314.66876ZM461.4065 317.45L461.4065 315.3875L457.68774 315.3875L457.68774 314.41876L461.60962 308.85626L462.469 308.85626L462.469 314.41876L463.62524 314.41876L463.62524 315.3875L462.469 315.3875L462.469 317.45L461.4065 317.45ZM461.4065 314.41876L461.4065 310.5594L458.719 314.41876L461.4065 314.41876Z" fill-rule="nonzero"/><path fill="#000000" d="M523.35455 310.96564L522.3077 311.04376Q522.16705 310.41876 521.91705 310.1375Q521.47955 309.6844 520.85455 309.6844Q520.35455 309.6844 519.9639 309.96564Q519.47955 310.34064 519.1827 311.04376Q518.9014 311.73126 518.8858 313.0125Q519.2608 312.4344 519.8077 312.15314Q520.3702 311.8719 520.97955 311.8719Q522.0264 311.8719 522.7608 312.65314Q523.5108 313.4344 523.5108 314.65314Q523.5108 315.46564 523.1514 316.16876Q522.8077 316.85626 522.1983 317.23126Q521.5889 317.59064 520.8233 317.59064Q519.4952 317.59064 518.66705 316.6219Q517.8389 315.65314 517.8389 313.4344Q517.8389 310.9344 518.7608 309.8094Q519.5577 308.825 520.91705 308.825Q521.9327 308.825 522.5733 309.40314Q523.22955 309.96564 523.35455 310.96564ZM519.0577 314.66876Q519.0577 315.21564 519.2764 315.71564Q519.5108 316.2 519.91705 316.46564Q520.3389 316.73126 520.8077 316.73126Q521.4639 316.73126 521.9483 316.2Q522.4327 315.65314 522.4327 314.73126Q522.4327 313.84064 521.9483 313.325Q521.47955 312.8094 520.7608 312.8094Q520.04205 312.8094 519.54205 313.325Q519.0577 313.84064 519.0577 314.66876ZM524.8858 315.2L525.9952 315.10626Q526.1202 315.91876 526.5577 316.325Q527.0108 316.73126 527.6514 316.73126Q528.4014 316.73126 528.9327 316.15314Q529.4639 315.575 529.4639 314.6375Q529.4639 313.73126 528.9483 313.21564Q528.4483 312.6844 527.6202 312.6844Q527.1202 312.6844 526.6983 312.91876Q526.29205 313.15314 526.0577 313.5125L525.0733 313.3875L525.9014 308.98126L530.1827 308.98126L530.1827 309.98126L526.7452 309.98126L526.29205 312.29376Q527.0577 311.7469 527.9014 311.7469Q529.0264 311.7469 529.79205 312.52814Q530.5733 313.3094 530.5733 314.54376Q530.5733 315.7 529.9014 316.5594Q529.0733 317.59064 527.6514 317.59064Q526.47955 317.59064 525.72955 316.9344Q524.9952 316.27814 524.8858 315.2ZM534.3858 316.0594L534.3858 313.7L532.0577 313.7L532.0577 312.71564L534.3858 312.71564L534.3858 310.3875L535.3858 310.3875L535.3858 312.71564L537.72955 312.71564L537.72955 313.7L535.3858 313.7L535.3858 316.0594L534.3858 316.0594Z" fill-rule="nonzero"/></svg>