<svg xmlns="http://www.w3.org/2000/svg" width="121.39" height="115.343" viewBox="0 0 121.39 115.343">
  <path id="brain-solid_1_" data-name="brain-solid (1)" d="M43.835,0c-6.3,0-11.528,4.618-13.024,10.858-.169,0-.3-.045-.464-.045-7.439,0-13.488,6.465-13.488,14.418a14.157,14.157,0,0,0,.358,3.154A18.062,18.062,0,0,0,6.744,45.056a19.061,19.061,0,0,0,1.749,7.862,18.515,18.515,0,0,0,1.918,32.215,17.609,17.609,0,0,0-.3,3.176c0,8.966,6.786,16.22,15.174,16.22a13.4,13.4,0,0,0,2.529-.27c2.023,6.42,7.629,11.084,14.331,11.084,8.388,0,15.174-7.254,15.174-16.22v-84.7C57.323,6.465,51.275,0,43.835,0ZM121.39,68.485A18.168,18.168,0,0,0,112.9,52.918a18.734,18.734,0,0,0,1.749-7.862,18.062,18.062,0,0,0-10.474-16.671,15.513,15.513,0,0,0,.358-3.154c0-7.952-6.048-14.418-13.488-14.418-.169,0-.316.045-.464.045C89.083,4.618,83.856,0,77.555,0,70.116,0,64.067,6.443,64.067,14.418v84.7c0,8.966,6.786,16.22,15.174,16.22,6.7,0,12.308-4.663,14.331-11.084a13.4,13.4,0,0,0,2.529.27c8.388,0,15.174-7.254,15.174-16.22a17.609,17.609,0,0,0-.3-3.176A18.069,18.069,0,0,0,121.39,68.485Z" fill="#18233e"/>
</svg>
