<svg xmlns="http://www.w3.org/2000/svg" xmlns:xlink="http://www.w3.org/1999/xlink" width="124.409" height="116.178" viewBox="0 0 124.409 116.178">
  <defs>
    <filter id="poll-solid" x="0" y="0" width="124.409" height="116.178" filterUnits="userSpaceOnUse">
      <feOffset dy="3" input="SourceAlpha"/>
      <feGaussianBlur stdDeviation="3" result="blur"/>
      <feFlood flood-opacity="0.161"/>
      <feComposite operator="in" in2="blur"/>
      <feComposite in="SourceGraphic"/>
    </filter>
  </defs>
  <g transform="matrix(1, 0, 0, 1, 0, 0)" filter="url(#poll-solid)">
    <path id="poll-solid-2" data-name="poll-solid" d="M95.008,32H11.4C5.107,32,0,36.712,0,42.519v77.14c0,5.807,5.107,10.519,11.4,10.519H95.008c6.294,0,11.4-4.712,11.4-10.519V42.519C106.409,36.712,101.3,32,95.008,32ZM38,105.634a3.661,3.661,0,0,1-3.8,3.506H26.6a3.661,3.661,0,0,1-3.8-3.506V77.583a3.661,3.661,0,0,1,3.8-3.506h7.6A3.661,3.661,0,0,1,38,77.583Zm22.8,0A3.661,3.661,0,0,1,57,109.14H49.4a3.661,3.661,0,0,1-3.8-3.506V56.545a3.661,3.661,0,0,1,3.8-3.506H57a3.661,3.661,0,0,1,3.8,3.506Zm22.8,0a3.661,3.661,0,0,1-3.8,3.506h-7.6a3.661,3.661,0,0,1-3.8-3.506V91.608a3.661,3.661,0,0,1,3.8-3.506h7.6a3.661,3.661,0,0,1,3.8,3.506Z" transform="translate(9 -26)" fill="#18233e"/>
  </g>
</svg>
