<svg xmlns="http://www.w3.org/2000/svg" width="124.213" height="103.254" viewBox="0 0 124.213 103.254">
  <path id="store-solid" d="M121.449,23.918,108.361,3.025A6.456,6.456,0,0,0,102.9,0H21.422a6.456,6.456,0,0,0-5.465,3.025L2.868,23.918C-3.888,34.707,2.1,49.711,14.726,51.426a20.958,20.958,0,0,0,2.763.182,19.913,19.913,0,0,0,14.883-6.675,19.929,19.929,0,0,0,29.766,0,19.929,19.929,0,0,0,29.766,0,19.979,19.979,0,0,0,14.883,6.675,20.733,20.733,0,0,0,2.763-.182c12.665-1.694,18.675-16.7,11.9-27.508ZM106.829,58.081a25.588,25.588,0,0,1-5.949-.766V77.441H23.439V57.314a26.716,26.716,0,0,1-5.949.766,27.211,27.211,0,0,1-3.63-.242,25.362,25.362,0,0,1-3.307-.726V96.8a6.446,6.446,0,0,0,6.453,6.453h90.348a6.446,6.446,0,0,0,6.453-6.453V57.113a20.591,20.591,0,0,1-3.307.726,28.046,28.046,0,0,1-3.67.242Z" transform="translate(-0.056)" fill="#18233e"/>
</svg>
