<svg version="1.1" viewBox="0.0 0.0 382.0 412.0" fill="none" stroke="none" stroke-linecap="square" stroke-miterlimit="10" width="382" height="412" xmlns:xlink="http://www.w3.org/1999/xlink" xmlns="http://www.w3.org/2000/svg"><path fill="#ffffff" d="M0 0L382.0 0L382.0 412.0L0 412.0L0 0Z" fill-rule="nonzero"/><path fill="#c7ea46" d="M188.36064 50.666298C239.04874 50.666298 287.17795 72.933235 319.99274 111.56579L188.36064 223.37509Z" fill-rule="nonzero"/><path fill="#3c78d8" d="M115.842094 66.62884C138.57167 56.113014 163.31635 50.666298 188.36064 50.666298L188.36064 223.37509Z" fill-rule="nonzero"/><path fill="#fcaa91" d="M83.84173 85.88282C93.78121 78.32702 104.51072 71.87129 115.842094 66.62884L188.36064 223.37509Z" fill-rule="nonzero"/><path fill="#015925" d="M69.58889 348.7609C32.789555 313.9027 13.160937 264.63858 15.905136 214.02483C18.649334 163.41106 43.489277 116.55795 83.84173 85.88282L188.36064 223.37509Z" fill-rule="nonzero"/><path fill="#f25b2c" d="M319.99274 111.56579C379.39127 181.49515 373.7434 285.66357 307.1324 348.7609C240.52135 411.85822 136.19992 411.85822 69.58889 348.7609L188.36064 223.37509Z" fill-rule="nonzero"/><path fill="#000000" d="M230.05193 107.46658L228.7863 107.46658L228.7863 99.04471L226.2238 99.96658L226.2238 98.82596L229.8488 97.46658L230.05193 97.46658L230.05193 107.46658ZM235.73943 101.87283L236.67693 101.87283Q237.58318 101.85721 238.08318 101.40408Q238.5988 100.95096 238.5988 100.16971Q238.5988 98.41971 236.86443 98.41971Q236.0363 98.41971 235.55193 98.88846Q235.06755 99.35721 235.06755 100.12283L233.80193 100.12283Q233.80193 98.93533 234.6613 98.15408Q235.5363 97.37283 236.86443 97.37283Q238.27068 97.37283 239.06755 98.12283Q239.86443 98.87283 239.86443 100.18533Q239.86443 100.84158 239.44255 101.45096Q239.0363 102.06033 238.30193 102.35721Q239.13005 102.62283 239.56755 103.23221Q240.02068 103.82596 240.02068 104.68533Q240.02068 106.02908 239.14568 106.82596Q238.27068 107.60721 236.86443 107.60721Q235.4738 107.60721 234.58318 106.85721Q233.70818 106.09158 233.70818 104.84158L234.98943 104.84158Q234.98943 105.62283 235.48943 106.10721Q236.00505 106.57596 236.86443 106.57596Q237.7863 106.57596 238.27068 106.09158Q238.75505 105.60721 238.75505 104.71658Q238.75505 103.85721 238.2238 103.38846Q237.69255 102.91971 236.67693 102.90408L235.73943 102.90408L235.73943 101.87283ZM242.05193 106.81033Q242.05193 106.48221 242.23943 106.26346Q242.44255 106.04471 242.83318 106.04471Q243.2238 106.04471 243.42693 106.26346Q243.63005 106.48221 243.63005 106.81033Q243.63005 107.12283 243.42693 107.34158Q243.2238 107.54471 242.83318 107.54471Q242.44255 107.54471 242.23943 107.34158Q242.05193 107.12283 242.05193 106.81033ZM251.92693 100.10721Q251.92693 100.85721 251.5363 101.43533Q251.14568 102.01346 250.4738 102.34158Q251.25505 102.68533 251.70818 103.32596Q252.1613 103.96658 252.1613 104.77908Q252.1613 106.07596 251.2863 106.84158Q250.42693 107.60721 249.00505 107.60721Q247.56755 107.60721 246.69255 106.84158Q245.83318 106.06033 245.83318 104.77908Q245.83318 103.96658 246.27068 103.32596Q246.70818 102.66971 247.48943 102.34158Q246.83318 102.01346 246.44255 101.43533Q246.06755 100.84158 246.06755 100.10721Q246.06755 98.85721 246.86443 98.12283Q247.67693 97.37283 249.00505 97.37283Q250.31755 97.37283 251.11443 98.12283Q251.92693 98.85721 251.92693 100.10721ZM250.89568 104.74783Q250.89568 103.91971 250.36443 103.40408Q249.83318 102.87283 248.9738 102.87283Q248.13005 102.87283 247.61443 103.38846Q247.0988 103.90408 247.0988 104.76346Q247.0988 105.60721 247.5988 106.09158Q248.0988 106.57596 249.00505 106.57596Q249.88005 106.57596 250.38005 106.09158Q250.89568 105.59158 250.89568 104.74783ZM249.00505 98.41971Q248.25505 98.41971 247.7863 98.88846Q247.33318 99.34158 247.33318 100.13846Q247.33318 100.88846 247.7863 101.35721Q248.23943 101.82596 248.98943 101.82596Q249.75505 101.82596 250.20818 101.35721Q250.6613 100.88846 250.6613 100.13846Q250.6613 99.37283 250.19255 98.90408Q249.7238 98.41971 249.00505 98.41971ZM253.7863 99.41971Q253.7863 98.52908 254.3488 97.95096Q254.92693 97.37283 255.81755 97.37283Q256.73944 97.37283 257.30194 97.96658Q257.86444 98.54471 257.86444 99.46658L257.86444 99.95096Q257.86444 100.85721 257.28632 101.43533Q256.72382 101.99783 255.83318 101.99783Q254.94255 101.99783 254.36443 101.43533Q253.7863 100.85721 253.7863 99.90408L253.7863 99.41971ZM254.7238 99.95096Q254.7238 100.48221 255.02068 100.82596Q255.33318 101.16971 255.83318 101.16971Q256.31757 101.16971 256.61444 100.84158Q256.91132 100.51346 256.91132 99.91971L256.91132 99.41971Q256.91132 98.88846 256.61444 98.54471Q256.3332 98.20096 255.81755 98.20096Q255.31755 98.20096 255.02068 98.54471Q254.7238 98.88846 254.7238 99.45096L254.7238 99.95096ZM258.63007 105.02908Q258.63007 104.12283 259.19257 103.56033Q259.7707 102.98221 260.66132 102.98221Q261.56757 102.98221 262.13007 103.56033Q262.7082 104.12283 262.7082 105.07596L262.7082 105.56033Q262.7082 106.45096 262.13007 107.02908Q261.56757 107.60721 260.67694 107.60721Q259.80194 107.60721 259.2082 107.04471Q258.63007 106.46658 258.63007 105.51346L258.63007 105.02908ZM259.5832 105.56033Q259.5832 106.09158 259.88007 106.45096Q260.17694 106.79471 260.67694 106.79471Q261.17694 106.79471 261.47382 106.45096Q261.7707 106.10721 261.7707 105.52908L261.7707 105.02908Q261.7707 104.48221 261.4582 104.13846Q261.16132 103.79471 260.67694 103.79471Q260.17694 103.79471 259.88007 104.13846Q259.5832 104.48221 259.5832 105.06033L259.5832 105.56033ZM256.13007 106.71658L255.4113 106.26346L260.2707 98.48221L260.98944 98.93533L256.13007 106.71658Z" fill-rule="nonzero"/><path fill="#000000" d="M264.1364 318.06937L265.5114 318.06937L265.5114 319.10062L264.1364 319.10062L264.1364 321.41312L262.85516 321.41312L262.85516 319.10062L258.3239 319.10062L258.3239 318.35062L262.77704 311.46L264.1364 311.46L264.1364 318.06937ZM259.7614 318.06937L262.85516 318.06937L262.85516 313.19437L262.71454 313.46L259.7614 318.06937ZM272.8239 314.05374Q272.8239 314.80374 272.4333 315.38187Q272.04266 315.96 271.3708 316.28812Q272.15204 316.63187 272.60516 317.2725Q273.0583 317.91312 273.0583 318.72562Q273.0583 320.0225 272.1833 320.78812Q271.3239 321.55374 269.90204 321.55374Q268.46454 321.55374 267.58954 320.78812Q266.73016 320.00687 266.73016 318.72562Q266.73016 317.91312 267.16766 317.2725Q267.60516 316.61624 268.3864 316.28812Q267.73016 315.96 267.33954 315.38187Q266.96454 314.78812 266.96454 314.05374Q266.96454 312.80374 267.7614 312.06937Q268.5739 311.31937 269.90204 311.31937Q271.21454 311.31937 272.0114 312.06937Q272.8239 312.80374 272.8239 314.05374ZM271.79266 318.69437Q271.79266 317.86624 271.2614 317.35062Q270.73016 316.81937 269.8708 316.81937Q269.02704 316.81937 268.5114 317.335Q267.9958 317.85062 267.9958 318.71Q267.9958 319.55374 268.4958 320.03812Q268.9958 320.5225 269.90204 320.5225Q270.77704 320.5225 271.27704 320.03812Q271.79266 319.53812 271.79266 318.69437ZM269.90204 312.36624Q269.15204 312.36624 268.6833 312.835Q268.23016 313.28812 268.23016 314.085Q268.23016 314.835 268.6833 315.30374Q269.1364 315.7725 269.8864 315.7725Q270.65204 315.7725 271.10516 315.30374Q271.5583 314.835 271.5583 314.085Q271.5583 313.31937 271.08954 312.85062Q270.6208 312.36624 269.90204 312.36624ZM274.9489 320.75687Q274.9489 320.42874 275.1364 320.21Q275.33954 319.99124 275.73016 319.99124Q276.1208 319.99124 276.3239 320.21Q276.52704 320.42874 276.52704 320.75687Q276.52704 321.06937 276.3239 321.28812Q276.1208 321.49124 275.73016 321.49124Q275.33954 321.49124 275.1364 321.28812Q274.9489 321.06937 274.9489 320.75687ZM280.6364 315.81937L281.5739 315.81937Q282.48016 315.80374 282.98016 315.35062Q283.4958 314.8975 283.4958 314.11624Q283.4958 312.36624 281.7614 312.36624Q280.9333 312.36624 280.4489 312.835Q279.96454 313.30374 279.96454 314.06937L278.6989 314.06937Q278.6989 312.88187 279.5583 312.10062Q280.4333 311.31937 281.7614 311.31937Q283.16766 311.31937 283.96454 312.06937Q284.7614 312.81937 284.7614 314.13187Q284.7614 314.78812 284.33954 315.3975Q283.9333 316.00687 283.1989 316.30374Q284.02704 316.56937 284.46454 317.17874Q284.91766 317.7725 284.91766 318.63187Q284.91766 319.97562 284.04266 320.7725Q283.16766 321.55374 281.7614 321.55374Q280.3708 321.55374 279.48016 320.80374Q278.60516 320.03812 278.60516 318.78812L279.8864 318.78812Q279.8864 319.56937 280.3864 320.05374Q280.90204 320.5225 281.7614 320.5225Q282.6833 320.5225 283.16766 320.03812Q283.65204 319.55374 283.65204 318.66312Q283.65204 317.80374 283.1208 317.335Q282.58954 316.86624 281.5739 316.85062L280.6364 316.85062L280.6364 315.81937ZM286.6833 313.36624Q286.6833 312.47562 287.2458 311.8975Q287.8239 311.31937 288.71454 311.31937Q289.6364 311.31937 290.1989 311.91312Q290.7614 312.49124 290.7614 313.41312L290.7614 313.8975Q290.7614 314.80374 290.1833 315.38187Q289.6208 315.94437 288.73016 315.94437Q287.83954 315.94437 287.2614 315.38187Q286.6833 314.80374 286.6833 313.85062L286.6833 313.36624ZM287.6208 313.8975Q287.6208 314.42874 287.91766 314.7725Q288.23016 315.11624 288.73016 315.11624Q289.21454 315.11624 289.5114 314.78812Q289.8083 314.46 289.8083 313.86624L289.8083 313.36624Q289.8083 312.835 289.5114 312.49124Q289.23016 312.1475 288.71454 312.1475Q288.21454 312.1475 287.91766 312.49124Q287.6208 312.835 287.6208 313.3975L287.6208 313.8975ZM291.52704 318.97562Q291.52704 318.06937 292.08954 317.50687Q292.66766 316.92874 293.5583 316.92874Q294.46454 316.92874 295.02704 317.50687Q295.60516 318.06937 295.60516 319.0225L295.60516 319.50687Q295.60516 320.3975 295.02704 320.97562Q294.46454 321.55374 293.5739 321.55374Q292.6989 321.55374 292.10516 320.99124Q291.52704 320.41312 291.52704 319.46L291.52704 318.97562ZM292.48016 319.50687Q292.48016 320.03812 292.77704 320.3975Q293.0739 320.74124 293.5739 320.74124Q294.0739 320.74124 294.3708 320.3975Q294.66766 320.05374 294.66766 319.47562L294.66766 318.97562Q294.66766 318.42874 294.35516 318.085Q294.0583 317.74124 293.5739 317.74124Q293.0739 317.74124 292.77704 318.085Q292.48016 318.42874 292.48016 319.00687L292.48016 319.50687ZM289.02704 320.66312L288.3083 320.21L293.16766 312.42874L293.8864 312.88187L289.02704 320.66312Z" fill-rule="nonzero"/><path fill="#ffffff" d="M43.447685 220.65012L36.93206 220.65012L36.93206 219.74387L40.36956 215.91574Q41.135185 215.04074 41.43206 214.50949Q41.728935 213.96262 41.728935 213.36887Q41.728935 212.60324 41.24456 212.10324Q40.77581 211.60324 39.99456 211.60324Q39.05706 211.60324 38.52581 212.13449Q38.010185 212.66574 38.010185 213.63449L36.74456 213.63449Q36.74456 212.25949 37.61956 211.41574Q38.510185 210.55637 39.99456 210.55637Q41.385185 210.55637 42.18206 211.29074Q42.99456 212.00949 42.99456 213.22824Q42.99456 214.69699 41.11956 216.72824L38.46331 219.61887L43.447685 219.61887L43.447685 220.65012ZM51.353935 211.40012L47.228935 220.65012L45.916435 220.65012L50.010185 211.72824L44.635185 211.72824L44.635185 210.69699L51.353935 210.69699L51.353935 211.40012ZM53.08831 219.99387Q53.08831 219.66574 53.27581 219.44699Q53.478935 219.22824 53.86956 219.22824Q54.260185 219.22824 54.46331 219.44699Q54.666435 219.66574 54.666435 219.99387Q54.666435 220.30637 54.46331 220.52512Q54.260185 220.72824 53.86956 220.72824Q53.478935 220.72824 53.27581 220.52512Q53.08831 220.30637 53.08831 219.99387ZM61.90081 210.69699L61.90081 211.75949L61.666435 211.75949Q60.18206 211.79074 59.30706 212.63449Q58.43206 213.47824 58.291435 215.02512Q59.08831 214.11887 60.447685 214.11887Q61.74456 214.11887 62.510185 215.04074Q63.291435 215.94699 63.291435 217.40012Q63.291435 218.94699 62.447685 219.86887Q61.61956 220.79074 60.21331 220.79074Q58.791435 220.79074 57.90081 219.69699Q57.010185 218.58762 57.010185 216.86887L57.010185 216.38449Q57.010185 213.63449 58.18206 212.18137Q59.353935 210.72824 61.666435 210.69699L61.90081 210.69699ZM60.228935 215.18137Q59.58831 215.18137 59.041435 215.57199Q58.49456 215.94699 58.27581 216.54074L58.27581 217.00949Q58.27581 218.24387 58.822685 218.99387Q59.385185 219.74387 60.21331 219.74387Q61.072685 219.74387 61.55706 219.11887Q62.041435 218.47824 62.041435 217.46262Q62.041435 216.43137 61.541435 215.80637Q61.05706 215.18137 60.228935 215.18137ZM64.822685 212.60324Q64.822685 211.71262 65.385185 211.13449Q65.96331 210.55637 66.853935 210.55637Q67.77581 210.55637 68.33831 211.15012Q68.90081 211.72824 68.90081 212.65012L68.90081 213.13449Q68.90081 214.04074 68.322685 214.61887Q67.760185 215.18137 66.86956 215.18137Q65.978935 215.18137 65.40081 214.61887Q64.822685 214.04074 64.822685 213.08762L64.822685 212.60324ZM65.760185 213.13449Q65.760185 213.66574 66.05706 214.00949Q66.36956 214.35324 66.86956 214.35324Q67.353935 214.35324 67.65081 214.02512Q67.947685 213.69699 67.947685 213.10324L67.947685 212.60324Q67.947685 212.07199 67.65081 211.72824Q67.36956 211.38449 66.853935 211.38449Q66.353935 211.38449 66.05706 211.72824Q65.760185 212.07199 65.760185 212.63449L65.760185 213.13449ZM69.666435 218.21262Q69.666435 217.30637 70.228935 216.74387Q70.80706 216.16574 71.697685 216.16574Q72.603935 216.16574 73.166435 216.74387Q73.74456 217.30637 73.74456 218.25949L73.74456 218.74387Q73.74456 219.63449 73.166435 220.21262Q72.603935 220.79074 71.71331 220.79074Q70.83831 220.79074 70.24456 220.22824Q69.666435 219.65012 69.666435 218.69699L69.666435 218.21262ZM70.61956 218.74387Q70.61956 219.27512 70.916435 219.63449Q71.21331 219.97824 71.71331 219.97824Q72.21331 219.97824 72.510185 219.63449Q72.80706 219.29074 72.80706 218.71262L72.80706 218.21262Q72.80706 217.66574 72.49456 217.32199Q72.197685 216.97824 71.71331 216.97824Q71.21331 216.97824 70.916435 217.32199Q70.61956 217.66574 70.61956 218.24387L70.61956 218.74387ZM67.166435 219.90012L66.447685 219.44699L71.30706 211.66574L72.02581 212.11887L67.166435 219.90012Z" fill-rule="nonzero"/><path fill="#ffffff" d="M149.35434 82.524796L149.35434 83.587296L149.11996 83.587296Q147.63559 83.618546 146.76059 84.462296Q145.88559 85.306046 145.74496 86.85292Q146.54184 85.94667 147.90121 85.94667Q149.19809 85.94667 149.96371 86.868546Q150.74496 87.774796 150.74496 89.22792Q150.74496 90.774796 149.90121 91.69667Q149.07309 92.618546 147.66684 92.618546Q146.24496 92.618546 145.35434 91.524796Q144.46371 90.41542 144.46371 88.69667L144.46371 88.212296Q144.46371 85.462296 145.63559 84.00917Q146.80746 82.556046 149.11996 82.524796L149.35434 82.524796ZM147.68246 87.00917Q147.04184 87.00917 146.49496 87.399796Q145.94809 87.774796 145.72934 88.368546L145.72934 88.837296Q145.72934 90.07167 146.27621 90.82167Q146.83871 91.57167 147.66684 91.57167Q148.52621 91.57167 149.01059 90.94667Q149.49496 90.306046 149.49496 89.29042Q149.49496 88.25917 148.99496 87.63417Q148.51059 87.00917 147.68246 87.00917ZM152.54184 91.82167Q152.54184 91.493546 152.72934 91.274796Q152.93246 91.056046 153.32309 91.056046Q153.71371 91.056046 153.91684 91.274796Q154.11996 91.493546 154.11996 91.82167Q154.11996 92.13417 153.91684 92.35292Q153.71371 92.556046 153.32309 92.556046Q152.93246 92.556046 152.72934 92.35292Q152.54184 92.13417 152.54184 91.82167ZM161.22934 88.10292Q160.83871 88.57167 160.27621 88.868546Q159.72934 89.149796 159.07309 89.149796Q158.21371 89.149796 157.57309 88.72792Q156.93246 88.306046 156.58871 87.54042Q156.24496 86.75917 156.24496 85.837296Q156.24496 84.837296 156.61996 84.04042Q156.99496 83.22792 157.69809 82.806046Q158.40121 82.38417 159.32309 82.38417Q160.80746 82.38417 161.65121 83.493546Q162.51059 84.60292 162.51059 86.50917L162.51059 86.868546Q162.51059 89.774796 161.35434 91.118546Q160.21371 92.44667 157.88559 92.47792L157.63559 92.47792L157.63559 91.41542L157.91684 91.41542Q159.47934 91.38417 160.30746 90.60292Q161.15121 89.806046 161.22934 88.10292ZM159.27621 88.10292Q159.91684 88.10292 160.44809 87.712296Q160.99496 87.32167 161.24496 86.743546L161.24496 86.243546Q161.24496 84.993546 160.69809 84.22792Q160.15121 83.44667 159.33871 83.44667Q158.49496 83.44667 157.97934 84.087296Q157.47934 84.712296 157.47934 85.75917Q157.47934 86.79042 157.96371 87.44667Q158.46371 88.10292 159.27621 88.10292ZM164.27621 84.431046Q164.27621 83.54042 164.83871 82.962296Q165.41684 82.38417 166.30746 82.38417Q167.22934 82.38417 167.79184 82.97792Q168.35434 83.556046 168.35434 84.47792L168.35434 84.962296Q168.35434 85.868546 167.77621 86.44667Q167.21371 87.00917 166.32309 87.00917Q165.43246 87.00917 164.85434 86.44667Q164.27621 85.868546 164.27621 84.91542L164.27621 84.431046ZM165.21371 84.962296Q165.21371 85.493546 165.51059 85.837296Q165.82309 86.181046 166.32309 86.181046Q166.80746 86.181046 167.10434 85.85292Q167.40121 85.524796 167.40121 84.931046L167.40121 84.431046Q167.40121 83.899796 167.10434 83.556046Q166.82309 83.212296 166.30746 83.212296Q165.80746 83.212296 165.51059 83.556046Q165.21371 83.899796 165.21371 84.462296L165.21371 84.962296ZM169.11996 90.04042Q169.11996 89.13417 169.68246 88.57167Q170.26059 87.993546 171.15121 87.993546Q172.05746 87.993546 172.61996 88.57167Q173.19809 89.13417 173.19809 90.087296L173.19809 90.57167Q173.19809 91.462296 172.61996 92.04042Q172.05746 92.618546 171.16684 92.618546Q170.29184 92.618546 169.69809 92.056046Q169.11996 91.47792 169.11996 90.524796L169.11996 90.04042ZM170.07309 90.57167Q170.07309 91.10292 170.36996 91.462296Q170.66684 91.806046 171.16684 91.806046Q171.66684 91.806046 171.96371 91.462296Q172.26059 91.118546 172.26059 90.54042L172.26059 90.04042Q172.26059 89.493546 171.94809 89.149796Q171.65121 88.806046 171.16684 88.806046Q170.66684 88.806046 170.36996 89.149796Q170.07309 89.493546 170.07309 90.07167L170.07309 90.57167ZM166.61996 91.72792L165.90121 91.274796L170.76059 83.493546L171.47934 83.94667L166.61996 91.72792Z" fill-rule="nonzero"/><path fill="#000000" d="M21.482882 29.761227L19.779757 29.761227L19.779757 23.839352L13.326632 23.839352L13.326632 29.761227L11.639132 29.761227L11.639132 16.964352L13.326632 16.964352L13.326632 22.464352L19.779757 22.464352L19.779757 16.964352L21.482882 16.964352L21.482882 29.761227ZM23.951632 24.917477Q23.951632 23.526852 24.498507 22.417477Q25.061007 21.292477 26.029757 20.683102Q27.014132 20.073727 28.264132 20.073727Q30.217257 20.073727 31.404757 21.417477Q32.60788 22.761227 32.60788 24.995602L32.60788 25.104977Q32.60788 26.495602 32.07663 27.604977Q31.545382 28.698727 30.561007 29.323727Q29.576632 29.933102 28.295382 29.933102Q26.357882 29.933102 25.154757 28.589352Q23.951632 27.245602 23.951632 25.026852L23.951632 24.917477ZM25.592257 25.104977Q25.592257 26.698727 26.326632 27.651852Q27.061007 28.604977 28.295382 28.604977Q29.529757 28.604977 30.248507 27.636227Q30.982882 26.667477 30.982882 24.917477Q30.982882 23.354977 30.232882 22.386227Q29.498507 21.417477 28.264132 21.417477Q27.061007 21.417477 26.326632 22.370602Q25.592257 23.323727 25.592257 25.104977ZM42.811005 27.526852L44.63913 20.245602L46.26413 20.245602L43.498505 29.761227L42.17038 29.761227L39.85788 22.558102L37.60788 29.761227L36.29538 29.761227L33.529755 20.245602L35.154755 20.245602L37.029755 27.370602L39.23288 20.245602L40.54538 20.245602L42.811005 27.526852ZM51.95163 24.917477Q51.95163 23.526852 52.498505 22.417477Q53.061005 21.292477 54.029755 20.683102Q55.01413 20.073727 56.26413 20.073727Q58.217255 20.073727 59.404755 21.417477Q60.60788 22.761227 60.60788 24.995602L60.60788 25.104977Q60.60788 26.495602 60.07663 27.604977Q59.54538 28.698727 58.561005 29.323727Q57.57663 29.933102 56.29538 29.933102Q54.35788 29.933102 53.154755 28.589352Q51.95163 27.245602 51.95163 25.026852L51.95163 24.917477ZM53.592255 25.104977Q53.592255 26.698727 54.32663 27.651852Q55.061005 28.604977 56.29538 28.604977Q57.529755 28.604977 58.248505 27.636227Q58.98288 26.667477 58.98288 24.917477Q58.98288 23.354977 58.23288 22.386227Q57.498505 21.417477 56.26413 21.417477Q55.061005 21.417477 54.32663 22.370602Q53.592255 23.323727 53.592255 25.104977ZM63.186005 29.761227L63.186005 21.511227L61.686005 21.511227L61.686005 20.245602L63.186005 20.245602L63.186005 19.276852Q63.186005 17.745602 63.998505 16.917477Q64.82663 16.073727 66.311005 16.073727Q66.873505 16.073727 67.436005 16.229977L67.342255 17.542477Q66.936005 17.464352 66.467255 17.464352Q65.67038 17.464352 65.23288 17.933102Q64.811005 18.386227 64.811005 19.245602L64.811005 20.245602L66.842255 20.245602L66.842255 21.511227L64.811005 21.511227L64.811005 29.761227L63.186005 29.761227ZM70.592255 17.948727L70.592255 20.245602L72.373505 20.245602L72.373505 21.511227L70.592255 21.511227L70.592255 27.401852Q70.592255 27.979977 70.82663 28.261227Q71.061005 28.542477 71.63913 28.542477Q71.92038 28.542477 72.404755 28.448727L72.404755 29.761227Q71.76413 29.933102 71.17038 29.933102Q70.07663 29.933102 69.51413 29.276852Q68.967255 28.620602 68.967255 27.401852L68.967255 21.511227L67.23288 21.511227L67.23288 20.245602L68.967255 20.245602L68.967255 17.948727L70.592255 17.948727ZM78.32663 29.933102Q76.404755 29.933102 75.186005 28.667477Q73.967255 27.401852 73.967255 25.276852L73.967255 24.964352Q73.967255 23.558102 74.51413 22.448727Q75.061005 21.339352 76.029755 20.714352Q76.998505 20.073727 78.123505 20.073727Q79.98288 20.073727 81.01413 21.292477Q82.04538 22.511227 82.04538 24.792477L82.04538 25.464352L75.592255 25.464352Q75.63913 26.870602 76.42038 27.745602Q77.20163 28.604977 78.42038 28.604977Q79.279755 28.604977 79.873505 28.261227Q80.48288 27.901852 80.92038 27.323727L81.92038 28.104977Q80.717255 29.933102 78.32663 29.933102ZM78.123505 21.417477Q77.13913 21.417477 76.467255 22.136227Q75.811005 22.839352 75.654755 24.136227L80.42038 24.136227L80.42038 24.011227Q80.342255 22.776852 79.748505 22.104977Q79.154755 21.417477 78.123505 21.417477ZM85.92038 20.245602L85.98288 21.448727Q87.061005 20.073727 88.82663 20.073727Q91.842255 20.073727 91.85788 23.479977L91.85788 29.761227L90.23288 29.761227L90.23288 23.464352Q90.23288 22.433102 89.76413 21.948727Q89.311005 21.448727 88.32663 21.448727Q87.54538 21.448727 86.936005 21.870602Q86.342255 22.292477 86.01413 22.979977L86.01413 29.761227L84.38913 29.761227L84.38913 20.245602L85.92038 20.245602ZM105.498505 27.386227L107.717255 20.245602L109.45163 20.245602L105.623505 31.229977Q104.748505 33.604977 102.811005 33.604977L102.498505 33.573727L101.88913 33.46435L101.88913 32.136227L102.32663 32.1831Q103.154755 32.1831 103.60788 31.839352Q104.07663 31.511227 104.373505 30.620602L104.748505 29.651852L101.342255 20.245602L103.123505 20.245602L105.498505 27.386227ZM110.95163 24.917477Q110.95163 23.526852 111.498505 22.417477Q112.061005 21.292477 113.029755 20.683102Q114.01413 20.073727 115.26413 20.073727Q117.217255 20.073727 118.404755 21.417477Q119.60788 22.761227 119.60788 24.995602L119.60788 25.104977Q119.60788 26.495602 119.07663 27.604977Q118.54538 28.698727 117.561005 29.323727Q116.57663 29.933102 115.29538 29.933102Q113.35788 29.933102 112.154755 28.589352Q110.95163 27.245602 110.95163 25.026852L110.95163 24.917477ZM112.592255 25.104977Q112.592255 26.698727 113.32663 27.651852Q114.061005 28.604977 115.29538 28.604977Q116.529755 28.604977 117.248505 27.636227Q117.98288 26.667477 117.98288 24.917477Q117.98288 23.354977 117.23288 22.386227Q116.498505 21.417477 115.26413 21.417477Q114.061005 21.417477 113.32663 22.370602Q112.592255 23.323727 112.592255 25.104977ZM127.26413 28.823727Q126.311005 29.933102 124.467255 29.933102Q122.95163 29.933102 122.154755 29.058102Q121.35788 28.167477 121.35788 26.433102L121.35788 20.245602L122.98288 20.245602L122.98288 26.401852Q122.98288 28.558102 124.73288 28.558102Q126.592255 28.558102 127.217255 27.167477L127.217255 20.245602L128.84225 20.245602L128.84225 29.761227L127.29538 29.761227L127.26413 28.823727ZM139.98288 21.714352Q139.60788 21.651852 139.186 21.651852Q137.57663 21.651852 137.01413 23.011227L137.01413 29.761227L135.38913 29.761227L135.38913 20.245602L136.96725 20.245602L136.9985 21.354977Q137.79538 20.073727 139.26413 20.073727Q139.73288 20.073727 139.98288 20.198727L139.98288 21.714352ZM145.32663 29.933102Q143.40475 29.933102 142.186 28.667477Q140.96725 27.401852 140.96725 25.276852L140.96725 24.964352Q140.96725 23.558102 141.51413 22.448727Q142.061 21.339352 143.02975 20.714352Q143.9985 20.073727 145.1235 20.073727Q146.98288 20.073727 148.01413 21.292477Q149.04538 22.511227 149.04538 24.792477L149.04538 25.464352L142.59225 25.464352Q142.63913 26.870602 143.42038 27.745602Q144.20163 28.604977 145.42038 28.604977Q146.27975 28.604977 146.8735 28.261227Q147.48288 27.901852 147.92038 27.323727L148.92038 28.104977Q147.71725 29.933102 145.32663 29.933102ZM145.1235 21.417477Q144.13913 21.417477 143.46725 22.136227Q142.811 22.839352 142.65475 24.136227L147.42038 24.136227L147.42038 24.011227Q147.34225 22.776852 146.7485 22.104977Q146.15475 21.417477 145.1235 21.417477ZM153.15475 29.761227L151.52975 29.761227L151.52975 16.261227L153.15475 16.261227L153.15475 29.761227ZM158.4985 27.386227L160.71725 20.245602L162.45163 20.245602L158.6235 31.229977Q157.7485 33.604977 155.811 33.604977L155.4985 33.573727L154.88913 33.46435L154.88913 32.136227L155.32663 32.1831Q156.15475 32.1831 156.60788 31.839352Q157.07663 31.511227 157.3735 30.620602L157.7485 29.651852L154.34225 20.245602L156.1235 20.245602L158.4985 27.386227ZM167.95163 24.917477Q167.95163 23.526852 168.4985 22.417477Q169.061 21.292477 170.02975 20.683102Q171.01413 20.073727 172.26413 20.073727Q174.21725 20.073727 175.40475 21.417477Q176.60788 22.761227 176.60788 24.995602L176.60788 25.104977Q176.60788 26.495602 176.07663 27.604977Q175.54538 28.698727 174.561 29.323727Q173.57663 29.933102 172.29538 29.933102Q170.35788 29.933102 169.15475 28.589352Q167.95163 27.245602 167.95163 25.026852L167.95163 24.917477ZM169.59225 25.104977Q169.59225 26.698727 170.32663 27.651852Q171.061 28.604977 172.29538 28.604977Q173.52975 28.604977 174.2485 27.636227Q174.98288 26.667477 174.98288 24.917477Q174.98288 23.354977 174.23288 22.386227Q173.4985 21.417477 172.26413 21.417477Q171.061 21.417477 170.32663 22.370602Q169.59225 23.323727 169.59225 25.104977ZM179.92038 20.245602L179.98288 21.448727Q181.061 20.073727 182.82663 20.073727Q185.84225 20.073727 185.85788 23.479977L185.85788 29.761227L184.23288 29.761227L184.23288 23.464352Q184.23288 22.433102 183.76413 21.948727Q183.311 21.448727 182.32663 21.448727Q181.54538 21.448727 180.936 21.870602Q180.34225 22.292477 180.01413 22.979977L180.01413 29.761227L178.38913 29.761227L178.38913 20.245602L179.92038 20.245602ZM196.98288 21.714352Q196.60788 21.651852 196.186 21.651852Q194.57663 21.651852 194.01413 23.011227L194.01413 29.761227L192.38913 29.761227L192.38913 20.245602L193.96725 20.245602L193.9985 21.354977Q194.79538 20.073727 196.26413 20.073727Q196.73288 20.073727 196.98288 20.198727L196.98288 21.714352ZM202.32663 29.933102Q200.40475 29.933102 199.186 28.667477Q197.96725 27.401852 197.96725 25.276852L197.96725 24.964352Q197.96725 23.558102 198.51413 22.448727Q199.061 21.339352 200.02975 20.714352Q200.9985 20.073727 202.1235 20.073727Q203.98288 20.073727 205.01413 21.292477Q206.04538 22.511227 206.04538 24.792477L206.04538 25.464352L199.59225 25.464352Q199.63913 26.870602 200.42038 27.745602Q201.20163 28.604977 202.42038 28.604977Q203.27975 28.604977 203.8735 28.261227Q204.48288 27.901852 204.92038 27.323727L205.92038 28.104977Q204.71725 29.933102 202.32663 29.933102ZM202.1235 21.417477Q201.13913 21.417477 200.46725 22.136227Q199.811 22.839352 199.65475 24.136227L204.42038 24.136227L204.42038 24.011227Q204.34225 22.776852 203.7485 22.104977Q203.15475 21.417477 202.1235 21.417477ZM211.52975 27.558102L213.8735 20.245602L215.54538 20.245602L212.1235 29.761227L210.88913 29.761227L207.45163 20.245602L209.10788 20.245602L211.52975 27.558102ZM219.15475 29.761227L217.52975 29.761227L217.52975 20.245602L219.15475 20.245602L219.15475 29.761227ZM217.38913 17.729977Q217.38913 17.339352 217.6235 17.073727Q217.8735 16.792477 218.34225 16.792477Q218.82663 16.792477 219.07663 17.073727Q219.32663 17.339352 219.32663 17.729977Q219.32663 18.120602 219.07663 18.386227Q218.82663 18.651852 218.34225 18.651852Q217.8735 18.651852 217.6235 18.386227Q217.38913 18.120602 217.38913 17.729977ZM225.32663 29.933102Q223.40475 29.933102 222.186 28.667477Q220.96725 27.401852 220.96725 25.276852L220.96725 24.964352Q220.96725 23.558102 221.51413 22.448727Q222.061 21.339352 223.02975 20.714352Q223.9985 20.073727 225.1235 20.073727Q226.98288 20.073727 228.01413 21.292477Q229.04538 22.511227 229.04538 24.792477L229.04538 25.464352L222.59225 25.464352Q222.63913 26.870602 223.42038 27.745602Q224.20163 28.604977 225.42038 28.604977Q226.27975 28.604977 226.8735 28.261227Q227.48288 27.901852 227.92038 27.323727L228.92038 28.104977Q227.71725 29.933102 225.32663 29.933102ZM225.1235 21.417477Q224.13913 21.417477 223.46725 22.136227Q222.811 22.839352 222.65475 24.136227L227.42038 24.136227L227.42038 24.011227Q227.34225 22.776852 226.7485 22.104977Q226.15475 21.417477 225.1235 21.417477ZM239.811 27.526852L241.63913 20.245602L243.26413 20.245602L240.4985 29.761227L239.17038 29.761227L236.85788 22.558102L234.60788 29.761227L233.29538 29.761227L230.52975 20.245602L232.15475 20.245602L234.02975 27.370602L236.23288 20.245602L237.54538 20.245602L239.811 27.526852ZM250.92038 27.245602Q250.92038 26.573727 250.42038 26.214352Q249.936 25.854977 248.70163 25.589352Q247.46725 25.323727 246.73288 24.964352Q246.01413 24.589352 245.65475 24.073727Q245.311 23.558102 245.311 22.854977Q245.311 21.698727 246.29538 20.886227Q247.29538 20.073727 248.82663 20.073727Q250.45163 20.073727 251.45163 20.917477Q252.46725 21.745602 252.46725 23.042477L250.82663 23.042477Q250.82663 22.370602 250.2485 21.901852Q249.686 21.417477 248.82663 21.417477Q247.936 21.417477 247.436 21.808102Q246.936 22.183102 246.936 22.808102Q246.936 23.401852 247.40475 23.698727Q247.8735 23.995602 249.09225 24.276852Q250.311 24.542477 251.061 24.917477Q251.82663 25.292477 252.186 25.823727Q252.54538 26.354977 252.54538 27.120602Q252.54538 28.401852 251.52975 29.167477Q250.51413 29.933102 248.88913 29.933102Q247.7485 29.933102 246.85788 29.526852Q245.98288 29.120602 245.48288 28.401852Q244.98288 27.683102 244.98288 26.839352L246.6235 26.839352Q246.65475 27.651852 247.26413 28.136227Q247.88913 28.604977 248.88913 28.604977Q249.811 28.604977 250.35788 28.229977Q250.92038 27.854977 250.92038 27.245602ZM266.811 27.526852L268.63913 20.245602L270.26413 20.245602L267.4985 29.761227L266.17038 29.761227L263.85788 22.558102L261.60788 29.761227L260.29538 29.761227L257.52975 20.245602L259.15475 20.245602L261.02975 27.370602L263.23288 20.245602L264.54538 20.245602L266.811 27.526852ZM274.01413 21.401852Q275.09225 20.073727 276.82663 20.073727Q279.84225 20.073727 279.85788 23.479977L279.85788 29.761227L278.23288 29.761227L278.23288 23.464352Q278.23288 22.433102 277.76413 21.948727Q277.311 21.448727 276.32663 21.448727Q275.54538 21.448727 274.936 21.870602Q274.34225 22.292477 274.01413 22.979977L274.01413 29.761227L272.38913 29.761227L272.38913 16.261227L274.01413 16.261227L274.01413 21.401852ZM284.15475 29.761227L282.52975 29.761227L282.52975 20.245602L284.15475 20.245602L284.15475 29.761227ZM282.38913 17.729977Q282.38913 17.339352 282.6235 17.073727Q282.8735 16.792477 283.34225 16.792477Q283.82663 16.792477 284.07663 17.073727Q284.32663 17.339352 284.32663 17.729977Q284.32663 18.120602 284.07663 18.386227Q283.82663 18.651852 283.34225 18.651852Q282.8735 18.651852 282.6235 18.386227Q282.38913 18.120602 282.38913 17.729977ZM288.15475 29.761227L286.52975 29.761227L286.52975 16.261227L288.15475 16.261227L288.15475 29.761227ZM294.32663 29.933102Q292.40475 29.933102 291.186 28.667477Q289.96725 27.401852 289.96725 25.276852L289.96725 24.964352Q289.96725 23.558102 290.51413 22.448727Q291.061 21.339352 292.02975 20.714352Q292.9985 20.073727 294.1235 20.073727Q295.98288 20.073727 297.01413 21.292477Q298.04538 22.511227 298.04538 24.792477L298.04538 25.464352L291.59225 25.464352Q291.63913 26.870602 292.42038 27.745602Q293.20163 28.604977 294.42038 28.604977Q295.27975 28.604977 295.8735 28.261227Q296.48288 27.901852 296.92038 27.323727L297.92038 28.104977Q296.71725 29.933102 294.32663 29.933102ZM294.1235 21.417477Q293.13913 21.417477 292.46725 22.136227Q291.811 22.839352 291.65475 24.136227L296.42038 24.136227L296.42038 24.011227Q296.34225 22.776852 295.7485 22.104977Q295.15475 21.417477 294.1235 21.417477ZM305.92038 20.245602L305.95163 21.308102Q306.9985 20.073727 308.77975 20.073727Q310.77975 20.073727 311.4985 21.604977Q311.96725 20.917477 312.73288 20.495602Q313.4985 20.073727 314.52975 20.073727Q317.65475 20.073727 317.71725 23.386227L317.71725 29.761227L316.07663 29.761227L316.07663 23.479977Q316.07663 22.464352 315.60788 21.964352Q315.15475 21.448727 314.061 21.448727Q313.15475 21.448727 312.54538 21.995602Q311.95163 22.542477 311.85788 23.448727L311.85788 29.761227L310.21725 29.761227L310.21725 23.526852Q310.21725 21.448727 308.186 21.448727Q306.59225 21.448727 305.9985 22.823727L305.9985 29.761227L304.3735 29.761227L304.3735 20.245602L305.92038 20.245602ZM326.26413 29.761227Q326.1235 29.479977 326.02975 28.761227Q324.88913 29.933102 323.32663 29.933102Q321.92038 29.933102 321.01413 29.136227Q320.10788 28.339352 320.10788 27.120602Q320.10788 25.636227 321.23288 24.823727Q322.3735 23.995602 324.42038 23.995602L325.9985 23.995602L325.9985 23.245602Q325.9985 22.401852 325.48288 21.901852Q324.98288 21.386227 323.98288 21.386227Q323.1235 21.386227 322.52975 21.823727Q321.936 22.261227 321.936 22.886227L320.311 22.886227Q320.311 22.183102 320.811 21.526852Q321.311 20.854977 322.17038 20.464352Q323.04538 20.073727 324.09225 20.073727Q325.73288 20.073727 326.65475 20.901852Q327.59225 21.714352 327.6235 23.167477L327.6235 27.542477Q327.6235 28.839352 327.96725 29.620602L327.96725 29.761227L326.26413 29.761227ZM323.561 28.526852Q324.32663 28.526852 325.01413 28.136227Q325.70163 27.729977 325.9985 27.104977L325.9985 25.151852L324.73288 25.151852Q321.73288 25.151852 321.73288 26.901852Q321.73288 27.667477 322.2485 28.104977Q322.76413 28.526852 323.561 28.526852ZM333.04538 25.354977L332.01413 26.417477L332.01413 29.761227L330.38913 29.761227L330.38913 16.261227L332.01413 16.261227L332.01413 24.433102L332.88913 23.386227L335.85788 20.245602L337.82663 20.245602L334.1235 24.229977L338.26413 29.761227L336.35788 29.761227L333.04538 25.354977ZM341.15475 29.761227L339.52975 29.761227L339.52975 20.245602L341.15475 20.245602L341.15475 29.761227ZM339.38913 17.729977Q339.38913 17.339352 339.6235 17.073727Q339.8735 16.792477 340.34225 16.792477Q340.82663 16.792477 341.07663 17.073727Q341.32663 17.339352 341.32663 17.729977Q341.32663 18.120602 341.07663 18.386227Q340.82663 18.651852 340.34225 18.651852Q339.8735 18.651852 339.6235 18.386227Q339.38913 18.120602 339.38913 17.729977ZM344.92038 20.245602L344.98288 21.448727Q346.061 20.073727 347.82663 20.073727Q350.84225 20.073727 350.85788 23.479977L350.85788 29.761227L349.23288 29.761227L349.23288 23.464352Q349.23288 22.433102 348.76413 21.948727Q348.311 21.448727 347.32663 21.448727Q346.54538 21.448727 345.936 21.870602Q345.34225 22.292477 345.01413 22.979977L345.01413 29.761227L343.38913 29.761227L343.38913 20.245602L344.92038 20.245602ZM352.9985 24.933102Q352.9985 22.698727 354.02975 21.386227Q355.061 20.073727 356.7485 20.073727Q358.4985 20.073727 359.46725 21.308102L359.54538 20.245602L361.02975 20.245602L361.02975 29.526852Q361.02975 31.386227 359.936 32.448727Q358.84225 33.511227 356.9985 33.511227Q355.96725 33.511227 354.98288 33.0581Q353.9985 32.6206 353.48288 31.854977L354.32663 30.886227Q355.3735 32.1831 356.88913 32.1831Q358.07663 32.1831 358.73288 31.511227Q359.40475 30.839352 359.40475 29.636227L359.40475 28.808102Q358.42038 29.933102 356.73288 29.933102Q355.061 29.933102 354.02975 28.589352Q352.9985 27.245602 352.9985 24.933102ZM354.63913 25.104977Q354.63913 26.714352 355.29538 27.636227Q355.95163 28.558102 357.13913 28.558102Q358.67038 28.558102 359.40475 27.151852L359.40475 22.823727Q358.65475 21.448727 357.15475 21.448727Q355.96725 21.448727 355.29538 22.386227Q354.63913 23.308102 354.63913 25.104977Z" fill-rule="nonzero"/></svg>