<svg id="undraw_design_feedback_dexe_1_" data-name="undraw_design_feedback_dexe (1)" xmlns="http://www.w3.org/2000/svg" width="1114.249" height="608.511" viewBox="0 0 1114.249 608.511">
  <defs>
    <style>
      .cls-1 {
        fill: #18233e;
      }

      .cls-2 {
        fill: #ab967a;
      }

      .cls-3 {
        fill: #d0cde1;
      }

      .cls-4 {
        fill: #3f3d56;
      }

      .cls-5 {
        fill: #ff533d;
      }

      .cls-6 {
        fill: #413c2e;
      }

      .cls-7 {
        fill: #0f1626;
      }

      .cls-8 {
        fill: #ffb8b8;
      }

      .cls-9 {
        fill: #f5f5f5;
      }
    </style>
  </defs>
  <rect id="Rectangle_1" data-name="Rectangle 1" class="cls-1" width="757.902" height="492.407" transform="translate(356.347 63.166)"/>
  <rect id="Rectangle_2" data-name="Rectangle 2" class="cls-2" width="57.876" height="497" transform="translate(333.38 60.41)"/>
  <rect id="Rectangle_3" data-name="Rectangle 3" class="cls-3" width="151.58" height="1.837" transform="translate(502.415 197.292)"/>
  <path id="Path_1" data-name="Path 1" class="cls-3" d="M1042.29,609.45H833.753V414.692H1042.29Zm-206.7-1.837h204.863V416.529H835.59Z" transform="translate(-42.876 -145.744)"/>
  <rect id="Rectangle_4" data-name="Rectangle 4" class="cls-3" width="1.838" height="282.743" transform="matrix(0.682, -0.731, 0.731, 0.682, 791.169, 270.543)"/>
  <rect id="Rectangle_5" data-name="Rectangle 5" class="cls-3" width="282.743" height="1.838" transform="matrix(0.731, -0.682, 0.682, 0.731, 791.164, 462.114)"/>
  <rect id="Rectangle_6" data-name="Rectangle 6" class="cls-3" width="214.05" height="1.837" transform="translate(502.415 332.336)"/>
  <rect id="Rectangle_7" data-name="Rectangle 7" class="cls-3" width="214.05" height="1.837" transform="translate(502.415 365.408)"/>
  <rect id="Rectangle_8" data-name="Rectangle 8" class="cls-3" width="214.05" height="1.837" transform="translate(502.415 398.48)"/>
  <circle id="Ellipse_1" data-name="Ellipse 1" class="cls-4" cx="19.41" cy="19.41" r="19.41" transform="translate(661.298 0)"/>
  <circle id="Ellipse_2" data-name="Ellipse 2" class="cls-5" cx="19.41" cy="19.41" r="19.41" transform="translate(715.888 0)"/>
  <circle id="Ellipse_3" data-name="Ellipse 3" class="cls-2" cx="19.41" cy="19.41" r="19.41" transform="translate(770.478 0)"/>
  <rect id="Rectangle_9" data-name="Rectangle 9" class="cls-4" width="652.894" height="2.315" transform="translate(0 606.196)"/>
  <path id="Path_20" data-name="Path 20" class="cls-6" d="M12.772,0A12.772,12.772,0,1,1,0,12.772,12.772,12.772,0,0,1,12.772,0Z" transform="translate(179.922 200.43)"/>
  <ellipse id="Ellipse_5" data-name="Ellipse 5" class="cls-6" cx="36.651" cy="40.209" rx="36.651" ry="40.209" transform="translate(183.013 130.892)"/>
  <path id="Path_2" data-name="Path 2" class="cls-1" d="M236.752,489.742l-.946,4.73s-2.838,2.838-1.419,4.257.946,8.042.946,8.042l-2.838,18.449-16.557,74.741s-21.76,14.191-38.79,42.1-17.5,35.005-17.5,35.005l18.922,8.042,47.3-57.238s13.245-8.042,17.976-15.137,34.059-80.417,34.059-80.417l16.556,76.633s-.946,27.909,3.311,45.885a192.52,192.52,0,0,1,4.73,34.532L324.738,687s-1.419-67.172-3.784-74.268c0,0,9.934-81.836-9.934-114.476L299.193,450.48l-19.868-.946Z" transform="translate(-42.876 -145.744)"/>
  <path id="Path_3" data-name="Path 3" class="cls-7" d="M182.352,683.217,158.7,668.553l-10.88,20.814s-24.125,14.664-18.922,25.544,9.934,13.718,9.934,13.718l3.311-1.419,6.15,11.353s16.083,23.179,42.1,11.353a9.508,9.508,0,0,0,0-11.353c-4.257-6.15-15.137-19.395-15.137-19.395Z" transform="translate(-42.876 -145.744)"/>
  <path id="Path_4" data-name="Path 4" class="cls-7" d="M327.1,683.69l-26.017,1.892,2.838,21.287s-12.3,30.275-3.784,32.64a124.724,124.724,0,0,0,18.449,3.311l.946-3.311s36.424,19.868,49.669,5.2c0,0,2.838-10.407-5.2-13.718s-23.652-10.407-25.544-14.191S327.1,683.69,327.1,683.69Z" transform="translate(-42.876 -145.744)"/>
  <circle id="Ellipse_6" data-name="Ellipse 6" class="cls-8" cx="22.706" cy="22.706" r="22.706" transform="translate(198.134 154.781)"/>
  <path id="Path_5" data-name="Path 5" class="cls-8" d="M246.686,336.95s2.838,18.449-11.353,25.544S272.7,378.1,272.7,378.1s-8.042-12.3-6.623-16.556,8.515-21.287,8.515-21.287Z" transform="translate(-42.876 -145.744)"/>
  <path id="Path_6" data-name="Path 6" class="cls-2" d="M242.9,362.967s-13.718-8.042-18.449-4.257-6.15,119.68,10.88,124.41l.473,6.15s-6.15,2.838-.473,2.838,32.167-19.395,33.113-26.49,28.383-8.515,28.383-8.515,7.1,30.275,9.461,29.329,2.365-21.287,1.419-24.125,10.88-11.826,7.569-17.5-12.3-25.071-12.3-25.071.946-12.3-11.826-23.652c0,0-3.733-21.13-20.551-21.445S242.9,362.967,242.9,362.967Z" transform="translate(-42.876 -145.744)"/>
  <path id="Path_7" data-name="Path 7" class="cls-6" d="M198.233,149.855v25.954h6.01l7.649-8.2-1.024,8.2h26.568l-1.639-8.2,3.278,8.2h4.234V149.855Z"/>
  <rect id="Rectangle_10" data-name="Rectangle 10" class="cls-5" width="196" height="179" transform="translate(57.814 382.41)"/>
  <path id="Path_8" data-name="Path 8" class="cls-1" d="M216.748,621.361c-16.523,26.975-10.838,60.53-10.838,60.53s32.474-10.181,49-37.157,10.838-60.53,10.838-60.53S233.271,594.385,216.748,621.361Z" transform="translate(-42.876 -145.744)"/>
  <path id="Path_9" data-name="Path 9" class="cls-2" d="M205.235,682.113l-.939-.149c-.34-.054-34.155-5.657-54.407-29.887s-19.764-58.5-19.758-58.848l.02-.951.939.149c.34.054,34.155,5.657,54.407,29.888h0c20.252,24.23,19.764,58.5,19.758,58.847Z" transform="translate(-42.876 -145.744)"/>
  <circle id="Ellipse_7" data-name="Ellipse 7" class="cls-1" cx="18.257" cy="18.257" r="18.257" transform="translate(145.808 412.224)"/>
  <path id="Path_10" data-name="Path 10" class="cls-8" d="M207.423,478.389l5.677,42.1s-3.311,36.9,9.461,37.37,4.73-37.843,4.73-37.843L225.872,481.7S215.465,464.671,207.423,478.389Z" transform="translate(-42.876 -145.744)"/>
  <path id="Path_11" data-name="Path 11" class="cls-2" d="M228.71,361.548s-3.311-8.988-10.407-1.892-13.245,25.544-13.245,36.9,1.419,77.106,1.419,77.106-7.569,2.838-2.365,7.1,12.3-2.365,12.3-2.365,9.461,6.623,10.407,6.623.473-8.042.473-8.042,4.73-12.3,3.784-21.76S228.71,361.548,228.71,361.548Z" transform="translate(-42.876 -145.744)"/>
  <path id="Path_12" data-name="Path 12" class="cls-3" d="M1042.29,317.313H544.372V283.322H1042.29Zm-496.081-1.837h494.244V285.16H546.209Z" transform="translate(-42.876 -145.744)"/>
  <path id="Path_13" data-name="Path 13" class="cls-2" d="M152.69,577.154h-49c3.783-15.222,3.326-31.69,0-49h49Q142.4,552.654,152.69,577.154Z" transform="translate(-42.876 -145.744)"/>
  <rect id="Rectangle_11" data-name="Rectangle 11" class="cls-9" width="29.697" height="5.939" transform="translate(68.239 392.804)"/>
  <rect id="Rectangle_12" data-name="Rectangle 12" class="cls-9" width="29.697" height="5.939" transform="translate(68.239 404.683)"/>
  <rect id="Rectangle_13" data-name="Rectangle 13" class="cls-9" width="29.697" height="5.939" transform="translate(68.239 416.561)"/>
  <path id="Path_14" data-name="Path 14" class="cls-2" d="M593.69,385.154h-49c3.783-15.222,3.326-31.69,0-49h49Q583.4,360.654,593.69,385.154Z" transform="translate(-42.876 -145.744)"/>
  <rect id="Rectangle_14" data-name="Rectangle 14" class="cls-9" width="29.697" height="5.939" transform="translate(509.239 200.804)"/>
  <rect id="Rectangle_15" data-name="Rectangle 15" class="cls-9" width="29.697" height="5.939" transform="translate(509.239 212.683)"/>
  <rect id="Rectangle_16" data-name="Rectangle 16" class="cls-9" width="29.697" height="5.939" transform="translate(509.239 224.561)"/>
  <path id="Path_15" data-name="Path 15" class="cls-2" d="M962.69,459.154h-49c3.783-15.222,3.326-31.69,0-49h49Q952.4,434.654,962.69,459.154Z" transform="translate(-42.876 -145.744)"/>
  <rect id="Rectangle_17" data-name="Rectangle 17" class="cls-9" width="29.697" height="5.939" transform="translate(878.239 274.804)"/>
  <rect id="Rectangle_18" data-name="Rectangle 18" class="cls-9" width="29.697" height="5.939" transform="translate(878.239 286.683)"/>
  <rect id="Rectangle_19" data-name="Rectangle 19" class="cls-9" width="29.697" height="5.939" transform="translate(878.239 298.561)"/>
  <path id="Path_16" data-name="Path 16" class="cls-2" d="M1025.69,354.154h-49c3.783-15.222,3.326-31.69,0-49h49Q1015.4,329.654,1025.69,354.154Z" transform="translate(-42.876 -145.744)"/>
  <rect id="Rectangle_20" data-name="Rectangle 20" class="cls-9" width="29.697" height="5.939" transform="translate(941.239 169.804)"/>
  <rect id="Rectangle_21" data-name="Rectangle 21" class="cls-9" width="29.697" height="5.939" transform="translate(941.239 181.683)"/>
  <rect id="Rectangle_22" data-name="Rectangle 22" class="cls-9" width="29.697" height="5.939" transform="translate(941.239 193.561)"/>
  <path id="Path_17" data-name="Path 17" class="cls-9" d="M418.194,409.654h-26v-26h26Zm-24-2h22v-22h-22Z" transform="translate(-42.876 -145.744)"/>
  <path id="Path_18" data-name="Path 18" class="cls-9" d="M418.69,467.654h-26v-26h26Zm-24-2h22v-22h-22Z" transform="translate(-42.876 -145.744)"/>
  <path id="Path_19" data-name="Path 19" class="cls-9" d="M419.186,525.654h-26v-26h26Zm-24-2h22v-22h-22Z" transform="translate(-42.876 -145.744)"/>
  <circle id="Ellipse_8" data-name="Ellipse 8" class="cls-5" cx="8" cy="8" r="8" transform="translate(342.814 346.41)"/>
</svg>
