<svg xmlns="http://www.w3.org/2000/svg" width="128.99" height="103.192" viewBox="0 0 128.99 103.192">
  <path id="user-check-solid" d="M45.147,51.6a25.8,25.8,0,1,0-25.8-25.8A25.8,25.8,0,0,0,45.147,51.6Zm18.059,6.45H59.839a35.084,35.084,0,0,1-29.386,0H27.088A27.1,27.1,0,0,0,0,85.134v8.384a9.677,9.677,0,0,0,9.674,9.674H80.619a9.677,9.677,0,0,0,9.674-9.674V85.134A27.1,27.1,0,0,0,63.205,58.046Zm65.1-25.879L122.7,26.5a2.39,2.39,0,0,0-3.386-.02L98.194,47.444l-9.17-9.231a2.39,2.39,0,0,0-3.386-.02l-5.663,5.623a2.39,2.39,0,0,0-.02,3.386L96.42,63.79a2.39,2.39,0,0,0,3.386.02l28.479-28.257A2.409,2.409,0,0,0,128.305,32.167Z" fill="#18233e"/>
</svg>
