<svg xmlns="http://www.w3.org/2000/svg" xmlns:xlink="http://www.w3.org/1999/xlink" width="157.794" height="117.356" viewBox="0 0 157.794 117.356">
  <defs>
    <filter id="users-solid" x="0" y="0" width="157.794" height="117.356" filterUnits="userSpaceOnUse">
      <feOffset dy="3" input="SourceAlpha"/>
      <feGaussianBlur stdDeviation="3" result="blur"/>
      <feFlood flood-opacity="0.161"/>
      <feComposite operator="in" in2="blur"/>
      <feComposite in="SourceGraphic"/>
    </filter>
  </defs>
  <g transform="matrix(1, 0, 0, 1, 0, 0)" filter="url(#users-solid)">
    <path id="users-solid-2" data-name="users-solid" d="M20.219,72.438A13.479,13.479,0,1,0,6.74,58.959,13.492,13.492,0,0,0,20.219,72.438Zm94.356,0A13.479,13.479,0,1,0,101.1,58.959,13.492,13.492,0,0,0,114.575,72.438Zm6.74,6.74H107.836a13.44,13.44,0,0,0-9.5,3.917,30.807,30.807,0,0,1,15.817,23.041h13.9a6.732,6.732,0,0,0,6.74-6.74v-6.74A13.492,13.492,0,0,0,121.315,79.178Zm-53.918,0A23.589,23.589,0,1,0,43.808,55.589,23.577,23.577,0,0,0,67.4,79.178Zm16.175,6.74H81.824a32.568,32.568,0,0,1-28.854,0H51.222a24.269,24.269,0,0,0-24.263,24.263v6.066a10.112,10.112,0,0,0,10.11,10.11H97.726a10.112,10.112,0,0,0,10.11-10.11v-6.066A24.269,24.269,0,0,0,83.573,85.918ZM36.458,83.1a13.44,13.44,0,0,0-9.5-3.917H13.479A13.492,13.492,0,0,0,0,92.657V99.4a6.732,6.732,0,0,0,6.74,6.74h13.88A30.885,30.885,0,0,1,36.458,83.1Z" transform="translate(11.5 -23.5)" fill="#18233e" stroke="#18233e" stroke-width="5"/>
  </g>
</svg>
