<svg id="undraw_composition_re_4o4o" xmlns="http://www.w3.org/2000/svg" width="217.739" height="172.184" viewBox="0 0 217.739 172.184">
  <path id="Path_1" data-name="Path 1" d="M284.9,446.846c.3.633.62,1.269.947,1.89l.31-.163c-.325-.616-.641-1.248-.941-1.877Z" transform="translate(-268.122 -361.569)" fill="#ff533d"/>
  <path id="Path_2" data-name="Path 2" d="M291.635,459.585c.352.608.721,1.216,1.1,1.809l.3-.187c-.373-.589-.739-1.193-1.09-1.8Z" transform="translate(-272.89 -370.568)" fill="#ff533d"/>
  <path id="Path_3" data-name="Path 3" d="M279.214,433.621c.249.653.515,1.312.791,1.958l.323-.138c-.274-.642-.539-1.3-.786-1.945Z" transform="translate(-264.1 -352.228)" fill="#ff533d"/>
  <path id="Path_4" data-name="Path 4" d="M299.391,471.744c.4.577.817,1.154,1.239,1.716l.28-.211c-.42-.557-.834-1.131-1.231-1.7Z" transform="translate(-278.38 -379.155)" fill="#ff533d"/>
  <path id="Path_5" data-name="Path 5" d="M425.512,190.719l.042.348v0c.693-.085,1.4-.156,2.094-.213l-.029-.351C426.919,190.562,426.21,190.634,425.512,190.719Z" transform="translate(-367.64 -180.255)" fill="#ff533d"/>
  <path id="Path_6" data-name="Path 6" d="M268,377.309l-.351.014c.029.7.072,1.413.128,2.115l.35-.028C268.071,378.714,268.029,378.007,268,377.309Z" transform="translate(-255.915 -312.462)" fill="#ff533d"/>
  <path id="Path_7" data-name="Path 7" d="M274.613,419.942c.2.675.408,1.355.632,2.022l.333-.111c-.222-.662-.433-1.338-.628-2.008Z" transform="translate(-260.843 -342.566)" fill="#ff533d"/>
  <path id="Path_8" data-name="Path 8" d="M267.849,364.928c0-.681.013-1.369.039-2.046l-.351-.013c-.026.681-.039,1.374-.039,2.058v.058h.351Z" transform="translate(-255.808 -302.243)" fill="#ff533d"/>
  <path id="Path_9" data-name="Path 9" d="M268.819,391.7c.085.7.185,1.4.3,2.1l.346-.056c-.112-.688-.211-1.388-.3-2.083Z" transform="translate(-256.743 -322.618)" fill="#ff533d"/>
  <path id="Path_10" data-name="Path 10" d="M268.4,350.556c.055-.7.125-1.4.205-2.094l-.348-.042c-.083.7-.153,1.406-.208,2.108l.351.027Z" transform="translate(-256.201 -292.017)" fill="#ff533d"/>
  <path id="Path_11" data-name="Path 11" d="M308.1,483.262c.444.542.906,1.086,1.374,1.612l.262-.233c-.464-.523-.923-1.062-1.364-1.6Z" transform="translate(-284.544 -387.292)" fill="#ff533d"/>
  <path id="Path_12" data-name="Path 12" d="M404.528,543.929c.682.167,1.377.322,2.067.462l.069-.344c-.686-.138-1.376-.293-2.053-.459Z" transform="translate(-352.789 -430.143)" fill="#ff533d"/>
  <path id="Path_13" data-name="Path 13" d="M397.141,195.719l.1.337c.67-.2,1.353-.378,2.032-.547l-.084-.34C398.5,195.339,397.816,195.523,397.141,195.719Z" transform="translate(-347.561 -183.556)" fill="#ff533d"/>
  <path id="Path_14" data-name="Path 14" d="M411.209,192.646l.071.343h0c.684-.14,1.379-.267,2.069-.381l-.056-.346C412.6,192.376,411.9,192.5,411.209,192.646Z" transform="translate(-357.517 -181.499)" fill="#ff533d"/>
  <path id="Path_15" data-name="Path 15" d="M418.732,546.793c.693.11,1.4.208,2.1.292l.041-.346c-.694-.084-1.4-.182-2.084-.292Z" transform="translate(-362.841 -432.167)" fill="#ff533d"/>
  <path id="Path_16" data-name="Path 16" d="M390.6,539.932c.666.222,1.347.433,2.023.628l.1-.337c-.672-.194-1.348-.4-2.009-.624Z" transform="translate(-342.933 -427.32)" fill="#ff533d"/>
  <path id="Path_17" data-name="Path 17" d="M328.166,504.037c.526.468,1.069.929,1.614,1.374l.223-.272c-.541-.442-1.08-.9-1.6-1.364Z" transform="translate(-298.745 -401.966)" fill="#ff533d"/>
  <path id="Path_18" data-name="Path 18" d="M339.4,513.17c.561.422,1.14.839,1.719,1.24l.2-.288c-.576-.4-1.151-.813-1.708-1.232Z" transform="translate(-306.695 -408.417)" fill="#ff533d"/>
  <path id="Path_19" data-name="Path 19" d="M317.966,493.8l-.253.243c.488.507.992,1.011,1.5,1.5l.243-.253C318.951,494.807,318.451,494.306,317.966,493.8Z" transform="translate(-291.347 -394.908)" fill="#ff533d"/>
  <path id="Path_20" data-name="Path 20" d="M377.014,534.81c.649.276,1.312.543,1.97.792l.126-.327c-.655-.247-1.313-.512-1.958-.787Z" transform="translate(-333.316 -423.704)" fill="#ff533d"/>
  <path id="Path_21" data-name="Path 21" d="M363.893,528.607c.622.327,1.261.646,1.9.949l.15-.317c-.633-.3-1.267-.617-1.885-.942Z" transform="translate(-324.03 -419.321)" fill="#ff533d"/>
  <path id="Path_22" data-name="Path 22" d="M351.333,521.378c.593.376,1.2.745,1.814,1.1l.175-.3c-.607-.351-1.213-.718-1.8-1.091Z" transform="translate(-315.141 -414.215)" fill="#ff533d"/>
  <path id="Path_23" data-name="Path 23" d="M271.142,405.937c.141.688.3,1.383.466,2.066l.34-.084c-.167-.679-.323-1.369-.462-2.053Z" transform="translate(-258.387 -332.674)" fill="#ff533d"/>
  <path id="Path_24" data-name="Path 24" d="M345.3,219.317c.574-.4,1.163-.789,1.751-1.162l-.188-.3c-.592.375-1.185.768-1.763,1.169l.2.288Z" transform="translate(-310.732 -199.614)" fill="#ff533d"/>
  <path id="Path_25" data-name="Path 25" d="M270.117,336.253c.111-.69.236-1.386.374-2.07l-.344-.069c-.139.689-.266,1.39-.377,2.084l.346.056Z" transform="translate(-257.417 -281.891)" fill="#ff533d"/>
  <path id="Path_26" data-name="Path 26" d="M314.358,245.566l-.253-.243c-.487.508-.97,1.032-1.436,1.558l.263.234C313.394,246.591,313.875,246.07,314.358,245.566Z" transform="translate(-287.777 -219.051)" fill="#ff533d"/>
  <path id="Path_27" data-name="Path 27" d="M96.036,85.629h0Z" transform="translate(-67.968 -60.603)" fill="#ff533d"/>
  <path id="Path_28" data-name="Path 28" d="M359.334,210.907l-.164-.31c-.622.327-1.244.672-1.85,1.023l.175.3C358.1,211.575,358.716,211.232,359.334,210.907Z" transform="translate(-319.378 -194.475)" fill="#ff533d"/>
  <path id="Path_29" data-name="Path 29" d="M324.494,235.543l-.234-.263c-.526.467-1.049.951-1.555,1.438l.243.253C323.451,236.486,323.97,236.006,324.494,235.543Z" transform="translate(-294.88 -211.944)" fill="#ff533d"/>
  <path id="Path_30" data-name="Path 30" d="M624.594,342.748c-.085-.7-.186-1.4-.3-2.1l-.346.057c.113.69.213,1.391.3,2.083Z" transform="translate(-508.079 -286.518)" fill="#ff533d"/>
  <path id="Path_31" data-name="Path 31" d="M625.825,357.162l.351-.015c-.029-.7-.072-1.413-.13-2.114l-.351.029C625.752,355.759,625.8,356.466,625.825,357.162Z" transform="translate(-509.316 -296.697)" fill="#ff533d"/>
  <path id="Path_32" data-name="Path 32" d="M385.505,199.551l-.111-.333c-.667.224-1.338.464-1.994.714l.125.328C384.177,200.012,384.843,199.773,385.505,199.551Z" transform="translate(-337.836 -186.421)" fill="#ff533d"/>
  <path id="Path_33" data-name="Path 33" d="M370.262,205.559c.628-.3,1.271-.591,1.912-.865l-.138-.321c-.645.276-1.293.569-1.926.871l.151.317Z" transform="translate(-328.43 -190.069)" fill="#ff533d"/>
  <path id="Path_34" data-name="Path 34" d="M333.76,227.683c.54-.442,1.1-.88,1.653-1.3l-.211-.28c-.56.422-1.12.862-1.664,1.308l.222.271Z" transform="translate(-302.546 -205.449)" fill="#ff533d"/>
  <path id="Path_35" data-name="Path 35" d="M55.391,144.553h0Z" transform="translate(-39.2 -102.304)" fill="#ff533d"/>
  <path id="Path_36" data-name="Path 36" d="M282.984,293.045l-.317-.15c-.3.637-.595,1.288-.87,1.936l.319.136C282.391,294.324,282.681,293.677,282.984,293.045Z" transform="translate(-265.928 -252.72)" fill="#ff533d"/>
  <path id="Path_37" data-name="Path 37" d="M272.979,322.168c.166-.678.348-1.362.541-2.031l-.337-.1c-.194.675-.378,1.363-.544,2.046l.341.083Z" transform="translate(-259.446 -271.931)" fill="#ff533d"/>
  <path id="Path_38" data-name="Path 38" d="M277.688,306.385l-.328-.124c-.25.66-.489,1.334-.711,2l.333.111C277.2,307.71,277.439,307.041,277.688,306.385Z" transform="translate(-262.284 -262.179)" fill="#ff533d"/>
  <path id="Path_39" data-name="Path 39" d="M61.571,131.517h0Z" transform="translate(-43.574 -93.078)" fill="#ff533d"/>
  <path id="Path_40" data-name="Path 40" d="M86.069,96.019h0Z" transform="translate(-60.913 -67.956)" fill="#ff533d"/>
  <path id="Path_41" data-name="Path 41" d="M305.088,256.4l-.272-.222c-.444.544-.884,1.106-1.307,1.669l.279.21C304.209,257.5,304.645,256.944,305.088,256.4Z" transform="translate(-281.295 -226.736)" fill="#ff533d"/>
  <path id="Path_42" data-name="Path 42" d="M289.34,280.211l-.3-.175c-.351.61-.7,1.235-1.023,1.859l.309.162C288.647,281.437,288.989,280.818,289.34,280.211Z" transform="translate(-270.327 -243.619)" fill="#ff533d"/>
  <path id="Path_43" data-name="Path 43" d="M76.965,107.176h0Z" transform="translate(-54.469 -75.851)" fill="#ff533d"/>
  <path id="Path_44" data-name="Path 44" d="M296.728,267.973l-.288-.2c-.4.579-.793,1.174-1.169,1.769l.3.187C295.939,269.139,296.329,268.548,296.728,267.973Z" transform="translate(-275.463 -234.941)" fill="#ff533d"/>
  <path id="Path_45" data-name="Path 45" d="M68.779,119.033h0Z" transform="translate(-48.676 -84.243)" fill="#ff533d"/>
  <path id="Path_46" data-name="Path 46" d="M590.579,261.562l-.28.211c.42.556.835,1.13,1.233,1.7l.288-.2C591.419,262.7,591,262.122,590.579,261.562Z" transform="translate(-484.265 -230.544)" fill="#ff533d"/>
  <path id="Path_47" data-name="Path 47" d="M594.637,467.273l.289.2h0c.4-.58.795-1.175,1.171-1.769l-.3-.188C595.426,466.106,595.035,466.7,594.637,467.273Z" transform="translate(-487.335 -374.89)" fill="#ff533d"/>
  <path id="Path_48" data-name="Path 48" d="M598.794,273.457l-.3.188c.374.588.741,1.192,1.092,1.8l.3-.176C599.54,274.655,599.17,274.049,598.794,273.457Z" transform="translate(-490.068 -238.963)" fill="#ff533d"/>
  <path id="Path_49" data-name="Path 49" d="M606.026,285.973l-.31.164c.326.616.643,1.247.943,1.876l.317-.151C606.673,287.23,606.354,286.593,606.026,285.973Z" transform="translate(-495.176 -247.821)" fill="#ff533d"/>
  <path id="Path_50" data-name="Path 50" d="M602.35,454.892l.3.175h0c.354-.611.7-1.234,1.024-1.857l-.31-.163C603.044,453.664,602.7,454.285,602.35,454.892Z" transform="translate(-492.794 -366.065)" fill="#ff533d"/>
  <path id="Path_51" data-name="Path 51" d="M581.434,250.362l-.263.234c.464.522.923,1.06,1.366,1.6l.271-.223C582.363,251.429,581.9,250.888,581.434,250.362Z" transform="translate(-477.804 -222.618)" fill="#ff533d"/>
  <path id="Path_52" data-name="Path 52" d="M587.272,477.372c-.419.557-.857,1.114-1.3,1.656l.272.222h0c.446-.544.887-1.105,1.309-1.666Z" transform="translate(-481.202 -383.28)" fill="#ff533d"/>
  <path id="Path_53" data-name="Path 53" d="M567.569,498.893c-.5.483-1.024.964-1.546,1.427l.233.262c.526-.466,1.049-.949,1.556-1.435Z" transform="translate(-467.084 -398.511)" fill="#ff533d"/>
  <path id="Path_54" data-name="Path 54" d="M571.426,239.928l-.243.253c.5.483,1.005.982,1.491,1.486l.252-.243C572.437,240.917,571.932,240.414,571.426,239.928Z" transform="translate(-470.736 -215.233)" fill="#ff533d"/>
  <path id="Path_55" data-name="Path 55" d="M609.068,441.941l.317.151h0c.3-.636.6-1.287.871-1.935l-.321-.138C609.66,440.663,609.368,441.31,609.068,441.941Z" transform="translate(-497.548 -356.844)" fill="#ff533d"/>
  <path id="Path_56" data-name="Path 56" d="M576.41,490.062l.253.243h0c.487-.506.97-1.03,1.437-1.556l-.263-.234C577.374,489.039,576.893,489.559,576.41,490.062Z" transform="translate(-474.435 -391.167)" fill="#ff533d"/>
  <path id="Path_57" data-name="Path 57" d="M396.4,250.477h0Z" transform="translate(-280.544 -177.271)" fill="#ff533d"/>
  <path id="Path_58" data-name="Path 58" d="M398.707,236.169h0Z" transform="translate(-282.178 -167.145)" fill="#ff533d"/>
  <path id="Path_59" data-name="Path 59" d="M339.319,349.238h0Z" transform="translate(-240.147 -247.167)" fill="#ff533d"/>
  <path id="Path_60" data-name="Path 60" d="M623.1,398.59c-.111.69-.238,1.387-.377,2.07l.343.07c.14-.688.268-1.389.38-2.084Z" transform="translate(-507.213 -327.523)" fill="#ff533d"/>
  <path id="Path_61" data-name="Path 61" d="M625.225,384.3c-.055.7-.126,1.4-.209,2.094l.348.042c.084-.7.155-1.408.212-2.107Z" transform="translate(-508.835 -317.407)" fill="#ff533d"/>
  <path id="Path_62" data-name="Path 62" d="M626.2,369.511v.117c0,.7-.014,1.405-.042,2.1l.351.014h0c.028-.7.042-1.416.041-2.12v-.115Z" transform="translate(-509.641 -306.943)" fill="#ff533d"/>
  <path id="Path_63" data-name="Path 63" d="M621.395,326.458l-.341.084c.168.676.324,1.367.465,2.052l.343-.071C621.721,327.834,621.563,327.139,621.395,326.458Z" transform="translate(-506.031 -276.473)" fill="#ff533d"/>
  <path id="Path_64" data-name="Path 64" d="M614.73,428.515l.328.124h0c.25-.661.49-1.334.713-2l-.333-.111C615.217,427.19,614.979,427.859,614.73,428.515Z" transform="translate(-501.556 -347.296)" fill="#ff533d"/>
  <path id="Path_65" data-name="Path 65" d="M612.218,299.021l-.322.138c.275.638.54,1.292.789,1.945l.326-.125C612.761,300.322,612.494,299.664,612.218,299.021Z" transform="translate(-499.55 -257.055)" fill="#ff533d"/>
  <path id="Path_66" data-name="Path 66" d="M617.359,312.544l-.333.112c.223.663.434,1.338.63,2.008l.337-.1C617.8,313.891,617.583,313.211,617.359,312.544Z" transform="translate(-503.181 -266.626)" fill="#ff533d"/>
  <path id="Path_67" data-name="Path 67" d="M619.835,412.7c-.167.68-.35,1.363-.543,2.033l.337.1h0c.195-.673.379-1.362.547-2.046Z" transform="translate(-504.784 -337.507)" fill="#ff533d"/>
  <path id="Path_68" data-name="Path 68" d="M439.97,190.3v0c.7-.029,1.4-.044,2.1-.047v-.351c-.7,0-1.416.016-2.118.045Z" transform="translate(-377.862 -179.831)" fill="#ff533d"/>
  <path id="Path_69" data-name="Path 69" d="M468.753,191.514c.693.082,1.394.179,2.084.289l.055-.345c-.695-.112-1.4-.21-2.1-.292Z" transform="translate(-398.243 -180.723)" fill="#ff533d"/>
  <path id="Path_70" data-name="Path 70" d="M496.949,197.224c.671.193,1.348.4,2.01.622l.11-.333c-.667-.221-1.348-.432-2.023-.626Z" transform="translate(-418.198 -184.772)" fill="#ff533d"/>
  <path id="Path_71" data-name="Path 71" d="M490.382,542.221l.084.34h0c.684-.168,1.372-.352,2.046-.547l-.1-.337C491.745,541.87,491.061,542.054,490.382,542.221Z" transform="translate(-413.55 -428.791)" fill="#ccc"/>
  <path id="Path_72" data-name="Path 72" d="M464.074,547.413c-.693.084-1.4.155-2.094.21l.029.35c.7-.056,1.409-.127,2.107-.211Z" transform="translate(-393.45 -432.85)" fill="#ccc"/>
  <path id="Path_73" data-name="Path 73" d="M482.969,193.8c.686.138,1.377.292,2.054.457l.083-.341c-.682-.168-1.378-.321-2.068-.46Z" transform="translate(-408.304 -182.341)" fill="#ccc"/>
  <path id="Path_74" data-name="Path 74" d="M476.276,545.495l.056.346h0c.692-.111,1.394-.239,2.084-.38l-.07-.343C477.66,545.256,476.964,545.384,476.276,545.495Z" transform="translate(-403.567 -431.225)" fill="#ccc"/>
  <path id="Path_75" data-name="Path 75" d="M433.121,548.5c.7.056,1.413.1,2.114.125l.013-.352c-.7-.027-1.4-.069-2.1-.124Z" transform="translate(-373.025 -433.369)" fill="#ccc"/>
  <path id="Path_76" data-name="Path 76" d="M560.618,230.326l-.222.272c.541.441,1.08.9,1.6,1.363l.232-.263C561.706,231.232,561.163,230.77,560.618,230.326Z" transform="translate(-463.102 -208.438)" fill="#ff533d"/>
  <path id="Path_77" data-name="Path 77" d="M234.578,393.9h0Z" transform="translate(-166.018 -278.773)" fill="#ccc"/>
  <path id="Path_78" data-name="Path 78" d="M454.4,190.389c.7.027,1.405.068,2.1.122l.028-.35c-.7-.055-1.411-.1-2.115-.122Z" transform="translate(-388.085 -179.924)" fill="#ccc"/>
  <path id="Path_79" data-name="Path 79" d="M447.6,548.61v.351c.7,0,1.415-.015,2.118-.042l-.014-.351C449.005,548.6,448.3,548.61,447.6,548.61Z" transform="translate(-383.272 -433.668)" fill="#ccc"/>
  <path id="Path_80" data-name="Path 80" d="M543.06,518.252l.188.3h0c.592-.376,1.185-.769,1.764-1.169l-.2-.288C544.238,517.49,543.648,517.88,543.06,518.252Z" transform="translate(-450.832 -411.391)" fill="#ff533d"/>
  <path id="Path_81" data-name="Path 81" d="M504.208,537.82l.111.333h0c.667-.222,1.338-.462,2-.712l-.125-.328C505.537,537.361,504.87,537.6,504.208,537.82Z" transform="translate(-423.335 -425.561)" fill="#ff533d"/>
  <path id="Path_82" data-name="Path 82" d="M556.544,508.443c-.542.443-1.1.879-1.655,1.3l.211.28c.56-.421,1.12-.86,1.666-1.306Z" transform="translate(-459.204 -405.27)" fill="#ff533d"/>
  <path id="Path_83" data-name="Path 83" d="M536.863,213.87l-.175.3c.605.349,1.212.715,1.8,1.089l.187-.3C538.083,214.59,537.473,214.221,536.863,213.87Z" transform="translate(-446.323 -196.791)" fill="#ff533d"/>
  <path id="Path_84" data-name="Path 84" d="M328.11,358.408h0Z" transform="translate(-232.214 -253.657)" fill="#ff533d"/>
  <path id="Path_85" data-name="Path 85" d="M549.073,221.622l-.2.289c.575.4,1.15.81,1.709,1.23l.211-.28C550.23,222.437,549.651,222.021,549.073,221.622Z" transform="translate(-454.947 -202.277)" fill="#ff533d"/>
  <path id="Path_86" data-name="Path 86" d="M510.758,201.456l-.124.328c.655.247,1.313.511,1.958.785l.136-.324C512.08,201.971,511.417,201.7,510.758,201.456Z" transform="translate(-427.883 -188.005)" fill="#ff533d"/>
  <path id="Path_87" data-name="Path 87" d="M517.648,532.345l.138.321h0c.646-.276,1.294-.568,1.926-.869l-.151-.317C518.934,531.781,518.289,532.071,517.648,532.345Z" transform="translate(-432.847 -421.576)" fill="#ff533d"/>
  <path id="Path_88" data-name="Path 88" d="M524.066,207.133l-.15.317c.633.3,1.267.616,1.887.94l.163-.311C525.342,207.753,524.7,207.434,524.066,207.133Z" transform="translate(-437.284 -192.023)" fill="#ff533d"/>
  <path id="Path_89" data-name="Path 89" d="M530.615,525.8l.163.31h0c.622-.327,1.245-.671,1.85-1.022l-.175-.3C531.851,525.135,531.233,525.477,530.615,525.8Z" transform="translate(-442.025 -416.837)" fill="#ff533d"/>
  <path id="Path_90" data-name="Path 90" d="M415.434,214.407a.469.469,0,0,1-.462-.443v-4.08a.471.471,0,0,1,.487-.45h18.047a.467.467,0,0,1,.48.442v4.08a.471.471,0,0,1-.483.45H415.434Zm.01-4.56a.046.046,0,0,0-.046.044v4.065a.047.047,0,0,0,.048.036h18.059a.05.05,0,0,0,.055-.044v-4.064a.048.048,0,0,0-.048-.036H415.446Z" transform="translate(-360.18 -193.651)" fill="#ccc"/>
  <path id="Path_91" data-name="Path 91" d="M415.434,187.407a.469.469,0,0,1-.462-.443v-4.08a.472.472,0,0,1,.487-.45h18.047a.468.468,0,0,1,.48.442v4.08a.469.469,0,0,1-.483.45H415.434Z" transform="translate(-360.18 -174.543)" fill="#ff533d"/>
  <path id="Path_92" data-name="Path 92" d="M415.434,160.407a.469.469,0,0,1-.462-.443v-4.08a.472.472,0,0,1,.487-.45h18.047a.469.469,0,0,1,.48.442v4.08a.472.472,0,0,1-.483.45H415.434Z" transform="translate(-360.18 -155.434)" fill="#18233e"/>
  <g id="Group_64" data-name="Group 64" transform="translate(0 48.656)">
    <rect id="Rectangle_25" data-name="Rectangle 25" width="23.381" height="28.058" fill="#e6e6e6"/>
    <rect id="Rectangle_25-2" data-name="Rectangle 25-2" width="21.963" height="26.355" transform="translate(0.671 0.863)" fill="#fff"/>
    <rect id="Rectangle_31" data-name="Rectangle 31" width="8.785" height="1.098" transform="translate(2.486 5.271)" fill="#e6e6e6"/>
    <rect id="Rectangle_32" data-name="Rectangle 32" width="13.296" height="1.098" transform="translate(2.486 9.005)" fill="#18233e"/>
    <rect id="Rectangle_38" data-name="Rectangle 38" width="8.007" height="1.098" transform="translate(2.486 12.738)" fill="#e6e6e6"/>
    <rect id="Rectangle_39" data-name="Rectangle 39" width="16.711" height="1.098" transform="translate(2.486 16.472)" fill="#18233e"/>
    <rect id="Rectangle_40" data-name="Rectangle 40" width="16.711" height="1.098" transform="translate(2.486 20.206)" fill="#e6e6e6"/>
  </g>
  <g id="Group_65" data-name="Group 65" transform="translate(46.978 105.21)">
    <path id="Path_1011" data-name="Path 1011" d="M388.574,515.413a.339.339,0,0,0-.338.338v19.49a.339.339,0,0,0,.338.339h38.641a.339.339,0,0,0,.338-.339v-19.49a.339.339,0,0,0-.338-.338Z" transform="translate(-388.236 -515.413)" fill="#e6e6e6"/>
    <path id="Path_1012" data-name="Path 1012" d="M390.427,517.265a.339.339,0,0,0-.338.338V536.01a.339.339,0,0,0,.338.338h37.558a.339.339,0,0,0,.338-.338V517.6a.339.339,0,0,0-.338-.338Z" transform="translate(-389.547 -516.724)" fill="#fff"/>
    <path id="Path_1013" data-name="Path 1013" d="M409.315,536.154H401.33a.474.474,0,0,1-.474-.474v-7.985a.474.474,0,0,1,.474-.474h7.985a.474.474,0,0,1,.474.474v7.985A.474.474,0,0,1,409.315,536.154Zm-7.985-8.8a.339.339,0,0,0-.338.339v7.985a.339.339,0,0,0,.338.338h7.985a.339.339,0,0,0,.338-.338v-7.986a.339.339,0,0,0-.338-.338Z" transform="translate(-397.168 -523.77)" fill="#3f3d56"/>
    <path id="Path_1014" data-name="Path 1014" d="M448.677,536.154h-7.985a.474.474,0,0,1-.474-.474v-7.985a.474.474,0,0,1,.474-.474h7.985a.474.474,0,0,1,.474.474v7.985A.474.474,0,0,1,448.677,536.154Zm-7.985-8.8a.339.339,0,0,0-.338.339v7.985a.339.339,0,0,0,.338.338h7.985a.339.339,0,0,0,.338-.338v-7.986a.339.339,0,0,0-.338-.338Z" transform="translate(-425.025 -523.77)" fill="#e6e6e6"/>
    <path id="Path_1015" data-name="Path 1015" d="M443.1,529.763a.339.339,0,0,0-.338.338v6.767a.339.339,0,0,0,.338.338h6.768a.339.339,0,0,0,.338-.338V530.1a.339.339,0,0,0-.338-.34Z" transform="translate(-426.828 -525.569)" fill="#ff533d"/>
    <path id="Path_1016" data-name="Path 1016" d="M403.857,529.763a.339.339,0,0,0-.338.338v6.767a.339.339,0,0,0,.338.338h6.767a.339.339,0,0,0,.338-.338V530.1a.339.339,0,0,0-.338-.338Z" transform="translate(-399.052 -525.569)" fill="#3f3d56"/>
    <path id="Path_1017" data-name="Path 1017" d="M482.346,529.763a.339.339,0,0,0-.338.338v6.767a.339.339,0,0,0,.338.34h6.768a.339.339,0,0,0,.338-.338V530.1a.339.339,0,0,0-.338-.338Z" transform="translate(-454.602 -525.569)" fill="#18233e"/>
    <path id="Path_1018" data-name="Path 1018" d="M488.043,536.154h-7.984a.474.474,0,0,1-.474-.474v-7.985a.474.474,0,0,1,.474-.474h7.985a.474.474,0,0,1,.474.474v7.985a.474.474,0,0,1-.475.474Zm-7.985-8.8a.339.339,0,0,0-.338.339v7.985a.339.339,0,0,0,.338.338h7.985a.339.339,0,0,0,.338-.338v-7.986a.339.339,0,0,0-.338-.338Z" transform="translate(-452.887 -523.77)" fill="#18233e"/>
    <circle id="Ellipse_187" data-name="Ellipse 187" cx="1.15" cy="1.15" r="1.15" transform="translate(15.294 13.805)" fill="#e6e6e6" opacity="0.8"/>
    <circle id="Ellipse_188" data-name="Ellipse 188" cx="1.15" cy="1.15" r="1.15" transform="translate(21.791 13.805)" fill="#e6e6e6" opacity="0.4"/>
    <circle id="Ellipse_189" data-name="Ellipse 189" cx="1.15" cy="1.15" r="1.15" transform="translate(18.543 13.805)" fill="#e6e6e6" opacity="0.6"/>
    <circle id="Ellipse_190" data-name="Ellipse 190" cx="1.15" cy="1.15" r="1.15" transform="translate(3.79 13.805)" fill="#3f3d56" opacity="0.8"/>
    <circle id="Ellipse_191" data-name="Ellipse 191" cx="1.15" cy="1.15" r="1.15" transform="translate(10.286 13.805)" fill="#3f3d56" opacity="0.4"/>
    <circle id="Ellipse_192" data-name="Ellipse 192" cx="1.15" cy="1.15" r="1.15" transform="translate(7.038 13.805)" fill="#3f3d56" opacity="0.6"/>
    <circle id="Ellipse_193" data-name="Ellipse 193" cx="1.15" cy="1.15" r="1.15" transform="translate(26.799 13.805)" fill="#18233e" opacity="0.8"/>
    <circle id="Ellipse_194" data-name="Ellipse 194" cx="1.15" cy="1.15" r="1.15" transform="translate(33.295 13.805)" fill="#18233e" opacity="0.4"/>
    <circle id="Ellipse_195" data-name="Ellipse 195" cx="1.15" cy="1.15" r="1.15" transform="translate(30.047 13.805)" fill="#18233e" opacity="0.6"/>
  </g>
  <circle id="Ellipse_18" data-name="Ellipse 18" cx="5.845" cy="5.845" r="5.845" transform="translate(111.061 56.84)" fill="#18233e"/>
  <path id="Path_1032" data-name="Path 1032" d="M623.675,363.749h-1.336v-1.336a.5.5,0,0,0-1,0v1.336H620a.5.5,0,1,0,0,1h1.336v1.336a.5.5,0,1,0,1,0v-1.336h1.336a.5.5,0,0,0,0-1Z" transform="translate(-504.931 -301.566)" fill="#fff"/>
  <path id="Path_944" data-name="Path 944" d="M444.947,743.152H227.792a.292.292,0,0,1,0-.585H444.947a.292.292,0,0,1,0,.585Z" transform="translate(-227.5 -570.967)" fill="#e6e6e6"/>
  <path id="Path_1040" data-name="Path 1040" d="M819.022,443.086a3.14,3.14,0,0,0-.9-4.73l-6.787-27.78-4.951,1.581,7.329,27.59a3.157,3.157,0,0,0,5.306,3.339Z" transform="translate(-637.198 -336.006)" fill="#feb8b8"/>
  <path id="Path_1041" data-name="Path 1041" d="M810.172,424.631l-3.618,3.121-5.062,4.363-2.236-11.439-.234-1.19-.184-.944,5.13-8.935,4.276.245.292.018.006.064.067.6.877,7.885.021.19Z" transform="translate(-631.855 -335.321)" fill="#3f3d56"/>
  <path id="Path_1042" data-name="Path 1042" d="M743.894,697.215h-3.583l-1.7-13.821h5.288Z" transform="translate(-589.227 -529.089)" fill="#feb8b8"/>
  <path id="Path_1043" data-name="Path 1043" d="M731.847,726.68H724.79a4.5,4.5,0,0,0-4.5,4.5v.146h11.554Z" transform="translate(-576.266 -559.724)" fill="#2f2e41"/>
  <path id="Path_1044" data-name="Path 1044" d="M871.894,696.215h-3.583l-1.7-13.821h5.288Z" transform="translate(-679.817 -528.381)" fill="#feb8b8"/>
  <path id="Path_1045" data-name="Path 1045" d="M859.848,725.68h-7.057a4.5,4.5,0,0,0-4.5,4.5v.146h11.554Z" transform="translate(-666.857 -559.016)" fill="#2f2e41"/>
  <path id="Path_1046" data-name="Path 1046" d="M774.889,494.769l-9.645,1.461-14.032-47.488-14.9,47.78L725.5,495.061l14.029-55.531v-4.384l1.9-6.576-.2-1.78-1.382-12.448-.6-5.4-.039-.349a1.185,1.185,0,0,1,.933-1.291h0l4.5-.947H752l4.34,1.2.3.082.134.038-.067.561-1.017,8.528-.056.468-.982,8.221-.216,1.8c8.476,6.138,8.768,12.275,8.768,12.275Z" transform="translate(-579.948 -333.021)" fill="#ab967a"/>
  <ellipse id="Ellipse_197" data-name="Ellipse 197" cx="7.178" cy="7.178" rx="7.178" ry="7.178" transform="translate(160.302 55.282)" fill="#feb8b8"/>
  <rect id="Rectangle_153" data-name="Rectangle 153" width="14.321" height="2.046" transform="translate(160.821 94.44) rotate(-7.451)" fill="#cbcbcb"/>
  <path id="Path_1047" data-name="Path 1047" d="M701.15,464.5a3.073,3.073,0,0,1,.385.294l14.045-3.581.958-3.388,5.3.778-1.113,6.163a2.338,2.338,0,0,1-2.056,1.91l-16.4,1.727a3.069,3.069,0,1,1-1.122-3.9Z" transform="translate(-559.378 -369.445)" fill="#feb8b8"/>
  <path id="Path_1048" data-name="Path 1048" d="M767.741,411.131l-2.484-1.9c-.672-.255-1.592.469-1.754,1.169L760,424.722l7.307,5.261,1.023-1.607Z" transform="translate(-604.365 -335.018)" fill="#3f3d56"/>
  <path id="Path_1076" data-name="Path 1076" d="M774.246,329.125l.39-.629a4.757,4.757,0,0,1,5.038,2.267c.246-.908,1.711-.861,2.253-.092a3.575,3.575,0,0,1,.246,2.732,4.337,4.337,0,0,0,.052,2.767,2.564,2.564,0,0,0,2.242,1.275,4.768,4.768,0,0,0,2.546-.81,8.715,8.715,0,0,0,3.972-8.4,8.385,8.385,0,0,0-1.38-3.543,1.637,1.637,0,0,0,1.085-.526,1.737,1.737,0,0,0,.19-1.8,3.268,3.268,0,0,0-1.065-1.263,2.651,2.651,0,0,0,1.126.526,1.03,1.03,0,0,0,1.189-.678c.088-.465-.285-.888-.629-1.228l-.669-.663a4.226,4.226,0,0,0,.321-.413,3.325,3.325,0,0,0,.168-3.608c.639,1.09.078,2.388-1.047,3.273-.036.029-.077.053-.114.081l-.427-.423a3.657,3.657,0,0,0-1.2-.9,1.236,1.236,0,0,0-1.384.256c-.33.411-.238,1.066-.623,1.427a1.406,1.406,0,0,1-1.342.13,2.883,2.883,0,0,0-1.384-.229,1.3,1.3,0,0,0-.909,1.488,1.772,1.772,0,0,0,.336.75,23.415,23.415,0,0,0-3.818-.012,13.084,13.084,0,0,0-4.4.771,4.584,4.584,0,0,0-2.861,3.222C771.89,326.353,772.753,329,774.246,329.125Z" transform="translate(-612.932 -268.391)" fill="#2f2e41"/>
  <g id="Group_58" data-name="Group 58" transform="translate(15.578 154.013)">
    <path id="Path_438" data-name="Path 438" d="M281.3,692.258a3.741,3.741,0,0,0,3.614-.637c1.266-1.062,1.662-2.812,1.985-4.433l.955-4.793-2,1.377a14.565,14.565,0,0,0-3.9,3.446,4.945,4.945,0,0,0-.63,4.943" transform="translate(-280.878 -682.395)" fill="#e6e6e6"/>
    <path id="Path_439" data-name="Path 439" d="M282.365,708.294a24.067,24.067,0,0,1-.334-5.543,8.719,8.719,0,0,1,1.681-4.571,7.606,7.606,0,0,1,1.951-1.768c.2-.123.375.186.18.309a7.229,7.229,0,0,0-2.86,3.45,11.589,11.589,0,0,0-.615,4.992c.065,1.017.2,2.028.341,3.037a.185.185,0,0,1-.125.22A.18.18,0,0,1,282.365,708.294Z" transform="translate(-281.631 -692.295)" fill="#f2f2f2"/>
    <path id="Path_442" data-name="Path 442" d="M289.513,719.849a2.755,2.755,0,0,0,2.4,1.239,5.474,5.474,0,0,0,3.14-1.711l2.7-2.381-1.785-.085a10.722,10.722,0,0,0-3.823.277,3.641,3.641,0,0,0-2.574,2.614" transform="translate(-286.967 -706.792)" fill="#e6e6e6"/>
    <path id="Path_443" data-name="Path 443" d="M280.824,727.345c1.211-2.144,2.617-4.526,5.128-5.288a5.723,5.723,0,0,1,2.157-.223c.229.02.172.373-.057.353a5.316,5.316,0,0,0-3.442.911,8.946,8.946,0,0,0-2.366,2.553c-.392.6-.743,1.219-1.094,1.84C281.039,727.689,280.711,727.546,280.824,727.345Z" transform="translate(-280.801 -710.292)" fill="#f2f2f2"/>
  </g>
</svg>
