<svg xmlns="http://www.w3.org/2000/svg" width="295.052" height="151.939" viewBox="0 0 295.052 151.939">
  <g id="undraw_static_website_0107" transform="translate(-1.637 -1.793)">
    <rect id="Rectangle_51" data-name="Rectangle 51" width="87.781" height="155.612" transform="translate(105.61 86.262) rotate(-74.21)" fill="#f2f2f2"/>
    <ellipse id="Ellipse_37" data-name="Ellipse 37" cx="1.24" cy="1.24" rx="1.24" ry="1.24" transform="translate(130.844 4.087)" fill="#18233e"/>
    <ellipse id="Ellipse_38" data-name="Ellipse 38" cx="1.24" cy="1.24" rx="1.24" ry="1.24" transform="translate(134.662 5.167)" fill="#18233e"/>
    <ellipse id="Ellipse_39" data-name="Ellipse 39" cx="1.24" cy="1.24" rx="1.24" ry="1.24" transform="translate(138.481 6.247)" fill="#18233e"/>
    <path id="Path_434" data-name="Path 434" d="M754.35,356.463a14.488,14.488,0,0,0-6.051.143,14.462,14.462,0,0,0,.428-6.114,14.378,14.378,0,0,0-5.409,3.49,14.377,14.377,0,0,0-2.78-5.806,14.463,14.463,0,0,0-2.838,5.433,14.489,14.489,0,0,0-5.08-3.291,11.609,11.609,0,0,0,7.719,13.592l.019.022.01-.011.126.046s.017-.088.041-.246l.045-.055.009.07c-.062.146-.094.231-.094.231l.131.027,0,.015.028-.009a11.61,11.61,0,0,0,13.694-7.536Z" transform="translate(-545.384 -301.069)" fill="#ff533d"/>
    <ellipse id="Ellipse_40" data-name="Ellipse 40" cx="3.224" cy="3.224" rx="3.224" ry="3.224" transform="translate(198.32 37.211)" fill="#18233e"/>
    <rect id="Rectangle_52" data-name="Rectangle 52" width="100.7" height="2.191" transform="translate(145.132 54.897) rotate(15.79)" fill="#18233e"/>
    <rect id="Rectangle_53" data-name="Rectangle 53" width="17.362" height="17.362" transform="translate(151.232 67.964) rotate(15.79)" fill="#18233e"/>
    <rect id="Rectangle_54" data-name="Rectangle 54" width="17.362" height="17.362" transform="translate(182.259 76.738) rotate(15.79)" fill="#18233e"/>
    <rect id="Rectangle_55" data-name="Rectangle 55" width="17.362" height="17.362" transform="translate(213.287 85.512) rotate(15.79)" fill="#18233e"/>
    <rect id="Rectangle_56" data-name="Rectangle 56" width="12.898" height="1.488" transform="translate(147.71 88.62) rotate(15.79)" fill="#ab967a"/>
    <rect id="Rectangle_57" data-name="Rectangle 57" width="12.898" height="1.488" transform="translate(178.738 97.394) rotate(15.79)" fill="#ab967a"/>
    <rect id="Rectangle_58" data-name="Rectangle 58" width="12.898" height="1.488" transform="translate(209.765 106.168) rotate(15.79)" fill="#ab967a"/>
    <ellipse id="Ellipse_41" data-name="Ellipse 41" cx="83.004" cy="3.069" rx="83.004" ry="3.069" transform="translate(1.637 112.815)" fill="#d0cde1"/>
    <ellipse id="Ellipse_42" data-name="Ellipse 42" cx="64.591" cy="3.069" rx="64.591" ry="3.069" transform="translate(167.506 147.595)" fill="#d0cde1"/>
    <path id="Path_435" data-name="Path 435" d="M778.172,621h18.634v7.793H785.965v7.793h10.842v7.792H778.172Zm22.362,0h18.635v6.776H808.327v1.355h10.842v15.586H800.534V637.6h10.842v-1.355H800.533V621Zm22.362,0h18.635v6.776H830.689v1.355h10.842v15.586H822.9V637.6h10.842v-1.355H822.9V621Z" transform="translate(-577.754 -494.156)" fill="#3f3d56"/>
    <path id="Path_436" data-name="Path 436" d="M220.926,499h7.687v7.595h7.032V499h7.688v23h-7.687v-7.7h-7.032V522h-7.687V499Zm32.516,7.627h-6.767V499H267.9v7.627h-6.771V522h-7.687V506.627h0ZM271.27,499h8.016l4.931,8.081L289.142,499h8.019v23H289.5V510.6l-5.289,8.178h-.133l-5.292-8.178V522H271.27Zm29.716,0h7.69v15.4h10.81V522h-18.5V499Z" transform="translate(-183.373 -407.813)" fill="#3f3d56"/>
  </g>
</svg>
