<svg xmlns="http://www.w3.org/2000/svg" width="298.769" height="228.559" viewBox="0 0 298.769 228.559">
  <g id="undraw_destinations_fpv7" transform="translate(0 30.096)">
    <path id="Path_333" data-name="Path 333" d="M686.96,178.909c-12.166-47.84-54.2-82.374-103.547-83.759-26.087-.732-53.537,7.92-73.523,38.195-35.727,54.12,2.2,91.52,28.634,109.291a165.433,165.433,0,0,1,34.194,30.734c17.858,21.192,52.213,47.525,93.129,6.264C695.5,249.727,695.064,210.775,686.96,178.909Z" transform="translate(-392.921 -125.203)" fill="#f2f2f2"/>
    <path id="Path_334" data-name="Path 334" d="M186.7,501.6c-.328-.486-.65-.984-.958-1.481l.5-.308c.3.491.622.983.945,1.462Z" transform="translate(-141.033 -381.531)" fill="#3f3d56"/>
    <path id="Path_335" data-name="Path 335" d="M168.287,336.643c-.542-1.064-1.046-2.163-1.5-3.267l.541-.221c.446,1.089.943,2.173,1.478,3.223ZM165.568,330c-.359-1.138-.674-2.305-.937-3.469l.57-.129c.26,1.148.571,2.3.924,3.423Zm-1.584-7c-.166-1.18-.284-2.383-.353-3.576l.584-.034c.068,1.177.185,2.364.348,3.528Zm.17-7.155-.584-.014c.028-1.195.106-2.4.231-3.585l.581.061c-.123,1.168-.2,2.358-.228,3.537Zm.745-7.044-.574-.109c.223-1.172.5-2.349.816-3.5l.563.156c-.314,1.134-.585,2.3-.8,3.452Zm1.893-6.825-.548-.2c.413-1.12.879-2.236,1.384-3.319l.53.247c-.5,1.068-.958,2.169-1.366,3.274Zm80.053-1.807c-.457-1.084-.965-2.162-1.511-3.206l.518-.271c.553,1.058,1.069,2.152,1.532,3.25Zm-77.056-4.616-.507-.29c.592-1.035,1.235-2.06,1.911-3.044l.482.331C171.007,293.513,170.373,294.523,169.789,295.545Zm73.774-1.661c-.629-.994-1.308-1.975-2.018-2.915l.467-.352c.719.953,1.407,1.947,2.045,2.954ZM173.8,289.7l-.453-.369c.754-.925,1.556-1.83,2.383-2.69l.421.4C175.335,287.9,174.544,288.79,173.8,289.7Zm65.5-1.474c-.784-.879-1.614-1.736-2.467-2.547l.4-.424c.864.822,1.706,1.691,2.5,2.581Zm-60.585-3.634-.387-.438c.894-.789,1.833-1.552,2.789-2.265l.35.468C180.519,283.064,179.593,283.816,178.71,284.595Zm55.451-1.249c-.917-.739-1.876-1.449-2.85-2.11l.328-.484c.987.67,1.959,1.39,2.888,2.138Zm-49.774-2.988-.31-.5c1.012-.633,2.062-1.231,3.121-1.778l.268.519C186.422,279.144,185.385,279.734,184.387,280.358Zm43.911-.991c-1.027-.58-2.089-1.123-3.157-1.614l.244-.531c1.083.5,2.159,1.049,3.2,1.636Zm-37.619-2.256-.224-.54c1.1-.458,2.235-.874,3.37-1.239l.179.557C192.884,276.249,191.766,276.66,190.679,277.111Zm31.181-.705c-1.106-.4-2.244-.762-3.38-1.07l.153-.564c1.152.313,2.305.678,3.427,1.085Zm-24.44-1.46-.132-.569c1.161-.269,2.349-.493,3.53-.666l.084.578c-1.166.17-2.338.391-3.483.657Zm17.6-.4c-1.155-.213-2.336-.38-3.51-.5l.058-.582c1.189.119,2.387.289,3.558.5Zm-10.594-.627-.037-.583c1.189-.075,2.4-.1,3.592-.08l-.011.585c-1.176-.022-2.371.005-3.545.079Z" transform="translate(-125.344 -221.186)" fill="#3f3d56"/>
    <path id="Path_336" data-name="Path 336" d="M453.3,378.058c-.157-.556-.327-1.117-.506-1.667l.556-.181c.182.557.354,1.126.513,1.689Z" transform="translate(-330.035 -294.053)" fill="#3f3d56"/>
    <path id="Path_337" data-name="Path 337" d="M440.912,266.26h-.585c0-.585.01-1.178.031-1.764l.584.02C440.922,265.1,440.912,265.682,440.912,266.26Z" transform="translate(-321.213 -214.989)" fill="#3f3d56"/>
    <path id="Path_338" data-name="Path 338" d="M441.871,144.856l-.581-.062c.125-1.177.295-2.364.5-3.527l.575.1C442.162,142.52,441.995,143.693,441.871,144.856Zm1.244-6.927-.566-.144c.293-1.147.631-2.3,1-3.419l.555.185c-.37,1.108-.7,2.245-.993,3.378Zm93.222-6.167c-.437-1.085-.919-2.167-1.433-3.217l.525-.257c.52,1.062,1.008,2.157,1.45,3.255Zm-90.993-.512-.54-.225c.455-1.092.955-2.183,1.488-3.241l.522.263c-.526,1.046-1.021,2.123-1.47,3.2Zm87.9-5.81c-.588-1.01-1.22-2.012-1.879-2.979l.483-.329c.667.978,1.306,1.992,1.9,3.014Zm-84.733-.481-.5-.3c.606-1.015,1.257-2.022,1.936-2.994l.479.335C449.753,122.96,449.11,123.955,448.511,124.958Zm80.768-5.334c-.727-.917-1.5-1.82-2.284-2.681l.431-.395c.8.872,1.576,1.785,2.311,2.713Zm-76.735-.438-.454-.368c.746-.92,1.534-1.824,2.342-2.687l.427.4C454.06,117.384,453.281,118.278,452.544,119.186Zm71.982-4.755c-.85-.8-1.738-1.588-2.642-2.33l.37-.452c.914.75,1.814,1.543,2.674,2.357Zm-67.17-.383-.4-.429c.868-.8,1.776-1.586,2.7-2.326l.366.456c-.912.731-1.81,1.5-2.668,2.3Zm61.726-4.082c-.955-.676-1.946-1.325-2.947-1.93l.3-.5c1.012.612,2.015,1.269,2.981,1.953Zm-56.235-.32-.332-.481c.973-.672,1.983-1.317,3-1.918l.3.5c-1.007.594-2,1.231-2.967,1.9Zm50.211-3.324c-1.042-.532-2.116-1.033-3.193-1.488l.228-.538c1.089.461,2.176.967,3.231,1.506Zm-44.15-.249-.26-.523c1.059-.526,2.15-1.02,3.244-1.468l.222.541c-1.081.443-2.159.931-3.206,1.451Zm37.665-2.493c-1.106-.376-2.241-.718-3.374-1.014l.148-.565c1.147.3,2.3.645,3.414,1.026Zm-31.158-.173-.182-.555c1.123-.368,2.275-.7,3.424-.987l.142.567c-1.135.283-2.273.611-3.383.975Zm24.348-1.608c-1.149-.213-2.321-.388-3.483-.518l.065-.581c1.176.132,2.362.308,3.525.524Zm-17.519-.1-.1-.576c1.165-.2,2.352-.366,3.53-.485l.059.582c-1.164.117-2.337.279-3.488.479Zm10.524-.69c-1.17-.048-2.36-.054-3.522-.019l-.018-.584c1.176-.035,2.379-.029,3.564.019Z" transform="translate(-321.895 -98.844)" fill="#3f3d56"/>
    <path id="Path_339" data-name="Path 339" d="M771.135,220.425c-.156-.556-.325-1.118-.5-1.669l.557-.178c.179.558.35,1.126.508,1.689Z" transform="translate(-554.982 -182.492)" fill="#3f3d56"/>
    <ellipse id="Ellipse_5" data-name="Ellipse 5" cx="9.736" cy="0.73" rx="9.736" ry="0.73" transform="translate(35.586 125.865)" fill="#18233e"/>
    <ellipse id="Ellipse_6" data-name="Ellipse 6" cx="9.736" cy="0.73" rx="9.736" ry="0.73" transform="translate(113.232 90.572)" fill="#18233e"/>
    <ellipse id="Ellipse_7" data-name="Ellipse 7" cx="9.736" cy="0.73" rx="9.736" ry="0.73" transform="translate(209.132 53.818)" fill="#18233e"/>
    <rect id="Rectangle_18" data-name="Rectangle 18" width="41.403" height="0.584" transform="translate(185.735 81.427) rotate(-45)" fill="#3f3d56"/>
    <rect id="Rectangle_19" data-name="Rectangle 19" width="49.167" height="0.585" transform="translate(128.079 85.168)" fill="#3f3d56"/>
    <rect id="Rectangle_20" data-name="Rectangle 20" width="38.89" height="0.584" transform="translate(91.606 116.653) rotate(-45)" fill="#3f3d56"/>
    <rect id="Rectangle_21" data-name="Rectangle 21" width="32.86" height="0.585" transform="translate(50.433 120.462)" fill="#3f3d56"/>
    <rect id="Rectangle_22" data-name="Rectangle 22" width="46.178" height="0.584" transform="translate(8.849 156.815) rotate(-45)" fill="#3f3d56"/>
    <path id="Path_340" data-name="Path 340" d="M174.761,500.589a5.4,5.4,0,1,1,5.4-5.4A5.4,5.4,0,0,1,174.761,500.589Zm0-10.223a4.819,4.819,0,1,0,4.819,4.819,4.819,4.819,0,0,0-4.819-4.819Z" transform="translate(-129.439 -374.431)" fill="#3f3d56"/>
    <path id="Path_341" data-name="Path 341" d="M322.168,500.589a5.4,5.4,0,1,1,5.4-5.4A5.4,5.4,0,0,1,322.168,500.589Zm0-10.223a4.819,4.819,0,1,0,4.819,4.819,4.819,4.819,0,0,0-4.819-4.819Z" transform="translate(-233.764 -374.431)" fill="#3f3d56"/>
    <path id="Path_342" data-name="Path 342" d="M440.428,379.831a5.4,5.4,0,1,1,5.4-5.4,5.4,5.4,0,0,1-5.4,5.4Zm0-10.223a4.819,4.819,0,1,0,4.819,4.819A4.819,4.819,0,0,0,440.428,369.609Z" transform="translate(-317.46 -288.967)" fill="#3f3d56"/>
    <path id="Path_343" data-name="Path 343" d="M643.634,379.831a5.4,5.4,0,1,1,5.4-5.4A5.4,5.4,0,0,1,643.634,379.831Zm0-10.223a4.819,4.819,0,1,0,4.819,4.819A4.819,4.819,0,0,0,643.634,369.609Z" transform="translate(-461.276 -288.967)" fill="#3f3d56"/>
    <path id="Path_344" data-name="Path 344" d="M768.556,254.077a5.4,5.4,0,1,1,5.4-5.4A5.4,5.4,0,0,1,768.556,254.077Zm0-10.223a4.819,4.819,0,1,0,4.819,4.819A4.819,4.819,0,0,0,768.556,243.855Z" transform="translate(-549.688 -199.967)" fill="#3f3d56"/>
    <path id="Path_345" data-name="Path 345" d="M38.18,637.17a5.4,5.4,0,1,1,5.4-5.4,5.4,5.4,0,0,1-5.4,5.4Zm0-10.223A4.819,4.819,0,1,0,43,631.766a4.819,4.819,0,0,0-4.819-4.819Z" transform="translate(-32.776 -471.094)" fill="#3f3d56"/>
    <path id="Path_346" data-name="Path 346" d="M164.271,399.173a9.736,9.736,0,0,0-9.736,9.736c0,5.377,9.736,23.123,9.736,23.123s9.736-17.746,9.736-23.123A9.736,9.736,0,0,0,164.271,399.173Zm0,14.848a5.111,5.111,0,1,1,5.111-5.111,5.111,5.111,0,0,1-5.111,5.111Z" transform="translate(-118.949 -310.305)" fill="#18233e"/>
    <path id="Path_347" data-name="Path 347" d="M429.937,274.251a9.736,9.736,0,0,0-9.736,9.736c0,5.377,9.736,23.123,9.736,23.123s9.736-17.746,9.736-23.123a9.736,9.736,0,0,0-9.736-9.736Zm0,14.848a5.111,5.111,0,1,1,5.111-5.111,5.111,5.111,0,0,1-5.111,5.111Z" transform="translate(-306.97 -221.893)" fill="#18233e"/>
    <path id="Path_365" data-name="Path 365" d="M758.065,154.326a9.736,9.736,0,0,0-9.736,9.736c0,5.377,9.736,23.123,9.736,23.123s9.736-17.746,9.736-23.123a9.736,9.736,0,0,0-9.736-9.736Zm0,14.848a5.111,5.111,0,1,1,5.112-5.111,5.111,5.111,0,0,1-5.112,5.111Z" transform="translate(-539.196 -137.018)" fill="#18233e"/>
    <ellipse id="Ellipse_10" data-name="Ellipse 10" cx="5.268" cy="5.268" rx="5.268" ry="5.268" transform="translate(135.114 187.927)" fill="#ff533d"/>
    <ellipse id="Ellipse_11" data-name="Ellipse 11" cx="5.268" cy="5.268" rx="5.268" ry="5.268" transform="translate(167.89 165.643)" fill="#ff533d"/>
    <ellipse id="Ellipse_12" data-name="Ellipse 12" cx="5.268" cy="5.268" rx="5.268" ry="5.268" transform="translate(127.356 144.894)" fill="#ff533d"/>
  </g>
</svg>
