<svg id="undraw_hire_re_gn5j" xmlns="http://www.w3.org/2000/svg" width="262.484" height="116.539" viewBox="0 0 262.484 116.539">
  <path id="Path_366" data-name="Path 366" d="M262.7,325.081H156.358a5.413,5.413,0,0,1-5.407-5.407V254.746a4.122,4.122,0,0,1,4.117-4.118H263.924a4.183,4.183,0,0,1,4.179,4.179v64.867A5.413,5.413,0,0,1,262.7,325.081Z" transform="translate(-150.951 -250.629)" fill="#fff"/>
  <path id="Path_367" data-name="Path 367" d="M262.7,325.081H156.358a5.413,5.413,0,0,1-5.407-5.407V254.746a4.122,4.122,0,0,1,4.117-4.118H263.924a4.183,4.183,0,0,1,4.179,4.179v64.867A5.413,5.413,0,0,1,262.7,325.081ZM155.068,251.8a2.952,2.952,0,0,0-2.948,2.948v64.928a4.243,4.243,0,0,0,4.238,4.238H262.7a4.243,4.243,0,0,0,4.238-4.238V254.807a3.013,3.013,0,0,0-3.01-3.01Z" transform="translate(-150.951 -250.629)" fill="#e6e6e6"/>
  <path id="Path_368" data-name="Path 368" d="M232.12,348.45H200.257a3.22,3.22,0,0,1-3.187-2.795,2.915,2.915,0,0,1-.028-.42V310.09a3.219,3.219,0,0,1,3.215-3.215H232.12a3.219,3.219,0,0,1,3.215,3.215v35.145A3.219,3.219,0,0,1,232.12,348.45Zm-31.863-39.821a1.463,1.463,0,0,0-1.461,1.461v35.145a1.245,1.245,0,0,0,.011.18,1.466,1.466,0,0,0,1.45,1.282H232.12a1.463,1.463,0,0,0,1.461-1.461V310.09a1.463,1.463,0,0,0-1.461-1.461Z" transform="translate(-183.571 -290.436)" fill="#e6e6e6"/>
  <path id="Path_369" data-name="Path 369" d="M398.615,398.7H360.036a2.338,2.338,0,0,1,0-4.676h38.579a2.338,2.338,0,0,1,0,4.676Z" transform="translate(-297.273 -352.115)" fill="#e6e6e6"/>
  <path id="Path_370" data-name="Path 370" d="M381.079,364.7H360.036a2.338,2.338,0,0,1,0-4.676h21.043a2.338,2.338,0,0,1,0,4.676Z" transform="translate(-297.273 -328.052)" fill="#e6e6e6"/>
  <path id="Path_371" data-name="Path 371" d="M246.834,340.016c0,5.165-4.776,4.384-10.668,4.384s-10.668.781-10.668-4.384,2.333-14.321,10.668-14.321C244.789,325.7,246.834,334.851,246.834,340.016Z" transform="translate(-203.711 -303.756)" fill="#2f2e41"/>
  <path id="Path_372" data-name="Path 372" d="M287.511,400.119a2.649,2.649,0,0,0-1.157-1.415,2.3,2.3,0,0,0-.327-.167,2.646,2.646,0,0,0-3.5,3.352l4.25,9.659h5.6Z" transform="translate(-243.956 -355.165)" fill="#3f3d56"/>
  <path id="Path_373" data-name="Path 373" d="M218.1,405.6a2.647,2.647,0,0,0-3.65,1.511L210.5,416.42a2.3,2.3,0,0,0,.622.085h4.966l3.355-7.622A2.641,2.641,0,0,0,218.1,405.6Z" transform="translate(-193.092 -360.121)" fill="#3f3d56"/>
  <ellipse id="Ellipse_13" data-name="Ellipse 13" cx="7.178" cy="7.178" rx="7.178" ry="7.178" transform="translate(25.242 26.279)" fill="#ffb8b8"/>
  <path id="Path_374" data-name="Path 374" d="M245.112,396.808c-.041-.038-.082-.079-.126-.114a4.662,4.662,0,0,0-3.726-1.16l-13.228,1.675a4.694,4.694,0,0,0-4.1,5.1c.181,2.04.474,4.615.941,7.234h20.9l.769-8.932a4.687,4.687,0,0,0-1.429-3.8Z" transform="translate(-202.589 -353.155)" fill="#3f3d56"/>
  <path id="Path_375" data-name="Path 375" d="M233.5,344.294h2.839l1.253-3.507.25,3.507H239.2l.731-2.046.146,2.046h10.083a7.6,7.6,0,0,0-7.6-7.6H241.1A7.6,7.6,0,0,0,233.5,344.294Z" transform="translate(-209.373 -311.541)" fill="#2f2e41"/>
  <path id="Path_376" data-name="Path 376" d="M648.211,319.674V254.807a4.183,4.183,0,0,1,4.179-4.179H761.245a4.122,4.122,0,0,1,4.117,4.118v64.928a5.413,5.413,0,0,1-5.407,5.407H653.618A5.413,5.413,0,0,1,648.211,319.674Z" transform="translate(-502.878 -250.629)" fill="#fff"/>
  <path id="Path_377" data-name="Path 377" d="M648.211,319.674V254.807a4.183,4.183,0,0,1,4.179-4.179H761.245a4.122,4.122,0,0,1,4.117,4.118v64.928a5.413,5.413,0,0,1-5.407,5.407H653.618A5.413,5.413,0,0,1,648.211,319.674ZM652.39,251.8a3.013,3.013,0,0,0-3.01,3.01v64.867a4.243,4.243,0,0,0,4.238,4.238H759.956a4.243,4.243,0,0,0,4.238-4.238V254.746a2.952,2.952,0,0,0-2.948-2.948Z" transform="translate(-502.878 -250.629)" fill="#e6e6e6"/>
  <path id="Path_378" data-name="Path 378" d="M871.938,345.235V310.09a3.218,3.218,0,0,1,3.215-3.215h31.863a3.219,3.219,0,0,1,3.215,3.215v35.145a2.929,2.929,0,0,1-.028.42,3.22,3.22,0,0,1-3.187,2.795H875.153a3.219,3.219,0,0,1-3.215-3.215Zm3.215-36.606a1.463,1.463,0,0,0-1.461,1.461v35.145a1.463,1.463,0,0,0,1.461,1.461h31.863a1.466,1.466,0,0,0,1.45-1.282,1.237,1.237,0,0,0,.011-.18V310.09a1.463,1.463,0,0,0-1.461-1.461Z" transform="translate(-661.217 -290.436)" fill="#e6e6e6"/>
  <path id="Path_379" data-name="Path 379" d="M694.3,396.363a2.341,2.341,0,0,1,2.338-2.338h38.579a2.338,2.338,0,0,1,0,4.676H696.64A2.341,2.341,0,0,1,694.3,396.363Z" transform="translate(-535.499 -352.115)" fill="#e6e6e6"/>
  <path id="Path_380" data-name="Path 380" d="M694.3,362.363a2.341,2.341,0,0,1,2.338-2.338h21.043a2.338,2.338,0,0,1,0,4.676H696.64A2.341,2.341,0,0,1,694.3,362.363Z" transform="translate(-535.499 -328.052)" fill="#e6e6e6"/>
  <path id="Path_381" data-name="Path 381" d="M907.949,333.782c2.049,4.028,3.664,8.183,8.183,8.183a8.183,8.183,0,0,0,0-16.367C911.54,325.54,904.136,326.283,907.949,333.782Z" transform="translate(-685.957 -303.685)" fill="#2f2e41"/>
  <ellipse id="Ellipse_14" data-name="Ellipse 14" cx="7.178" cy="7.178" rx="7.178" ry="7.178" transform="translate(222.595 24.083)" fill="#a0616a"/>
  <path id="Path_382" data-name="Path 382" d="M918.733,392.7a12.508,12.508,0,0,0-1.505-1.391,12.2,12.2,0,0,0-8.3-2.572q-.18.009-.359.026a12.224,12.224,0,0,0-8.815,4.863,12.377,12.377,0,0,0-2.2,9.981c.079.365.149.734.216,1.1h23.8l.275-1.841A12.3,12.3,0,0,0,918.733,392.7Z" transform="translate(-679.16 -348.357)" fill="#3f3d56"/>
  <path id="Path_383" data-name="Path 383" d="M963.191,400.578a4.166,4.166,0,0,0-4.071-3.449l-.117,0a4.194,4.194,0,0,0-.962.134,4.15,4.15,0,0,0-2.94,5.094l2.247,8.306h7.564Z" transform="translate(-719.973 -354.312)" fill="#3f3d56"/>
  <path id="Path_384" data-name="Path 384" d="M897.8,396.022a4.142,4.142,0,0,0-1.2-1.426,4.025,4.025,0,0,0-1.175-.614,3.9,3.9,0,0,0-.529-.14,4.171,4.171,0,0,0-4.705,2.7l-4.115,11.746h7.809l3.984-8.639a4.118,4.118,0,0,0-.073-3.627Z" transform="translate(-671.227 -351.934)" fill="#3f3d56"/>
  <path id="Path_385" data-name="Path 385" d="M911.064,334.4a9.763,9.763,0,0,0,5.58,1.724,5.983,5.983,0,0,1-2.371.976,19.687,19.687,0,0,0,8.041.045,5.2,5.2,0,0,0,1.683-.578,2.13,2.13,0,0,0,1.039-1.39,2.871,2.871,0,0,0-1.425-2.541,10.512,10.512,0,0,0-8.833-1.765,4.837,4.837,0,0,0-2.616,1.478,2.383,2.383,0,0,0-.22,2.83Z" transform="translate(-688.908 -307.196)" fill="#2f2e41"/>
  <path id="Path_386" data-name="Path 386" d="M511.326,469.081H404.988a5.413,5.413,0,0,1-5.407-5.407V398.746a4.122,4.122,0,0,1,4.117-4.118H512.554a4.183,4.183,0,0,1,4.179,4.179v64.867A5.413,5.413,0,0,1,511.326,469.081Z" transform="translate(-326.915 -352.542)" fill="#fff"/>
  <path id="Path_387" data-name="Path 387" d="M511.326,469.081H404.988a5.413,5.413,0,0,1-5.407-5.407V398.746a4.122,4.122,0,0,1,4.117-4.118H512.554a4.183,4.183,0,0,1,4.179,4.179v64.867A5.413,5.413,0,0,1,511.326,469.081ZM403.7,395.8a2.952,2.952,0,0,0-2.948,2.949v64.928a4.243,4.243,0,0,0,4.238,4.238H511.326a4.243,4.243,0,0,0,4.238-4.238V398.807a3.013,3.013,0,0,0-3.01-3.01Z" transform="translate(-326.915 -352.542)" fill="#3f3d56"/>
  <path id="Path_388" data-name="Path 388" d="M480.75,492.45H448.887a3.22,3.22,0,0,1-3.187-2.795,2.921,2.921,0,0,1-.028-.42V454.09a3.219,3.219,0,0,1,3.215-3.215H480.75a3.219,3.219,0,0,1,3.215,3.215v35.145A3.219,3.219,0,0,1,480.75,492.45Zm-31.863-39.821a1.463,1.463,0,0,0-1.461,1.461v35.145a1.25,1.25,0,0,0,.011.18,1.466,1.466,0,0,0,1.45,1.282H480.75a1.463,1.463,0,0,0,1.461-1.461V454.09a1.463,1.463,0,0,0-1.461-1.461Z" transform="translate(-359.535 -392.35)" fill="#e6e6e6"/>
  <path id="Path_389" data-name="Path 389" d="M476,470.249a8.493,8.493,0,0,0-6.731-.385c-2.111.9-3.549,3.195-2.867,5.229.309.922,1.014,1.829.74,2.76a2.842,2.842,0,0,1-1.673,1.527,6.231,6.231,0,0,0-2.04,1.187,1.334,1.334,0,0,0,.021,1.985c.215.145.485.214.694.367a1.1,1.1,0,0,1,.34,1.234,2.6,2.6,0,0,1-.833,1.1c-.743.64-1.724,1.373-1.493,2.282a1.6,1.6,0,0,0,1.081,1.011,5.367,5.367,0,0,0,1.586.209l21.91.69a8.307,8.307,0,0,0,2.163-.121,2.561,2.561,0,0,0,1.7-1.141,2.379,2.379,0,0,0-.374-2.459,23.321,23.321,0,0,0-1.857-1.963,3.116,3.116,0,0,1-.995-2.358,6.026,6.026,0,0,1,.866-1.91,1.9,1.9,0,0,0,.093-1.984c-.6-.812-2.025-.738-2.7-1.494a3.351,3.351,0,0,1-.463-2.128,5.162,5.162,0,0,0-3.092-4.218,6.088,6.088,0,0,0-5.539.377Z" transform="translate(-371.176 -405.298)" fill="#2f2e41"/>
  <ellipse id="Ellipse_15" data-name="Ellipse 15" cx="7.178" cy="7.178" rx="7.178" ry="7.178" transform="translate(98.453 69.617)" fill="#a0616a"/>
  <path id="Path_390" data-name="Path 390" d="M494.419,552a6.953,6.953,0,0,0-3.706-6.108c-.09-.05-.184-.094-.278-.137a6.9,6.9,0,0,0-2.575-.655l-6.833-.383a6.9,6.9,0,0,0-2.835.435,6.626,6.626,0,0,0-.646.281,6.881,6.881,0,0,0-1.789,1.271,6.958,6.958,0,0,0-2.063,5.243l.123,2.9.859,2.23h19.105a5.244,5.244,0,0,0,.614-.929,4.652,4.652,0,0,0,.023-4.144Z" transform="translate(-379.363 -458.757)" fill="#3f3d56"/>
  <path id="Path_391" data-name="Path 391" d="M523.8,550.677A4.133,4.133,0,0,0,522.384,549a4.223,4.223,0,0,0-1.464-.637,4.289,4.289,0,0,0-.637-.091,4.118,4.118,0,0,0-1.257.108,4.172,4.172,0,0,0-2.686,5.989l2.628,4.974.131.248h8.824Z" transform="translate(-409.21 -461.274)" fill="#3f3d56"/>
  <path id="Path_392" data-name="Path 392" d="M474.861,546.552a4.192,4.192,0,0,0-1.318-.415,4.062,4.062,0,0,0-1.032-.015,4.167,4.167,0,0,0-3.612,3.3l-1.78,8.636h6.962l1.3-.532L477,551.313A4.185,4.185,0,0,0,474.861,546.552Z" transform="translate(-374.714 -459.741)" fill="#3f3d56"/>
  <path id="Path_393" data-name="Path 393" d="M482.911,488.111a4.45,4.45,0,0,0,3.913-4.709,3.8,3.8,0,0,0,3.256,3.871c1.04.115,2.18-.2,3.085.325,1,.581,1.323,1.992,2.368,2.494a2.242,2.242,0,0,0,2.789-1.179,4.468,4.468,0,0,0,.046-3.276,9.251,9.251,0,0,0-15.4-3.792,5.923,5.923,0,0,0-1.833,3.527,3.474,3.474,0,0,0,1.711,3.412Z" transform="translate(-384.623 -412.337)" fill="#2f2e41"/>
  <path id="Path_394" data-name="Path 394" d="M647.245,542.7H608.666a2.338,2.338,0,0,1,0-4.676h38.579a2.338,2.338,0,0,1,0,4.676Z" transform="translate(-473.236 -454.029)" fill="#e6e6e6"/>
  <path id="Path_395" data-name="Path 395" d="M629.709,508.7H608.666a2.338,2.338,0,0,1,0-4.676h21.043a2.338,2.338,0,0,1,0,4.676Z" transform="translate(-473.236 -429.966)" fill="#ff533d"/>
  <path id="Path_395-2" data-name="Path 395" d="M715.043,599.168a.936.936,0,0,1-.563-.187l-.01-.008-2.12-1.622a.942.942,0,1,1,1.146-1.5l1.373,1.053,3.245-4.233a.942.942,0,0,1,1.32-.174h0l-.02.028.021-.028a.943.943,0,0,1,.174,1.321l-3.817,4.977a.942.942,0,0,1-.749.367Z" transform="translate(-548.011 -492.445)" fill="#fff"/>
</svg>
