<svg id="undraw_design_sprint_re_tke3" xmlns="http://www.w3.org/2000/svg" width="264.936" height="178.837" viewBox="0 0 264.936 178.837">
  <path id="Path_115" data-name="Path 115" d="M304.63,222.759H112.542V144.052H304.63Zm-191.5-.585H304.046V144.637H113.127Z" transform="translate(-112.542 -144.052)" fill="#3f3d56"/>
  <path id="Path_116" data-name="Path 116" d="M174.642,211.835H162.57a42.221,42.221,0,0,1,0-14.393h12.072a25.9,25.9,0,0,0,0,14.393Z" transform="translate(-147.511 -181.838)" fill="#ff533d"/>
  <path id="Path_117" data-name="Path 117" d="M241.128,232.813H253.2a42.221,42.221,0,0,0,0-14.393H241.128A25.9,25.9,0,0,1,241.128,232.813Z" transform="translate(-203.547 -196.685)" fill="#ab967a"/>
  <path id="Path_118" data-name="Path 118" d="M506.644,275.614h16.4a.439.439,0,0,0,0-.877h-16.4a.439.439,0,0,0,0,.877Z" transform="translate(-391.162 -236.542)" fill="#e6e6e6"/>
  <path id="Path_119" data-name="Path 119" d="M559.223,261.8l2.563,2.339a7.423,7.423,0,0,1,1.281,1.17c.377.723-.028.558-.673.809a14.427,14.427,0,0,0-4.315,2.679c-.424.374.2.992.62.62a13.4,13.4,0,0,1,3.928-2.454c.517-.2,1.5-.324,1.744-.94.3-.754-.657-1.31-1.111-1.724l-3.417-3.119c-.416-.38-1.038.239-.62.62Z" transform="translate(-427.763 -226.86)" fill="#e6e6e6"/>
  <path id="Path_120" data-name="Path 120" d="M193.128,303.813H205.2a42.222,42.222,0,0,0,0-14.393H193.128A25.9,25.9,0,0,1,193.128,303.813Z" transform="translate(-169.575 -246.934)" fill="#18233e"/>
  <path id="Path_121" data-name="Path 121" d="M514.128,207.813H526.2a42.222,42.222,0,0,0,0-14.393H514.128A25.9,25.9,0,0,1,514.128,207.813Z" transform="translate(-396.758 -178.992)" fill="#18233e"/>
  <path id="Path_122" data-name="Path 122" d="M263.04,91.774V56.25l-3.215-.717V94.989l24.258-.248L284,91.56Z" transform="translate(-183.887 -39.302)" fill="#f2f2f2"/>
  <path id="Path_123" data-name="Path 123" d="M394.594,230.792H365.367V183.737h29.227Zm-28.642-.585h28.058V184.322H365.952Z" transform="translate(-291.475 -172.138)" fill="#3f3d56"/>
  <rect id="Rectangle_3" data-name="Rectangle 3" width="4.734" height="0.585" transform="translate(76.523 14.521)" fill="#3f3d56"/>
  <rect id="Rectangle_4" data-name="Rectangle 4" width="4.734" height="0.585" transform="translate(76.523 15.982)" fill="#3f3d56"/>
  <rect id="Rectangle_5" data-name="Rectangle 5" width="4.734" height="0.585" transform="translate(76.523 17.444)" fill="#3f3d56"/>
  <rect id="Rectangle_6" data-name="Rectangle 6" width="20.224" height="0.585" transform="translate(78.861 42.579)" fill="#3f3d56"/>
  <rect id="Rectangle_7" data-name="Rectangle 7" width="20.224" height="0.585" transform="translate(78.861 45.794)" fill="#3f3d56"/>
  <rect id="Rectangle_8" data-name="Rectangle 8" width="20.224" height="0.585" transform="translate(78.861 49.009)" fill="#3f3d56"/>
  <path id="Path_124" data-name="Path 124" d="M445.413,196.829a2.046,2.046,0,1,1,2.046-2.046A2.046,2.046,0,0,1,445.413,196.829Zm0-3.507a1.461,1.461,0,1,0,1.461,1.461A1.461,1.461,0,0,0,445.413,193.322Z" transform="translate(-346.678 -178.508)" fill="#3f3d56"/>
  <path id="Path_125" data-name="Path 125" d="M402.118,234.181H381.367V220.737h20.751Zm-20.166-.585h19.582V221.322H381.952Z" transform="translate(-302.798 -198.325)" fill="#3f3d56"/>
  <rect id="Rectangle_9" data-name="Rectangle 9" width="0.585" height="23.918" transform="translate(78.704 22.951) rotate(-57.475)" fill="#3f3d56"/>
  <rect id="Rectangle_10" data-name="Rectangle 10" width="23.918" height="0.585" transform="translate(78.703 35.317) rotate(-32.525)" fill="#3f3d56"/>
  <path id="Path_126" data-name="Path 126" d="M517.04,91.774V56.25l-3.215-.717V94.989l24.258-.248L538,91.56Z" transform="translate(-363.651 -39.302)" fill="#f2f2f2"/>
  <path id="Path_127" data-name="Path 127" d="M649.594,228.792H620.367V181.737h29.227Zm-28.642-.585h28.058V182.322H620.952Z" transform="translate(-471.947 -170.723)" fill="#3f3d56"/>
  <rect id="Rectangle_11" data-name="Rectangle 11" width="4.734" height="0.585" transform="translate(151.051 13.937)" fill="#3f3d56"/>
  <rect id="Rectangle_12" data-name="Rectangle 12" width="4.734" height="0.585" transform="translate(151.051 15.398)" fill="#3f3d56"/>
  <rect id="Rectangle_13" data-name="Rectangle 13" width="4.734" height="0.585" transform="translate(151.051 16.859)" fill="#3f3d56"/>
  <path id="Path_128" data-name="Path 128" d="M700.413,194.829a2.046,2.046,0,1,1,2.046-2.046A2.046,2.046,0,0,1,700.413,194.829Zm0-3.507a1.461,1.461,0,1,0,1.461,1.461A1.461,1.461,0,0,0,700.413,191.322Z" transform="translate(-527.15 -177.093)" fill="#3f3d56"/>
  <path id="Path_129" data-name="Path 129" d="M657.118,232.181H636.367V218.737h20.751Zm-20.166-.585h19.582V219.322H636.952Z" transform="translate(-483.27 -196.909)" fill="#3f3d56"/>
  <rect id="Rectangle_14" data-name="Rectangle 14" width="0.585" height="23.918" transform="translate(153.233 22.366) rotate(-57.475)" fill="#3f3d56"/>
  <rect id="Rectangle_15" data-name="Rectangle 15" width="23.918" height="0.585" transform="matrix(0.843, -0.538, 0.538, 0.843, 153.231, 34.732)" fill="#3f3d56"/>
  <path id="Path_130" data-name="Path 130" d="M657.118,292.181H636.367V278.737h20.751Zm-20.166-.585h19.582V279.322H636.952Z" transform="translate(-483.27 -239.373)" fill="#3f3d56"/>
  <rect id="Rectangle_16" data-name="Rectangle 16" width="0.585" height="23.918" transform="translate(153.233 39.902) rotate(-57.475)" fill="#3f3d56"/>
  <rect id="Rectangle_17" data-name="Rectangle 17" width="23.918" height="0.585" transform="matrix(0.843, -0.538, 0.538, 0.843, 153.231, 52.268)" fill="#3f3d56"/>
  <path id="Path_131" data-name="Path 131" d="M400.128,340.813H412.2a42.22,42.22,0,0,0,0-14.393H400.128a25.9,25.9,0,0,1,0,14.393Z" transform="translate(-316.076 -273.12)" fill="#18233e"/>
  <ellipse id="Ellipse_3" data-name="Ellipse 3" cx="8.553" cy="8.553" rx="8.553" ry="8.553" transform="translate(197.943 54.527) rotate(-28.663)" fill="#ffb8b8"/>
  <ellipse id="Ellipse_4" data-name="Ellipse 4" cx="7.567" cy="7.567" rx="7.567" ry="7.567" transform="translate(215.395 39.743)" fill="#2f2e41"/>
  <path id="Path_132" data-name="Path 132" d="M937.879,310.226a7.567,7.567,0,0,1-11.685-3.973,7.567,7.567,0,1,0,14.761-3.1A7.565,7.565,0,0,1,937.879,310.226Z" transform="translate(-708.39 -256.651)" fill="#2f2e41"/>
  <path id="Path_133" data-name="Path 133" d="M864,312.945c1.321-2.365,1.826-3.353,3.53-4.791,1.506-1.272,3.359-1.645,4.853-.44a9,9,0,1,1-5.339,7.2C865.746,314.734,865.3,313.127,864,312.945Z" transform="translate(-664.374 -259.361)" fill="#2f2e41"/>
  <path id="Path_134" data-name="Path 134" d="M705.075,557.105l-3.912-1.136,2.521-15.631,5.774,1.677Z" transform="translate(-516.236 -382.415)" fill="#ffb8b8"/>
  <path id="Path_135" data-name="Path 135" d="M4.351,0H12.8V4.947H0v-.6A4.351,4.351,0,0,1,4.351,0Z" transform="translate(177.707 170.244) rotate(16.197)" fill="#2f2e41"/>
  <path id="Path_136" data-name="Path 136" d="M838.322,559.975h-4.074l-1.938-15.714h6.013Z" transform="translate(-609.054 -385.191)" fill="#ffb8b8"/>
  <path id="Path_137" data-name="Path 137" d="M816.409,594.043h8.453v4.947h-12.8v-.6A4.351,4.351,0,0,1,816.409,594.043Z" transform="translate(-594.721 -420.424)" fill="#2f2e41"/>
  <path id="Path_138" data-name="Path 138" d="M929.772,514.427a3.342,3.342,0,0,1,.938-5.037l-2.115-11.685,5.674,2.425,1.139,10.724a3.36,3.36,0,0,1-5.635,3.573Z" transform="translate(-710.09 -394.344)" fill="#ffb8b8"/>
  <path id="Path_139" data-name="Path 139" d="M908.13,405.407l-6.657-20.21a4.494,4.494,0,0,0-5.4-1.73,3.017,3.017,0,0,0-1.864,1.52c-1.056,2.025-.071,5.153-.067,5.17l8.2,18.366.009.019L904.93,427.4l5.587-1.134Z" transform="translate(-685.405 -313.301)" fill="#18233e"/>
  <path id="Path_140" data-name="Path 140" d="M791.638,537.328l10.02-30.725,11.618-26.555-.167-12.879,13.787-3.215,1.605,5.4c9.285,6.127,6.226,17.912,6.008,18.7l13.99,51.632-15.255,1.7L823,492.494l-9.443,19.864-6.677,29.713Z" transform="translate(-613.161 -370.457)" fill="#2f2e41"/>
  <path id="Path_141" data-name="Path 141" d="M858.541,394.7c-2.741-5.254-.759-7.255,2.237-10.281a41.246,41.246,0,0,0,3.441-3.8c4.675-6.011,10.1-3.059,10.156-3.028l.031.017,1.341,2.011c4.418,4.446-2.282,16.664-2.791,17.574l.336,8.737-14.248,1.357Z" transform="translate(-659.587 -308.801)" fill="#18233e"/>
  <path id="Path_142" data-name="Path 142" d="M879.522,513.467a3.341,3.341,0,0,1,2.182-4.636l.91-11.84,4.876,3.782-1.612,10.664a3.36,3.36,0,0,1-6.356,2.031Z" transform="translate(-675.14 -393.839)" fill="#ffb8b8"/>
  <path id="Path_143" data-name="Path 143" d="M881.415,424.623l2.3-19.17-3.281-19.838c-.008-.139-.171-3.429,1.445-5.212a3.3,3.3,0,0,1,2.392-1.1,4.845,4.845,0,0,1,5.089,3.27l1.335,21.311-3.012,21.082Z" transform="translate(-676 -310.546)" fill="#18233e"/>
  <path id="Path_144" data-name="Path 144" d="M704.75,754.533H816.1a.292.292,0,1,0,0-.585H704.75a.292.292,0,1,0,0,.585Z" transform="translate(-551.461 -575.696)" fill="#ccc"/>
</svg>
