<svg id="undraw_redesign_feedback_re_jvm0" xmlns="http://www.w3.org/2000/svg" width="227.64" height="176.529" viewBox="0 0 227.64 176.529">
  <path id="Path_397" data-name="Path 397" d="M507.047,235.923H481.327a1.461,1.461,0,1,1,0-2.923h25.719a1.461,1.461,0,0,1,0,2.923Z" transform="translate(-378.157 -208.157)" fill="#ccc"/>
  <path id="Path_398" data-name="Path 398" d="M526.921,270.923H481.327a1.461,1.461,0,1,1,0-2.923h45.594a1.461,1.461,0,0,1,0,2.923Z" transform="translate(-378.157 -232.928)" fill="#ccc"/>
  <path id="Path_399" data-name="Path 399" d="M515.523,305.923h-34.2a1.461,1.461,0,1,1,0-2.923h34.2a1.461,1.461,0,1,1,0,2.923Z" transform="translate(-378.157 -257.699)" fill="#ccc"/>
  <path id="Path_400" data-name="Path 400" d="M526.921,340.923H481.327a1.461,1.461,0,1,1,0-2.923h45.594a1.461,1.461,0,0,1,0,2.923Z" transform="translate(-378.157 -282.469)" fill="#ccc"/>
  <circle id="Ellipse_16" data-name="Ellipse 16" cx="26.149" cy="26.149" r="26.149" transform="translate(17.488 14.928)" fill="#18233e"/>
  <path id="Path_401" data-name="Path 401" d="M279.093,197.047H276.17v-2.923h2.923Zm-2.338-.585h1.754v-1.754h-1.754Z" transform="translate(-233.995 -180.643)" fill="#3f3d56"/>
  <rect id="Rectangle_25" data-name="Rectangle 25" width="15.49" height="0.585" transform="translate(44.582 14.65)" fill="#3f3d56"/>
  <circle id="Ellipse_17" data-name="Ellipse 17" cx="0.609" cy="0.609" r="0.609" transform="translate(59.464 14.333)" fill="#3f3d56"/>
  <rect id="Rectangle_26" data-name="Rectangle 26" width="15.198" height="0.585" transform="translate(27.338 14.65)" fill="#3f3d56"/>
  <circle id="Ellipse_18" data-name="Ellipse 18" cx="0.609" cy="0.609" r="0.609" transform="translate(26.73 14.333)" fill="#3f3d56"/>
  <path id="Path_402" data-name="Path 402" d="M368.328,286.233H365.4V283.31h2.923Zm-2.338-.585h1.754v-1.754H365.99Z" transform="translate(-297.149 -243.763)" fill="#3f3d56"/>
  <rect id="Rectangle_27" data-name="Rectangle 27" width="0.585" height="15.198" transform="translate(69.425 42.246)" fill="#3f3d56"/>
  <circle id="Ellipse_19" data-name="Ellipse 19" cx="0.609" cy="0.609" r="0.609" transform="translate(69.108 56.835)" fill="#3f3d56"/>
  <rect id="Rectangle_28" data-name="Rectangle 28" width="0.585" height="15.198" transform="translate(69.425 24.71)" fill="#3f3d56"/>
  <circle id="Ellipse_20" data-name="Ellipse 20" cx="0.609" cy="0.609" r="0.609" transform="translate(69.108 24.101)" fill="#3f3d56"/>
  <path id="Path_403" data-name="Path 403" d="M189.328,286.233H186.4V283.31h2.923Zm-2.338-.585h1.754v-1.754H186.99Z" transform="translate(-170.465 -243.763)" fill="#3f3d56"/>
  <rect id="Rectangle_29" data-name="Rectangle 29" width="0.585" height="15.198" transform="translate(17.109 42.246)" fill="#3f3d56"/>
  <circle id="Ellipse_21" data-name="Ellipse 21" cx="0.609" cy="0.609" r="0.609" transform="translate(16.793 56.835)" fill="#3f3d56"/>
  <rect id="Rectangle_30" data-name="Rectangle 30" width="0.585" height="15.782" transform="translate(17.109 24.125)" fill="#3f3d56"/>
  <circle id="Ellipse_22" data-name="Ellipse 22" cx="0.609" cy="0.609" r="0.609" transform="translate(16.793 24.101)" fill="#3f3d56"/>
  <path id="Path_404" data-name="Path 404" d="M279.093,376.047H276.17v-2.923h2.923Zm-2.338-.585h1.754v-1.754h-1.754Z" transform="translate(-233.995 -307.328)" fill="#3f3d56"/>
  <rect id="Rectangle_31" data-name="Rectangle 31" width="15.49" height="0.585" transform="translate(44.874 66.965)" fill="#3f3d56"/>
  <circle id="Ellipse_23" data-name="Ellipse 23" cx="0.609" cy="0.609" r="0.609" transform="translate(59.464 66.649)" fill="#3f3d56"/>
  <rect id="Rectangle_32" data-name="Rectangle 32" width="15.198" height="0.585" transform="translate(27.338 66.965)" fill="#3f3d56"/>
  <circle id="Ellipse_24" data-name="Ellipse 24" cx="0.609" cy="0.609" r="0.609" transform="translate(26.73 66.649)" fill="#3f3d56"/>
  <path id="Path_405" data-name="Path 405" d="M296.12,237.141H136.835a4.974,4.974,0,0,1-4.969-4.969v-79.2A4.974,4.974,0,0,1,136.835,148H296.12a4.974,4.974,0,0,1,4.969,4.969v79.2A4.974,4.974,0,0,1,296.12,237.141ZM136.835,148.585a4.389,4.389,0,0,0-4.384,4.384v79.2a4.389,4.389,0,0,0,4.384,4.384H296.12a4.389,4.389,0,0,0,4.384-4.384v-79.2a4.389,4.389,0,0,0-4.384-4.384Z" transform="translate(-131.866 -148)" fill="#3f3d56"/>
  <ellipse id="Ellipse_25" data-name="Ellipse 25" cx="1" cy="1.5" rx="1" ry="1.5" transform="translate(95.445 24.627)" fill="#ccc"/>
  <ellipse id="Ellipse_26" data-name="Ellipse 26" cx="1" cy="1.5" rx="1" ry="1.5" transform="translate(95.445 34.627)" fill="#ccc"/>
  <ellipse id="Ellipse_27" data-name="Ellipse 27" cx="1" cy="1.5" rx="1" ry="1.5" transform="translate(95.445 45.627)" fill="#ccc"/>
  <ellipse id="Ellipse_28" data-name="Ellipse 28" cx="1" cy="1.5" rx="1" ry="1.5" transform="translate(95.445 55.627)" fill="#ccc"/>
  <path id="Path_406" data-name="Path 406" d="M545.65,356.2h-8.925a1.1,1.1,0,0,1-1.1-1.1V344.569a1.1,1.1,0,0,1,1.1-1.1h8.925a1.1,1.1,0,0,1,1.1,1.1V355.1A1.1,1.1,0,0,1,545.65,356.2Z" transform="translate(-417.621 -286.341)" fill="#ff533d"/>
  <path id="Path_407" data-name="Path 407" d="M878.446,646.843l-.991.243c.447.064.894.126,1.341.181h16.525q1.859-.237,3.7-.585a57.616,57.616,0,0,0,20.739-8.216c3.878-2.522,7.576-5.623,9.583-9.788a17.226,17.226,0,0,0-2.119-17.741,17.761,17.761,0,0,0-5.141-4.384c-.3-.169-.593-.33-.9-.482a19.306,19.306,0,0,0-10.665-1.952,21.154,21.154,0,0,0-15.321,9.817c-3.674,5.88-4.378,13.076-4.992,19.982a7.866,7.866,0,0,0-8.961-4.98,9.346,9.346,0,0,0-6.95,7.935,11.536,11.536,0,0,0,3.963,9.808C878.321,646.735,878.382,646.791,878.446,646.843Z" transform="translate(-703.257 -470.738)" fill="#f2f2f2"/>
  <path id="Path_408" data-name="Path 408" d="M931.852,652.1h.827a.6.6,0,0,0,.184-.248c.047-.111.091-.225.14-.336a100.92,100.92,0,0,1,29.545-39.7.472.472,0,0,0,.2-.433.637.637,0,0,0-1.029-.4,102.13,102.13,0,0,0-29.981,40.529c0,.009-.006.015-.009.023A.455.455,0,0,0,931.852,652.1Z" transform="translate(-743.919 -475.573)" fill="#fff"/>
  <path id="Path_409" data-name="Path 409" d="M833.138,470.821a3.331,3.331,0,0,1,3.328-3.328c.032,0,.064,0,.1,0l10.29-8.2-7.374-7.374a3.253,3.253,0,0,1,4.6-4.6l11.853,11.853L839.791,470.91a3.327,3.327,0,1,1-6.654-.089Z" transform="translate(-674.179 -359.164)" fill="#ffb8b8"/>
  <path id="Path_410" data-name="Path 410" d="M651.517,552.9l-3.48-1.3,3.355-14.041,5.136,1.918Z" transform="translate(-504.637 -380.45)" fill="#ffb8b8"/>
  <path id="Path_411" data-name="Path 411" d="M4.351,0h7.324V4.511H0v-.16A4.351,4.351,0,0,1,4.351,0Z" transform="translate(137.058 167.652) rotate(20.472)" fill="#2f2e41"/>
  <path id="Path_412" data-name="Path 412" d="M753.792,555.533h-3.715l-1.767-14.328h5.483Z" transform="translate(-575.604 -383.029)" fill="#ffb8b8"/>
  <path id="Path_413" data-name="Path 413" d="M734.2,586.6h7.324v4.511H729.844v-.16A4.351,4.351,0,0,1,734.2,586.6Z" transform="translate(-562.535 -415.154)" fill="#2f2e41"/>
  <path id="Path_414" data-name="Path 414" d="M810.984,566.325a1.313,1.313,0,0,1-.4-1.025c.663-10.943-5.1-30.833-6.888-36.668a1,1,0,0,0-.691-.68,1.036,1.036,0,0,0-.969.218c-9.634,8.392-12.509,32.066-12.987,36.727a1.313,1.313,0,0,1-1.471,1.168l-4.808-.6a1.315,1.315,0,0,1-1.122-1.583l12.607-58.29.008-.035.023-.028c3.049-3.659,11.882-2.234,12.256-2.172l.039.006.03.025c11.343,9.406,10.768,53.007,10.538,61.652a1.315,1.315,0,0,1-1.19,1.272l-3.938.375q-.063.006-.126.006a1.311,1.311,0,0,1-.912-.369Z" transform="translate(-637.718 -399.268)" fill="#2f2e41"/>
  <ellipse id="Ellipse_29" data-name="Ellipse 29" cx="7.178" cy="7.178" rx="7.178" ry="7.178" transform="translate(159.422 66.264)" fill="#ffb8b8"/>
  <path id="Path_415" data-name="Path 415" d="M841.425,435.863s-6.666-7.878-12.12-1.515h0a21.66,21.66,0,0,0-5.205,14.74l.206,6.925,12.574-1.969Z" transform="translate(-667.776 -348.901)" fill="#18233e"/>
  <path id="Path_416" data-name="Path 416" d="M843.6,375.932l-3.084-3.633a6.082,6.082,0,0,1-1.739-3.179,3.866,3.866,0,0,1,1.807-3.4,7.849,7.849,0,0,1,3.826-1.143,11,11,0,0,1,7.156,1.649,6.607,6.607,0,0,1,2.887,6.46c-.393,1.927-1.841,3.772-1.278,5.656.616,2.061,3.141,2.694,5.2,3.309a14.518,14.518,0,0,1,8.578,6.186c1.814,3.123,1.806,7.428-.612,10.111a9.094,9.094,0,0,1-6.261,2.747,18.328,18.328,0,0,1-6.872-1.17,16.125,16.125,0,0,1-5.661-3.019,7.584,7.584,0,0,1-2.712-5.642c.048-2.052,1.147-3.921,1.6-5.923a9.719,9.719,0,0,0-3.038-9.274" transform="translate(-678.159 -301.247)" fill="#2f2e41"/>
  <path id="Path_417" data-name="Path 417" d="M804.95,594.508h-8.925a1.1,1.1,0,0,1-1.1-1.1V582.876a1.1,1.1,0,0,1,1.1-1.1h8.925a1.1,1.1,0,0,1,1.1,1.1v10.532A1.1,1.1,0,0,1,804.95,594.508Z" transform="translate(-647.136 -454.999)" fill="#18233e"/>
  <path id="Path_418" data-name="Path 418" d="M818.929,483.83a3.249,3.249,0,0,1,.644-4.24l4.885-38.489a3.414,3.414,0,0,1,3.38-2.979h.046a3.408,3.408,0,0,1,3.309,4.013l-6.869,38.013v0a3.264,3.264,0,0,1-1.283,4.9,3.179,3.179,0,0,1-1.323.285A3.309,3.309,0,0,1,818.929,483.83Z" transform="translate(-663.76 -353.329)" fill="#ffb8b8"/>
  <path id="Path_419" data-name="Path 419" d="M803.692,750.585H728.579a.292.292,0,0,1,0-.585h75.113a.292.292,0,1,1,0,.585Z" transform="translate(-599.973 -574.055)" fill="#3f3d56"/>
</svg>
