<svg xmlns="http://www.w3.org/2000/svg" width="228.639" height="203.578" viewBox="0 0 228.639 203.578">
  <g id="Group_7" data-name="Group 7" transform="translate(-445.146 -220.553)">
    <g id="undraw_design_process_re_0dhf" transform="translate(445.146 220.553)">
      <path id="Path_104" data-name="Path 104" d="M261.695,183.721h-.8V161.814a12.68,12.68,0,0,0-12.68-12.68H201.8a12.68,12.68,0,0,0-12.68,12.68V282a12.68,12.68,0,0,0,12.68,12.68h46.415A12.68,12.68,0,0,0,260.9,282V199.316h.8Z" transform="translate(-189.121 -149.134)" fill="#3f3d56"/>
      <path id="Path_105" data-name="Path 105" d="M257.2,160.421H251.14a4.5,4.5,0,0,1-4.165,6.2H220.385a4.5,4.5,0,0,1-4.165-6.2H210.56a9.469,9.469,0,0,0-9.469,9.469V289.9a9.469,9.469,0,0,0,9.469,9.469H257.2a9.469,9.469,0,0,0,9.469-9.469h0V169.89a9.469,9.469,0,0,0-9.469-9.469Z" transform="translate(-197.593 -157.122)" fill="#fff"/>
      <path id="Path_106" data-name="Path 106" d="M280.756,258.828a22.773,22.773,0,0,1-1.435,7.985,22.147,22.147,0,0,1-1.586,3.382,22.878,22.878,0,0,1-39.7,0q-.3-.527-.577-1.07a22.873,22.873,0,1,1,43.3-10.3Z" transform="translate(-221.598 -210.58)" fill="#f1f1f1"/>
      <circle id="Ellipse_2" data-name="Ellipse 2" cx="4.372" cy="4.372" r="4.372" transform="translate(33.104 43.364)" fill="#ff533d"/>
      <path id="Path_107" data-name="Path 107" d="M243.389,310.947c1.926-2.082,4.5-5.387,6.917-3,1.212,1.127,3.109,3.918,4.925,2.093l14.181-14.181a2.815,2.815,0,0,1,4.026.072l11.811,12.7a22.153,22.153,0,0,1-1.586,3.382h-39.7Z" transform="translate(-227.528 -252.402)" fill="#ab967a"/>
      <path id="Path_680" data-name="Path 680" d="M348.564,473.123a.591.591,0,1,0,0,1.182h6.2a.591.591,0,0,0,0-1.182Z" transform="translate(-301.546 -378.432)" fill="#18233e"/>
      <path id="Path_680-2" data-name="Path 680" d="M252.988,443.43a.591.591,0,0,0,0,1.182h34.405a.591.591,0,1,0,0-1.182Z" transform="translate(-233.904 -357.417)" fill="#e5e5e5"/>
      <path id="Path_680-3" data-name="Path 680" d="M252.988,458.277a.591.591,0,0,0,0,1.182h34.405a.591.591,0,0,0,0-1.182Z" transform="translate(-233.904 -367.925)" fill="#e5e5e5"/>
      <path id="Path_680-4" data-name="Path 680" d="M348.564,568.39a.591.591,0,1,0,0,1.182h6.2a.591.591,0,1,0,0-1.182Z" transform="translate(-301.546 -445.855)" fill="#18233e"/>
      <path id="Path_680-5" data-name="Path 680" d="M252.988,538.7a.591.591,0,0,0,0,1.182h34.405a.591.591,0,1,0,0-1.182Z" transform="translate(-233.904 -424.841)" fill="#e5e5e5"/>
      <path id="Path_680-6" data-name="Path 680" d="M252.988,553.543a.591.591,0,1,0,0,1.182h34.405a.591.591,0,1,0,0-1.182Z" transform="translate(-233.904 -435.348)" fill="#e5e5e5"/>
      <path id="Path_108" data-name="Path 108" d="M642.118,335.483l-4.721-2.135a3.847,3.847,0,0,1-5.429,3.362l-20.719-9.369a3.847,3.847,0,0,1-1.062-6.3l-4.409-1.994a8.1,8.1,0,0,0-10.714,4.042L552.78,416.606a8.1,8.1,0,0,0,4.042,10.714h0l36.34,16.432a8.1,8.1,0,0,0,10.714-4.042h0L646.16,346.2A8.1,8.1,0,0,0,642.118,335.483Z" transform="translate(-466.984 -268.879)" fill="#e4e4e4"/>
      <path id="Path_109" data-name="Path 109" d="M688.023,437.524A19.912,19.912,0,0,1,676.44,421.33c-.034-.345-.059-.7-.073-1.053a19.629,19.629,0,0,1,1.749-9.017A19.85,19.85,0,1,1,710.3,433.419a19.3,19.3,0,0,1-2.464,2.108A19.913,19.913,0,0,1,688.023,437.524Zm16.116-35.641a19.287,19.287,0,0,0-25.491,9.618,19.05,19.05,0,0,0-1.7,8.751c.014.343.038.687.071,1.021a19.272,19.272,0,0,0,30.471,13.779,18.711,18.711,0,0,0,2.391-2.045,19.274,19.274,0,0,0-5.744-31.125Z" transform="translate(-554.947 -326.394)" fill="#fff"/>
      <rect id="Rectangle_1" data-name="Rectangle 1" width="0.585" height="38.827" transform="translate(134.487 74.7) rotate(-20.96)" fill="#fff"/>
      <rect id="Rectangle_2" data-name="Rectangle 2" width="38.827" height="0.585" transform="matrix(0.934, -0.358, 0.358, 0.934, 122.698, 99.686)" fill="#fff"/>
      <path id="Path_110" data-name="Path 110" d="M658.766,566.587l-34.3-15.509a1.054,1.054,0,0,1-.526-1.393l3.227-7.136a1.054,1.054,0,0,1,1.393-.526l34.3,15.509a1.054,1.054,0,0,1,.526,1.393l-3.227,7.136a1.054,1.054,0,0,1-1.393.526Zm-30.446-24.031a.469.469,0,0,0-.62.234l-3.227,7.136a.469.469,0,0,0,.234.62l34.3,15.509a.469.469,0,0,0,.62-.234l3.227-7.136a.469.469,0,0,0-.234-.62Z" transform="translate(-517.792 -427.129)" fill="#fff"/>
      <path id="Path_111" data-name="Path 111" d="M630.338,629.458l-34.3-15.509a1.054,1.054,0,0,1-.526-1.393l3.227-7.136a1.054,1.054,0,0,1,1.393-.526l34.3,15.509a1.054,1.054,0,0,1,.526,1.393l-3.227,7.136A1.054,1.054,0,0,1,630.338,629.458Zm-30.446-24.031a.469.469,0,0,0-.62.234l-3.227,7.136a.469.469,0,0,0,.234.62l34.3,15.509a.469.469,0,0,0,.62-.234l3.227-7.136a.469.469,0,0,0-.234-.62Z" transform="translate(-497.672 -471.625)" fill="#fff"/>
      <path id="Path_112" data-name="Path 112" d="M519.981,475.687a30.984,30.984,0,0,0-2.726-9.626,25.607,25.607,0,0,0-4.982-7.16,18.738,18.738,0,0,0-6.379-4.267,22.227,22.227,0,0,0-8.554-1.408,56.652,56.652,0,0,0-8.645.979l-1.1.19c-.34.059-.344.937,0,.877a71.707,71.707,0,0,1,8.512-1.127,23.645,23.645,0,0,1,8.447.912,17.884,17.884,0,0,1,6.617,3.816,24.117,24.117,0,0,1,5.109,6.629,29.116,29.116,0,0,1,3,9.127q.1.64.175,1.288c.065.554.583.319.518-.233Z" transform="translate(-400.568 -364.348)" fill="#2f2e41"/>
      <path id="Path_113" data-name="Path 113" d="M482.226,435.439l-7,7.449a.443.443,0,0,0,.089.689l6.318,3.02c.507.242.952-.514.443-.757l-6.318-3.02.089.689,7-7.449c.386-.411-.233-1.032-.62-.62Z" transform="translate(-391.516 -351.665)" fill="#2f2e41"/>
    </g>
    <g id="Group_6" data-name="Group 6" transform="translate(-21)">
      <g id="Group_5" data-name="Group 5" transform="translate(-122 -90.259)">
        <rect id="Rectangle_59" data-name="Rectangle 59" width="81.92" height="0.441" transform="translate(734.866 513.948)" fill="#2f2e41"/>
        <path id="Path_479" data-name="Path 479" d="M962.753,134.849c-1.274,3.771-3.226,7.206-7.206,7.206a7.359,7.359,0,0,1-7.206-7.206c-.286-5.077,3.135-7.227,7.206-7.206C960.356,127.668,964.265,130.374,962.753,134.849Z" transform="translate(-160.288 264.419)" fill="#2f2e41"/>
        <rect id="Rectangle_60" data-name="Rectangle 60" width="14.223" height="18.016" transform="translate(788.053 398.699)" fill="#2f2e41"/>
        <path id="Path_480" data-name="Path 480" d="M1024.592,238.7h1.21a10.77,10.77,0,0,1,1.613,8.872c-1.344,5.108-.269,6.049-.269,6.049s1.75,5.531-.132,13.865,1.745,10.6,1.745,10.6l-3.36-6.721-1.882-17.743Z" transform="translate(-221.899 173.423)" fill="#575a89"/>
        <path id="Path_481" data-name="Path 481" d="M1024.592,241.146h1.21a10.77,10.77,0,0,1,1.613,8.872c-1.344,5.108-.269,6.049-.269,6.049s1.75,5.531-.132,13.865,1.745,10.6,1.745,10.6l-3.36-6.721-1.882-17.743Z" transform="translate(-221.899 171.417)" opacity="0.1"/>
        <path id="Path_482" data-name="Path 482" d="M972.493,202.505s-1.075,4.3-.538,4.3,2.42,2.285,2.42,2.285l1.21,4.436-.941,3.226-3.226-.672-4.033-4.436-1.21-1.21-1.075-3.9s1.344-1.613.4-2.957S972.493,202.505,972.493,202.505Z" transform="translate(-174.034 203.096)" fill="#fbbebe"/>
        <path id="Path_483" data-name="Path 483" d="M972.493,202.505s-1.075,4.3-.538,4.3,2.42,2.285,2.42,2.285l1.21,4.436-.941,3.226-3.226-.672-4.033-4.436-1.21-1.21-1.075-3.9s1.344-1.613.4-2.957S972.493,202.505,972.493,202.505Z" transform="translate(-174.034 203.096)" opacity="0.1"/>
        <path id="Path_484" data-name="Path 484" d="M785.241,223.907l-2.957-4.839s-3.192-7.063-5.477-4.509,3.461,7.735,3.461,7.735l2.957,3.9Z" transform="translate(-19.311 193.658)" fill="#fbbebe"/>
        <path id="Path_485" data-name="Path 485" d="M967.627,486.521l-2.151,15.727s.269,1.21-2.42,5.646-9.947,14.114-9.947,14.114l-2.151-4.032s2.554-12.77,6.99-15.458l-.538-19.356Z" transform="translate(-162.447 -26.883)" fill="#fbbebe"/>
        <path id="Path_486" data-name="Path 486" d="M967.627,486.521l-2.151,15.727s.269,1.21-2.42,5.646-9.947,14.114-9.947,14.114l-2.151-4.032s2.554-12.77,6.99-15.458l-.538-19.356Z" transform="translate(-162.447 -26.883)" opacity="0.1"/>
        <path id="Path_487" data-name="Path 487" d="M919.863,666.973l2.957,5.646s-2.419,6.855-1.479,7.527,2.151,6.721-.4,6.049a7.949,7.949,0,0,1-4.57-3.764c0-.4,1.479-6.049.672-7.393a6.523,6.523,0,0,0-1.344-1.747l-2.016,3.36-.672-.4,3.36-5.646a3.543,3.543,0,0,1,2.016-1.747Z" transform="translate(-131.351 -177.495)" fill="#2f2e41"/>
        <path id="Path_488" data-name="Path 488" d="M919.863,666.973l2.957,5.646s-2.419,6.855-1.479,7.527,2.151,6.721-.4,6.049a7.949,7.949,0,0,1-4.57-3.764c0-.4,1.479-6.049.672-7.393a6.523,6.523,0,0,0-1.344-1.747l-2.016,3.36-.672-.4,3.36-5.646a3.543,3.543,0,0,1,2.016-1.747Z" transform="translate(-131.351 -177.495)" opacity="0.1"/>
        <path id="Path_489" data-name="Path 489" d="M938.542,484.291s1.044,14.867-1.241,18.765v19.356l-3.092.4s-6.243-10.248-3.958-20.329-2.359-19.324-2.359-19.324Z" transform="translate(-143.546 -26.884)" fill="#fbbebe"/>
        <circle id="Ellipse_47" data-name="Ellipse 47" cx="5.646" cy="5.646" r="5.646" transform="translate(788.58 397.604)" fill="#fbbebe"/>
        <path id="Path_490" data-name="Path 490" d="M844.649,229.74,839,222.616l-3.226-2.151-1.345,1.747-3.764,1.075a10.393,10.393,0,0,0-4.973,3.495c-2.554,2.957-7.124,4.7-7.124,4.7l-3.764-.672s-4.436-2.016-4.436-2.554-3.9,3.629-2.957,5.242a28.36,28.36,0,0,0,4.032,4.7c1.075,1.075,1.479,4.167,8.065,3.226s9.006-4.167,9.006-4.167,1.21,6.183,4.7,7.393,14.92,2.016,14.92,2.016l2.419-8.065s2.688-3.495-.941-8.6a33.716,33.716,0,0,0-.46-4.758,3.144,3.144,0,0,0-.615-1.56c-.941-.807-5.914-2.151-5.914-2.151s.806,2.688,1.21,2.823S845.185,229.068,844.649,229.74Z" transform="translate(-44.71 188.362)" fill="#ff533d"/>
        <path id="Path_491" data-name="Path 491" d="M903.742,384.053c6.769-.614,10.71.834,12.469,1.938a4.435,4.435,0,0,1,.917.727.611.611,0,0,1,.191.319c0,.527,9.275,1.58,12.635.527s-2.285-23.7-3.764-25.628-.682-9-.682-9-2.948-.832-3.754-.481-4.973-.527-6.452-1.58-3.36-.351-4.57-.7a.7.7,0,0,0-.949.448,2.8,2.8,0,0,1-.919,1.213c-2.854,2.147-5.144,16.99-6.869,25.2C900.112,385.984,903.742,384.053,903.742,384.053Z" transform="translate(-121.883 82.119)" fill="#2f2e41"/>
        <path id="Path_492" data-name="Path 492" d="M962.056,693.763l.538,2.957s2.824,4.033,2.016,7.393c0,0,.672,4.436,3.092,5.646s.4,4.033-1.882,3.9-4.436.135-4.7-.538-1.882-7.259-1.882-7.259l-.441,7.707-1.344.134.441-8.917s-1.075-2.016.4-5.377l-.373-5.158S961.653,695.107,962.056,693.763Z" transform="translate(-167.764 -199.446)" fill="#2f2e41"/>
        <path id="Path_493" data-name="Path 493" d="M983.154,464.635a4.458,4.458,0,0,1,.917.556c.071-1.27.483-8.952-.011-8.829Z" transform="translate(-188.827 -4.925)" opacity="0.1"/>
        <path id="Path_494" data-name="Path 494" d="M937.352,144.077s-.063-.348-2.508.569-3.911,7.684-2.688,11.657a3.641,3.641,0,0,1-.562,3.564,5.887,5.887,0,0,0,2.087,9.143q.151.066.309.13l1.528.917a6.989,6.989,0,0,1-.973-5.843,16.812,16.812,0,0,0,.3-8.607c-.112-.48-.239-.975-.383-1.48-1.223-4.279-.628-3.785,3.651-8.064a27.2,27.2,0,0,0,4.585,2.751c2.14.917,3.974,1.834,2.445,4.89s-5.2,5.807-2.751,9.781,2.751,2.445,2.445,3.974h0l-.306,1.528,1.834-1.834-1.223,2.445s3.974,0,5.2-3.057l.611.611s2.445-4.279-2.14-8.253c0,0-1.528-.917.611-3.974s.5-9.628-2.255-10.851S937.352,144.077,937.352,144.077Z" transform="translate(-145.464 251.399)" fill="#2f2e41"/>
      </g>
    </g>
  </g>
</svg>
